<svg xmlns="http://www.w3.org/2000/svg" width="1024" height="768" viewBox="0 0 1024 768"><rect x="-6407" y="-4622.09" fill="#E74C3C" stroke="#E74C3C" stroke-miterlimit="10" width="14063" height="10085.179"/><g id="scene"><text id="title" transform="translate(37.348 60.252)" fill="#F5F7FA" font-weight="100" font-size="36">Over the years I worked for companies</text><g id="desks"><g id="deskleft"><path fill="#982E21" d="M-18.878 684.31c0 30.705-25.121 55.827-55.825 55.827h-863.771c-30.705 0-57.377-26.673-57.377-57.377v-472.98c0-30.705 25.122-55.828 55.827-55.828h865.321c30.704 0 55.825 25.123 55.825 55.828v474.53z"/><path fill="#BE3D2F" d="M-15 680.433c0 30.704-25.124 55.827-55.828 55.827h-865.319c-30.705 0-55.828-25.123-55.828-55.827v-474.53c0-30.705 25.123-55.827 55.828-55.827h865.319c30.704 0 55.828 25.122 55.828 55.827v474.53z"/><path fill="#9E3023" d="M-199.92 258.513l-303.134-65.696s-7.256-1.574-8.828 5.684c-1.572 7.256 5.683 8.828 5.683 8.828l21.768 4.717s-7.256-1.572-8.829 5.684c-1.573 7.256-32.673 150.761-32.673 150.761-1.641 7.57 3.972 15.212 11.542 16.851l245.893 53.29c7.57 1.646 15.036-3.166 16.676-10.73 0 0 24.924-115.006 31.275-144.312l1.397-6.449c1.572-7.256-5.683-8.829-5.683-8.829l21.768 4.717s7.255 1.573 8.828-5.684c1.573-7.26-5.683-8.832-5.683-8.832z"/><path fill="#DCE4E8" d="M-246.005 427.477c-1.64 7.567-9.106 12.377-16.676 10.735l-245.894-53.29c-7.568-1.642-13.182-9.281-11.54-16.851 0 0 31.1-143.505 32.671-150.761 1.572-7.255 8.829-5.684 8.829-5.684l259.6 56.26s7.256 1.572 5.684 8.829c-1.572 7.256-32.674 150.762-32.674 150.762z"/><path fill="#F7F9F8" d="M-197.248 272.604l-303.135-65.695s-7.254-1.573-5.683-8.83c1.573-7.254 8.829-5.683 8.829-5.683l303.134 65.696s7.256 1.572 5.684 8.827c-1.573 7.257-8.829 5.685-8.829 5.685z"/><path opacity=".3" fill="#B7BFC7" enable-background="new" d="M-214.729 283.164l-297.192 47.208s22.906-105.806 24.478-113.062c1.572-7.255 8.829-5.684 8.829-5.684l259.6 56.26s7.256 1.572 5.684 8.829c-1.573 7.256-1.399 6.449-1.399 6.449z"/><rect x="-418.119" y="361.819" transform="matrix(.977 .212 -.212 .977 72.008 89.032)" fill="#F7F9F8" width="76.701" height="37.937"/><g id="keyboard2" fill="#F7F9F8"><rect x="-449.626" y="247.04" transform="matrix(.977 .212 -.212 .977 43.339 99.375)" width="14.849" height="9.899"/><rect x="-453.374" y="262.337" transform="matrix(.977 .212 -.212 .977 46.913 100.514)" width="14.844" height="14.017"/><rect x="-457.868" y="282.693" transform="matrix(.977 .212 -.212 .977 51.428 100.951)" width="24.748" height="15.672"/><rect x="-462.204" y="303.953" transform="matrix(.977 .212 -.212 .977 55.8 101.245)" width="35.47" height="14.022"/><rect x="-434.049" y="266.585" transform="matrix(.977 .212 -.212 .977 48.279 96.481)" width="15.674" height="14.021"/><rect x="-428.742" y="287.998" transform="matrix(.977 .212 -.212 .977 53.111 95.866)" width="15.671" height="15.671"/><rect x="-422.465" y="310.441" transform="matrix(.977 .212 -.212 .977 57.827 95.014)" width="15.673" height="14.023"/><rect x="-403.1" y="314.561" transform="matrix(.977 .212 -.212 .977 59.132 91.099)" width="14.849" height="14.024"/><rect x="-382.948" y="318.917" transform="matrix(.977 .212 -.212 .977 60.515 86.936)" width="14.848" height="14.023"/><rect x="-363.554" y="323.184" transform="matrix(.977 .212 -.212 .977 61.834 82.883)" width="14.846" height="14.017"/><rect x="-343.424" y="327.508" transform="matrix(.977 .212 -.212 .977 63.224 78.746)" width="14.848" height="14.023"/><rect x="-324.89" y="331.614" transform="matrix(.977 .212 -.212 .977 64.498 74.791)" width="15.671" height="14.021"/><rect x="-304.977" y="338.061" transform="matrix(.977 .212 -.212 .977 66.568 68.665)" width="35.467" height="14.021"/><rect x="-408.566" y="292.305" transform="matrix(.977 .212 -.212 .977 54.469 91.771)" width="14.849" height="15.671"/><rect x="-389.21" y="296.617" transform="matrix(.977 .212 -.212 .977 55.812 87.644)" width="15.669" height="15.671"/><rect x="-369.047" y="300.897" transform="matrix(.977 .212 -.212 .977 57.166 83.559)" width="14.846" height="15.672"/><rect x="-349.742" y="305.12" transform="matrix(.977 .212 -.212 .977 58.55 79.554)" width="15.674" height="15.672"/><rect x="-329.555" y="309.435" transform="matrix(.977 .212 -.212 .977 59.893 75.43)" width="14.848" height="15.672"/><polygon points="-298.478,330.877 -311.69,327.558 -308.371,312.24 -295.158,315.56"/><polygon points="-269.454,337.159 -291.53,331.921 -288.213,316.608 -266.137,321.846"/><rect x="-413.892" y="270.953" transform="matrix(.977 .212 -.212 .977 49.658 92.303)" width="15.668" height="14.023"/><rect x="-394.52" y="275.083" transform="matrix(.977 .212 -.212 .977 50.949 88.35)" width="14.843" height="14.019"/><rect x="-374.375" y="279.438" transform="matrix(.977 .212 -.212 .977 52.349 84.227)" width="14.848" height="14.023"/><rect x="-355.008" y="283.654" transform="matrix(.977 .212 -.212 .977 53.658 80.176)" width="14.848" height="14.021"/><rect x="-334.881" y="287.982" transform="matrix(.977 .212 -.212 .977 55.055 76.055)" width="14.848" height="14.024"/><rect x="-316.346" y="292.086" transform="matrix(.977 .212 -.212 .977 56.354 72.136)" width="15.671" height="14.022"/><rect x="-296.386" y="298.585" transform="matrix(.977 .212 -.212 .977 58.38 65.92)" width="35.463" height="14.017"/><rect x="-466.123" y="320.36" transform="matrix(.977 .212 -.212 .977 59.086 104.555)" width="14.843" height="15.673"/><rect x="-446.812" y="324.6" transform="matrix(.977 .212 -.212 .977 60.448 100.511)" width="15.673" height="15.671"/><rect x="-427.555" y="337.451" transform="matrix(.977 .212 -.212 .977 64.517 88.257)" width="95.68" height="15.673"/><rect x="-329.105" y="350.109" transform="matrix(.977 .212 -.212 .977 68.531 76.175)" width="15.673" height="15.67"/><polygon points="-295.128,371.619 -312.548,368.298 -309.227,352.98 -291.807,356.301"/><rect x="-288.773" y="358.775" transform="matrix(.977 .212 -.212 .977 71.296 67.943)" width="14.849" height="15.672"/><rect x="-432.392" y="251.317" transform="matrix(.977 .212 -.212 .977 44.648 95.743)" width="15.673" height="9.899"/><rect x="-412.233" y="255.696" transform="matrix(.977 .212 -.212 .977 46.044 91.6)" width="15.673" height="9.9"/><rect x="-392.868" y="259.815" transform="matrix(.977 .212 -.212 .977 47.314 87.598)" width="14.845" height="9.9"/><rect x="-372.739" y="264.123" transform="matrix(.977 .212 -.212 .977 48.702 83.479)" width="14.847" height="9.9"/><rect x="-353.345" y="268.402" transform="matrix(.977 .212 -.212 .977 50.028 79.427)" width="14.847" height="9.899"/><rect x="-333.198" y="272.755" transform="matrix(.977 .212 -.212 .977 51.41 75.269)" width="14.845" height="9.898"/><rect x="-314.691" y="276.817" transform="matrix(.977 .212 -.212 .977 52.717 71.385)" width="15.672" height="9.899"/><rect x="-294.528" y="281.198" transform="matrix(.977 .212 -.212 .977 54.098 67.208)" width="15.671" height="9.898"/><rect x="-274.367" y="285.476" transform="matrix(.977 .212 -.212 .977 55.463 63.137)" width="14.849" height="9.898"/></g><rect x="-416.41" y="239.68" transform="matrix(.977 .212 -.212 .977 43.619 79.569)" fill="#DCE4E8" width="133.62" height="7.423"/><g id="mouse04-1"><path fill="#9E3023" d="M-125.212 424.385l-.012-.002c-9.819-2.115-19.5 4.104-21.658 13.906l-.036.131-.036.162-7.219 33.392-.056.364-.357 1.758h.003c-2.093 9.899 4.186 19.394 13.984 21.505 9.844 2.128 19.556-4.206 21.664-13.949l7.682-35.562c2.129-9.847-4.114-19.577-13.959-21.705z"/><path fill="#DCE4E8" d="M-142.757 435.814l-.037.133-.035.16-7.219 33.393-.056.261-.357 1.652h.003c-2.093 10.044 4.186 19.49 13.983 21.604l15.375-71.104c-9.819-2.12-19.498 4.1-21.657 13.901z"/><path fill="#F7F9F8" d="M-121.087 421.91l-.012-.002-15.375 71.104c9.844 2.132 19.556-4.146 21.664-13.896l-.093-.021.093.021 7.683-35.532c2.127-9.843-4.115-19.546-13.96-21.674z"/></g></g><g id="deskright"><path fill="#982E21" d="M2024.706 694.257c0 30.705-25.121 55.827-55.825 55.827h-863.771c-30.704 0-57.378-26.673-57.378-57.377v-472.979c0-30.705 25.114-55.828 55.819-55.828h865.321c30.704 0 55.824 25.123 55.824 55.828l.01 474.529z"/><path fill="#BE3D2F" d="M2028.584 690.38c0 30.704-25.124 55.827-55.828 55.827h-865.318c-30.697 0-55.82-25.123-55.82-55.827v-474.53c0-30.705 25.123-55.827 55.82-55.827h865.318c30.704 0 55.828 25.122 55.828 55.827v474.53z"/><path fill="#586273" d="M1501.825 184.246z"/><path fill="#9E3023" d="M1544.773 196.214l-258.365 171.62s-6.188 4.108-2.078 10.292c4.109 6.185 10.293 2.077 10.293 2.077l18.553-12.324s-6.184 4.107-2.074 10.292c4.106 6.184 85.354 128.496 85.354 128.496 4.285 6.449 13.678 7.75 20.127 3.467l209.579-139.213c6.452-4.286 8.207-12.99 3.923-19.441 0 0-65.111-98.023-81.702-123-.083-.125-.64-.962-3.65-5.497-4.104-6.184-10.292-2.076-10.292-2.076l18.559-12.324s6.186-4.108 2.071-10.292c-4.114-6.186-10.298-2.077-10.298-2.077z"/><path fill="#DCE4E8" d="M1633.836 347.014c4.285 6.451 2.529 15.155-3.923 19.441l-209.578 139.211c-6.449 4.285-15.843 2.984-20.129-3.465 0 0-81.245-122.312-85.353-128.497-4.108-6.185 2.07-10.292 2.07-10.292l221.266-146.973s6.185-4.108 10.293 2.076c4.108 6.187 85.354 128.499 85.354 128.499z"/><path fill="#F7F9F8" d="M1556.742 204.117l-258.365 171.621s-6.186 4.108-10.293-2.077c-4.105-6.184 2.077-10.292 2.077-10.292l258.366-171.62s6.184-4.108 10.292 2.076c4.108 6.184-2.077 10.292-2.077 10.292z"/><path opacity=".3" fill="#B7BFC7" enable-background="new" d="M1552.133 224.015l-173.255 246.038s-59.919-90.165-64.024-96.346c-4.104-6.185 2.076-10.292 2.076-10.292l221.266-146.973s6.185-4.108 10.293 2.076c4.101 6.184 3.644 5.497 3.644 5.497z"/><rect x="1468.734" y="391.44" transform="matrix(.833 -.553 .553 .833 24.622 902.399)" fill="#F7F9F8" width="76.727" height="37.948"/><g id="keyboard3" fill="#F7F9F8"><rect x="1362.322" y="361.899" transform="matrix(.833 -.553 .553 .833 25.784 819.12)" width="14.85" height="9.901"/><rect x="1372.171" y="374.717" transform="matrix(.833 -.553 .553 .833 19.2 827.068)" width="14.853" height="14.025"/><rect x="1382.753" y="388.325" transform="matrix(.833 -.553 .553 .833 13.804 838.055)" width="24.749" height="15.672"/><rect x="1392.826" y="402.718" transform="matrix(.833 -.553 .553 .833 8.883 848.889)" width="35.475" height="14.025"/><rect x="1388.571" y="363.465" transform="matrix(.833 -.553 .553 .833 28.231 834.481)" width="15.674" height="14.024"/><rect x="1408.24" y="374.39" transform="matrix(.833 -.553 .553 .833 24.999 847.278)" width="15.675" height="15.673"/><rect x="1428.134" y="385.785" transform="matrix(.833 -.553 .553 .833 22.469 860.038)" width="15.676" height="14.024"/><rect x="1444.695" y="375.059" transform="matrix(.833 -.553 .553 .833 31.123 867.25)" width="14.849" height="14.024"/><rect x="1461.888" y="363.683" transform="matrix(.833 -.553 .553 .833 40.302 874.902)" width="14.849" height="14.024"/><rect x="1478.395" y="352.768" transform="matrix(.833 -.553 .553 .833 49.085 882.173)" width="14.849" height="14.024"/><rect x="1495.511" y="341.195" transform="matrix(.833 -.553 .553 .833 58.327 889.658)" width="14.85" height="14.024"/><rect x="1511.279" y="330.553" transform="matrix(.833 -.553 .553 .833 66.934 896.879)" width="15.678" height="14.024"/><rect x="1526.794" y="313.643" transform="matrix(.833 -.553 .553 .833 80.536 908.121)" width="35.478" height="14.024"/><rect x="1425.522" y="363.292" transform="matrix(.833 -.553 .553 .833 33.974 854.814)" width="14.849" height="15.676"/><rect x="1441.982" y="352.212" transform="matrix(.833 -.553 .553 .833 42.928 862.315)" width="15.672" height="15.676"/><rect x="1459.198" y="340.945" transform="matrix(.833 -.553 .553 .833 51.968 869.729)" width="14.852" height="15.675"/><rect x="1475.569" y="329.624" transform="matrix(.833 -.553 .553 .833 61.032 877.114)" width="15.673" height="15.673"/><rect x="1492.802" y="318.401" transform="matrix(.833 -.553 .553 .833 70.049 884.542)" width="14.849" height="15.675"/><rect x="1509.219" y="307.207" transform="matrix(.833 -.553 .553 .833 79.055 891.988)" width="15.673" height="15.673"/><rect x="1525.697" y="293.421" transform="matrix(.833 -.553 .553 .833 90.197 901.325)" width="24.749" height="15.676"/><rect x="1405.765" y="352.106" transform="matrix(.833 -.553 .553 .833 37.391 842.109)" width="15.673" height="14.024"/><rect x="1422.385" y="341.535" transform="matrix(.833 -.553 .553 .833 45.959 849.345)" width="14.849" height="14.024"/><rect x="1439.554" y="330.106" transform="matrix(.833 -.553 .553 .833 55.132 856.886)" width="14.85" height="14.024"/><rect x="1455.982" y="318.971" transform="matrix(.833 -.553 .553 .833 64.051 864.153)" width="14.85" height="14.024"/><rect x="1473.194" y="307.647" transform="matrix(.833 -.553 .553 .833 73.196 871.798)" width="14.849" height="14.024"/><rect x="1488.91" y="296.874" transform="matrix(.833 -.553 .553 .833 81.837 878.888)" width="15.673" height="14.024"/><rect x="1504.446" y="280.021" transform="matrix(.833 -.553 .553 .833 95.416 890.164)" width="35.481" height="14.024"/><rect x="1405.514" y="424.131" transform="matrix(.833 -.553 .553 .833 -3.044 853.854)" width="14.85" height="15.678"/><rect x="1421.873" y="412.738" transform="matrix(.833 -.553 .553 .833 6.077 861.286)" width="15.673" height="15.676"/><rect x="1432.404" y="379.317" transform="matrix(.833 -.553 .553 .833 33.011 883.672)" width="95.702" height="15.677"/><rect x="1522.218" y="346.175" transform="matrix(.833 -.553 .553 .833 59.666 905.688)" width="15.673" height="15.673"/><rect x="1539.458" y="334.924" transform="matrix(.833 -.553 .553 .833 68.759 913.322)" width="15.672" height="15.676"/><rect x="1556.656" y="323.617" transform="matrix(.833 -.553 .553 .833 77.828 920.743)" width="14.849" height="15.673"/><rect x="1378.836" y="350.974" transform="matrix(.833 -.553 .553 .833 34.653 826.653)" width="15.675" height="9.901"/><rect x="1395.856" y="339.135" transform="matrix(.833 -.553 .553 .833 44.049 834.105)" width="15.674" height="9.901"/><rect x="1412.457" y="328.518" transform="matrix(.833 -.553 .553 .833 52.64 841.321)" width="14.85" height="9.9"/><rect x="1429.688" y="317.252" transform="matrix(.833 -.553 .553 .833 61.746 848.96)" width="14.848" height="9.9"/><rect x="1446.22" y="306.398" transform="matrix(.833 -.553 .553 .833 70.533 856.346)" width="14.851" height="9.9"/><rect x="1463.365" y="294.903" transform="matrix(.833 -.553 .553 .833 79.731 863.848)" width="14.849" height="9.901"/><rect x="1479.137" y="284.26" transform="matrix(.833 -.553 .553 .833 88.315 871.006)" width="15.675" height="9.9"/><rect x="1496.245" y="272.679" transform="matrix(.833 -.553 .553 .833 97.59 878.561)" width="15.673" height="9.898"/><rect x="1513.556" y="261.643" transform="matrix(.833 -.553 .553 .833 106.516 886.064)" width="14.849" height="9.901"/></g><rect x="1362.799" y="289.333" transform="matrix(.833 -.553 .553 .833 76.626 839.944)" fill="#DCE4E8" width="133.654" height="7.425"/><path fill="#9E3023" d="M1091.779 263.061c-4.256.67-7.189 4.7-6.521 8.956l23.162 147.03c.67 4.256 4.701 7.19 8.957 6.521l50.301-7.926-25.6-162.511-50.299 7.93z"/><path fill="#9E3023" d="M1192.379 247.213l-50.299 7.924 25.6 162.506 50.299-7.924c4.264-.67 7.189-4.701 6.521-8.957l-23.162-147.031c-.672-4.256-4.703-7.188-8.959-6.518z"/><path fill="#586273" d="M1094.779 260.061c-4.256.67-7.189 4.7-6.521 8.956l23.162 147.03c.67 4.256 4.701 7.19 8.957 6.521l50.301-7.926-25.6-162.511-50.299 7.93z"/><path fill="#DCE4E8" d="M1094.779 260.061c-4.256.67-7.189 4.7-6.521 8.956l23.162 147.03c.67 4.256 4.701 7.19 8.957 6.521l50.301-7.926-25.6-162.511-50.299 7.93z" opacity=".2"/><path fill="#586273" d="M1195.379 244.213l-50.299 7.924 25.6 162.506 50.299-7.924c4.264-.67 7.189-4.701 6.521-8.957l-23.162-147.031c-.672-4.256-4.703-7.188-8.959-6.518z"/><polygon fill="#F7F9F8" points="1122.42,410.348 1122.424,410.35 1215.277,395.723 1215.279,395.719 1193.338,256.432 1193.336,256.431 1100.48,271.059 1100.479,271.061"/><path fill="#464E5C" d="M1142.793 237.625c-6.41 1.01-10.787 7.026-9.777 13.438 1.018 6.409 7.023 10.788 13.438 9.778 6.41-1.01 10.787-7.025 9.774-13.436-1.009-6.411-7.023-10.79-13.435-9.78zm2.744 17.414c-3.205.504-6.215-1.686-6.719-4.89-.506-3.205 1.686-6.214 4.889-6.72 3.207-.504 6.213 1.686 6.719 4.891.504 3.205-1.684 6.213-4.889 6.719z"/><rect x="1128.838" y="389.474" transform="matrix(.988 -.156 .156 .988 -46.695 186.369)" fill="#DCE4E8" width="76.369" height="3.913"/><rect x="1127.006" y="377.875" transform="matrix(.988 -.156 .156 .988 -44.909 185.921)" fill="#DCE4E8" width="76.372" height="3.914"/><rect x="1125.177" y="366.268" transform="matrix(.988 -.156 .156 .988 -43.127 185.506)" fill="#DCE4E8" width="76.367" height="3.919"/><rect x="1123.351" y="354.65" transform="matrix(.988 -.156 .156 .988 -41.341 185.079)" fill="#DCE4E8" width="76.371" height="3.919"/><rect x="1121.52" y="343.045" transform="matrix(.988 -.156 .156 .988 -39.558 184.656)" fill="#DCE4E8" width="76.373" height="3.917"/><rect x="1119.692" y="331.446" transform="matrix(.988 -.156 .156 .988 -37.775 184.229)" fill="#DCE4E8" width="76.367" height="3.916"/><rect x="1117.862" y="319.829" transform="matrix(.988 -.156 .156 .988 -35.99 183.806)" fill="#DCE4E8" width="76.372" height="3.917"/><rect x="1116.04" y="308.197" transform="matrix(.988 -.156 .156 .988 -34.203 183.381)" fill="#DCE4E8" width="76.372" height="3.919"/><rect x="1114.207" y="296.616" transform="matrix(.988 -.156 .156 .988 -32.423 182.957)" fill="#DCE4E8" width="76.371" height="3.918"/><rect x="1112.379" y="285.019" transform="matrix(.988 -.156 .156 .988 -30.64 182.524)" fill="#DCE4E8" width="76.371" height="3.917"/><rect x="1110.553" y="273.389" transform="matrix(.988 -.156 .156 .988 -28.853 182.105)" fill="#DCE4E8" width="76.371" height="3.916"/><path fill="#464E5C" d="M1175.164 254.336c.672 4.256-2.264 8.287-6.518 8.957l-42.562 6.705c-4.256.67-8.287-2.264-8.957-6.52l-.305-1.936c-.67-4.256 2.264-8.285 6.52-8.955l42.562-6.705c4.254-.67 8.285 2.262 8.955 6.518l.305 1.936z"/><g id="mouse04-2"><path fill="#9E3023" d="M1773.521 256.239l-.017-.002c-9.815-2.115-19.5 4.104-21.656 13.906l-.032.132-.033.161-7.223 33.392-.061.364-.354 1.758h.006c-2.098 9.898 4.187 19.388 13.979 21.505 9.846 2.128 19.562-4.206 21.664-13.955l7.684-35.559c2.132-9.843-4.111-19.574-13.957-21.702z"/><path fill="#DCE4E8" d="M1755.979 267.668l-.031.131-.036.162-7.224 33.393-.057.261-.357 1.652h.009c-2.099 10.044 4.188 19.49 13.979 21.607l15.374-71.112c-9.822-2.115-19.5 4.105-21.657 13.906z"/><path fill="#F7F9F8" d="M1777.646 253.764l-.018-.004-15.374 71.112c9.845 2.129 19.562-4.153 21.663-13.901l-.093-.021h0l.093.021 7.684-35.531c2.134-9.845-4.109-19.548-13.955-21.676z"/></g></g><g id="desk"><g id="mouse04"><path fill="#BE3D2F" d="M942.637 618.324l-.012-.002c-9.819-2.115-19.5 4.104-21.658 13.9l-.036.137-.034.156-7.22 33.396-.057.364-.356 1.758h.003c-2.093 9.896 4.188 19.388 13.983 21.505 9.845 2.128 19.557-4.206 21.664-13.955l7.682-35.561c2.129-9.839-4.115-19.57-13.959-21.698z"/><path fill="#DCE4E8" d="M925.092 629.754l-.036.131-.034.162-7.221 33.396-.056.261-.357 1.646h.004c-2.094 10.052 4.188 19.492 13.983 21.609l15.374-71.112c-9.819-2.115-19.499 4.105-21.657 13.907z"/><path fill="#F7F9F8" d="M946.762 615.849l-.013-.001-15.374 71.112c9.844 2.129 19.556-4.153 21.664-13.902l-.095-.021.095.021 7.682-35.524c2.128-9.853-4.115-19.555-13.959-21.685z"/></g><path fill="#BE3D2F" d="M708.382 211.103c1.513-6.452 7.969-10.459 14.421-8.948l57.122 13.374c6.452 1.511 10.46 7.966 8.948 14.419l-5.798 55.472c-1.511 6.453-7.967 10.46-14.419 8.949l-70.755-16.565c-6.452-1.511-10.459-7.966-8.948-14.419l19.429-52.282z"/><path fill="#656D78" d="M715.627 207.565c1.512-6.453 7.968-10.459 14.42-8.948l57.122 13.374c6.453 1.511 10.46 7.966 8.948 14.419l-5.798 55.472c-1.516 6.453-7.966 10.459-14.419 8.948l-70.754-16.565c-6.452-1.511-10.459-7.966-8.949-14.419l19.43-52.281z"/><path fill="#AAB2BD" d="M720.82 208.781c1.512-6.453 7.968-10.459 14.42-8.949l46.086 10.79c6.454 1.511 10.46 7.967 8.949 14.419l-2.735 11.685c-1.511 6.453-7.966 10.459-14.419 8.948l-46.087-10.79c-6.453-1.511-10.46-7.967-8.949-14.42l2.735-11.683z"/><radialGradient id="imaclight_1_" cx="767.834" cy="2192.019" r="262.548" gradientTransform="matrix(.977 .212 -.054 .25 109.253 -439.928)" gradientUnits="userSpaceOnUse"><stop offset=".103" stop-color="#fff" stop-opacity=".4"/><stop offset=".795" stop-color="#fff" stop-opacity=".057"/><stop offset=".909" stop-color="#fff" stop-opacity="0"/></radialGradient><polygon id="imaclight" fill="url(#imaclight_1_)" points="1051.262,402.466 473.101,271.059 528.924,172.674 1046.27,293.796"/><rect x="482.493" y="240.897" transform="matrix(-.974 -.228 .228 -.974 1418.465 674.992)" fill="#E6E9ED" width="531.453" height="29.34"/><path fill="#656D78" d="M1010.22 301.87s-107.047-42.864-257.312-78.046c-150.271-35.182-260.027-43.077-260.027-43.077l517.339 121.123z"/><rect x="512.784" y="503.601" transform="matrix(-.983 -.182 .182 -.983 1185.572 1203.981)" fill="#BE3D2F" width="270.548" height="87.925"/><rect x="516.667" y="500.938" transform="matrix(.983 .182 -.182 .983 110.124 -109.606)" fill="#E6E9ED" width="270.548" height="87.926"/><g id="keyboard" fill="#CCD1D9"><rect x="519.969" y="545.874" transform="matrix(.983 .182 -.182 .983 109.434 -86.672)" width="13.526" height="13.529"/><rect x="523.664" y="525.926" transform="matrix(.983 .182 -.182 .983 105.827 -87.654)" width="13.525" height="13.528"/><rect x="527.32" y="506.02" transform="matrix(.983 .182 -.182 .983 102.268 -88.654)" width="13.53" height="13.526"/><rect x="531.082" y="486.022" transform="matrix(.983 .182 -.182 .983 98.713 -89.691)" width="13.527" height="13.525"/><rect x="539.89" y="549.59" transform="matrix(.983 .182 -.182 .983 110.455 -90.246)" width="13.53" height="13.528"/><rect x="543.662" y="529.584" transform="matrix(.983 .182 -.182 .983 106.875 -91.267)" width="13.53" height="13.526"/><rect x="547.407" y="509.596" transform="matrix(.983 .182 -.182 .983 103.306 -92.289)" width="13.529" height="13.527"/><rect x="550.915" y="489.786" transform="matrix(.983 .182 -.182 .983 99.772 -93.271)" width="13.527" height="13.527"/><rect x="559.93" y="553.22" transform="matrix(.983 .182 -.182 .983 111.469 -93.846)" width="13.528" height="13.528"/><rect x="563.569" y="533.305" transform="matrix(.983 .182 -.182 .983 107.829 -94.788)" width="13.526" height="13.528"/><rect x="567.285" y="513.345" transform="matrix(.983 .182 -.182 .983 104.186 -95.744)" width="13.523" height="13.523"/><rect x="570.949" y="493.417" transform="matrix(.983 .182 -.182 .983 100.699 -96.804)" width="13.525" height="13.525"/><rect x="579.162" y="564.324" transform="matrix(.983 .182 -.182 .983 114.402 -104.486)" width="94.684" height="13.532"/><rect x="583.526" y="536.995" transform="matrix(.983 .182 -.182 .983 108.825 -98.353)" width="13.527" height="13.528"/><rect x="587.203" y="517.058" transform="matrix(.983 .182 -.182 .983 105.266 -99.362)" width="13.526" height="13.526"/><rect x="590.923" y="497.072" transform="matrix(.983 .182 -.182 .983 101.76 -100.43)" width="13.528" height="13.526"/><rect x="603.462" y="540.7" transform="matrix(.983 .182 -.182 .983 109.871 -101.948)" width="13.528" height="13.529"/><rect x="607.162" y="520.746" transform="matrix(.983 .182 -.182 .983 106.369 -103.012)" width="13.525" height="13.527"/><rect x="610.858" y="500.796" transform="matrix(.983 .182 -.182 .983 102.642 -103.889)" width="13.527" height="13.523"/><rect x="623.412" y="544.396" transform="matrix(.983 .182 -.182 .983 110.762 -105.428)" width="13.524" height="13.524"/><rect x="627.059" y="524.501" transform="matrix(.983 .182 -.182 .983 107.233 -106.447)" width="13.527" height="13.527"/><rect x="630.802" y="504.517" transform="matrix(.983 .182 -.182 .983 103.624 -107.431)" width="13.525" height="13.523"/><rect x="643.466" y="548.005" transform="matrix(.983 .182 -.182 .983 111.762 -109.023)" width="13.523" height="13.526"/><rect x="647.062" y="528.134" transform="matrix(.983 .182 -.182 .983 108.32 -110.103)" width="13.527" height="13.528"/><rect x="650.748" y="508.211" transform="matrix(.983 .182 -.182 .983 104.709 -111.069)" width="13.527" height="13.526"/><rect x="663.413" y="551.676" transform="matrix(.983 .182 -.182 .983 112.984 -112.774)" width="13.526" height="13.529"/><rect x="667.011" y="531.823" transform="matrix(.983 .182 -.182 .983 109.325 -113.674)" width="13.527" height="13.529"/><rect x="670.706" y="511.898" transform="matrix(.983 .182 -.182 .983 105.795 -114.713)" width="13.528" height="13.527"/><rect x="679.575" y="575.418" transform="matrix(.983 .182 -.182 .983 117.531 -115.281)" width="13.526" height="13.532"/><rect x="683.268" y="555.447" transform="matrix(.983 .182 -.182 .983 113.994 -116.321)" width="13.527" height="13.527"/><rect x="686.995" y="535.516" transform="matrix(.983 .182 -.182 .983 110.216 -117.149)" width="13.523" height="13.523"/><rect x="690.783" y="515.451" transform="matrix(.983 .182 -.182 .983 106.713 -118.249)" width="13.525" height="13.53"/><rect x="699.54" y="579.094" transform="matrix(.983 .182 -.182 .983 118.439 -118.776)" width="13.531" height="13.53"/><rect x="703.17" y="559.202" transform="matrix(.983 .182 -.182 .983 114.914 -119.8)" width="13.527" height="13.528"/><rect x="706.956" y="539.171" transform="matrix(.983 .182 -.182 .983 111.287 -120.785)" width="13.532" height="13.528"/><rect x="710.504" y="519.359" transform="matrix(.983 .182 -.182 .983 107.782 -121.801)" width="13.527" height="13.527"/><rect x="719.567" y="582.728" transform="matrix(.983 .182 -.182 .983 119.513 -122.427)" width="13.528" height="13.529"/><rect x="723.223" y="562.803" transform="matrix(.983 .182 -.182 .983 115.86 -123.351)" width="13.532" height="13.528"/><rect x="726.86" y="542.906" transform="matrix(.983 .182 -.182 .983 112.317 -124.362)" width="13.53" height="13.528"/><rect x="730.546" y="522.966" transform="matrix(.983 .182 -.182 .983 108.812 -125.427)" width="13.528" height="13.526"/><rect x="739.423" y="586.476" transform="matrix(.983 .182 -.182 .983 120.547 -125.997)" width="13.526" height="13.528"/><rect x="743.165" y="566.481" transform="matrix(.983 .182 -.182 .983 116.899 -126.952)" width="13.528" height="13.53"/><rect x="746.797" y="546.638" transform="matrix(.983 .182 -.182 .983 113.268 -127.871)" width="13.526" height="13.527"/><rect x="750.503" y="526.627" transform="matrix(.983 .182 -.182 .983 109.689 -128.879)" width="13.526" height="13.526"/><rect x="761.265" y="570.058" transform="matrix(.983 .182 -.182 .983 119.575 -129.905)" width="13.524" height="33.815"/><rect x="766.705" y="550.371" transform="matrix(.983 .182 -.182 .983 114.231 -131.384)" width="13.525" height="13.526"/><rect x="770.406" y="530.392" transform="matrix(.983 .182 -.182 .983 110.896 -132.627)" width="13.526" height="13.524"/></g><g id="freelance"><path fill="#586273" d="M220.277 297.438l-36.38 12.762c-2.858 1.002-4.377 4.163-3.374 7.021l25.523 72.759c1.002 2.854 4.163 4.377 7.021 3.373l36.381-12.766c2.858-1.002 4.376-4.162 3.374-7.02l-25.523-72.76c-1.004-2.852-4.163-4.372-7.022-3.369zm25.524 72.761l-36.381 12.762-23.697-67.555.006-.012 36.362-12.755.013.005 23.697 67.555z"/><rect x="225.322" y="380.396" transform="matrix(.944 -.331 .331 .944 -113.435 97.472)" fill="#464E5C" width="8.264" height="2.754"/><polygon fill="#F7F9F8" points="185.729,315.395 185.723,315.406 209.42,382.961 245.801,370.199 222.104,302.645 222.091,302.64"/><path fill="#62C3ED" d="M224.145 332.975l-2.294-3.268c-.237-.342-.775-.652-1.189-.69l-6.711-.511h-.008l-.373-1.063c.495-1.396.493-3.171-.124-4.932l-.497-1.416c-.878-2.501-3.509-3.855-5.876-3.025-2.368.831-3.576 3.529-2.698 6.033l.497 1.416c.618 1.761 1.725 3.149 2.985 3.929l.373 1.062-.008.006-4.921 4.592c-.3.289-.521.866-.497 1.281l.249 3.984c.027.416.37.643.764.505l10.025-3.517 10.025-3.517c.392-.136.517-.528.278-.869z"/><rect x="205.387" y="343.94" transform="matrix(.944 -.331 .331 .944 -102.586 91.458)" fill="#DCE4E8" width="23.63" height="5.908"/><rect x="208.326" y="352.3" transform="matrix(.944 -.331 .331 .944 -105.178 92.89)" fill="#DCE4E8" width="23.628" height="5.908"/><rect x="217.047" y="360.712" transform="matrix(.944 -.331 .331 .944 -107.814 94.308)" fill="#DCE4E8" width="11.815" height="5.91"/><circle fill="#586273" cx="211.654" cy="358.223" r="1.108"/><circle fill="#586273" cx="217.229" cy="356.267" r="1.108"/><circle fill="#586273" cx="214.441" cy="357.245" r="1.108"/><circle fill="#586273" cx="220.017" cy="355.289" r="1.108"/><circle fill="#586273" cx="208.72" cy="349.859" r="1.108"/><circle fill="#586273" cx="219.871" cy="345.948" r="1.108"/><circle fill="#586273" cx="214.295" cy="347.904" r="1.108"/><circle fill="#586273" cx="211.508" cy="348.881" r="1.108"/><circle fill="#586273" cx="217.083" cy="346.925" r="1.108"/><rect x="220.057" y="362.762" transform="matrix(.944 -.331 .331 .944 -107.822 94.347)" fill="#EF8555" width="5.908" height="1.771"/><path fill="#DCE4E8" d="M202.292 303.747l-18.395 6.453c-2.858 1.002-4.377 4.163-3.374 7.021l25.523 72.759c1.002 2.854 4.163 4.377 7.021 3.373l18.401-6.453-29.176-83.153z" opacity=".2"/><circle fill="#BE3D2F" cx="81.994" cy="217.842" r="43.906"/><circle fill="#F7F9F8" cx="94.994" cy="209.842" r="43.906"/><path fill="#F7F9F8" d="M136.712 258.336c-2.106 0-4.214-.803-5.822-2.409l-19.16-19.162c-3.215-3.214-3.215-8.428 0-11.643 3.216-3.215 8.428-3.215 11.643 0l19.16 19.161c3.216 3.216 3.216 8.427 0 11.644-1.608 1.607-3.714 2.409-5.821 2.409z"/><path fill="#EF8555" d="M127 202.082c-1.375-5.688-4.279-11.082-8.721-15.523-12.86-12.859-33.71-12.859-46.57 0-4.44 4.441-7.347 9.835-8.721 15.523-2.603 10.783.302 22.627 8.721 31.045 12.86 12.859 33.71 12.859 46.57 0 8.418-8.419 11.325-20.262 8.721-31.045z"/><path fill="#382104" d="M66.875 192.702c4.993-3.053 10.862-4.81 17.143-4.81 18.187-.003 32.93 14.742 32.929 32.928.001 6.28-1.758 12.15-4.809 17.143 9.466-5.785 15.785-16.213 15.785-28.117 0-18.188-14.742-32.931-32.929-32.931-11.906 0-22.335 6.319-28.119 15.787z"/><path fill="#5E2905" d="M84.018 187.892c-6.28 0-12.149 1.757-17.143 4.81-3.051 4.993-4.811 10.862-4.81 17.141-.001 18.188 14.743 32.931 32.929 32.931 6.28 0 12.149-1.76 17.144-4.811 3.051-4.992 4.81-10.862 4.809-17.143 0-18.186-14.743-32.931-32.929-32.928z"/></g><g id="entrepeneur"><g id="ipadscene4"><path fill="#BE3D2F" d="M249.617 252.565l-105.064 28.957c-4.403 1.213-7.011 5.808-5.798 10.21l39.71 144.083c1.213 4.396 5.808 7.016 10.21 5.802l105.065-28.96c4.396-1.214 7.011-5.81 5.798-10.212l-39.71-144.081c-1.213-4.402-5.809-7.011-10.211-5.799zm39.711 144.081l-105.065 28.954s-35.566-129.078-35.562-129.083c0 0 105.048-28.942 105.055-28.938l35.572 129.067z"/><path fill="#F7F9F8" d="M151.702 294.521c-.004.006 35.562 129.082 35.562 129.082l105.065-28.954s-35.584-129.066-35.59-129.072l-105.037 28.944z"/><path fill="#434A54" d="M252.617 250.565l-105.064 28.957c-4.403 1.213-7.011 5.808-5.798 10.21l39.71 144.083c1.213 4.396 5.808 7.016 10.21 5.802l105.065-28.96c4.396-1.214 7.011-5.81 5.798-10.212l-39.71-144.081c-1.213-4.402-5.809-7.011-10.211-5.799zm39.711 144.081l-105.065 28.954s-35.566-129.078-35.562-129.083c0 0 105.048-28.942 105.055-28.938l35.572 129.067z"/><rect x="229.548" y="415.055" transform="matrix(.964 -.266 .266 .964 -102.128 79.29)" fill="#2A2A2A" width="24.917" height="4.151"/><rect x="189.197" y="391.574" transform="matrix(.964 -.266 .266 .964 -99.982 66.091)" fill="#3498DB" width="10.335" height="22.268"/><rect x="203.406" y="373.067" transform="matrix(.964 -.266 .266 .964 -96.499 69.498)" fill="#3498DB" width="10.338" height="36.577"/><rect x="221.515" y="377.942" transform="matrix(.964 -.266 .266 .964 -95.816 74.133)" fill="#3498DB" width="9.541" height="27.03"/><rect x="235.229" y="356.196" transform="matrix(.964 -.266 .266 .964 -91.88 77.438)" fill="#3498DB" width="10.336" height="44.521"/><rect x="253.003" y="363.435" transform="matrix(.964 -.266 .266 .964 -91.636 82.27)" fill="#3498DB" width="10.333" height="32.588"/><rect x="267.119" y="338.674" transform="matrix(.964 -.266 .266 .964 -87.293 85.374)" fill="#3498DB" width="9.541" height="53.278"/><path fill="#E74C3C" d="M180.389 364.865c-.707.194-1.494.02-2.056-.53-.841-.824-.855-2.17-.032-3.011l26.925-27.511c.822-.84 2.17-.855 3.011-.033.842.823.854 2.17.032 3.01l-26.926 27.512c-.272.279-.603.467-.954.563z"/><path fill="#E74C3C" d="M230.049 345.32c-.703.193-1.486.021-2.047-.521-.845-.817-.867-2.165-.051-3.01l30.087-31.141c.815-.846 2.166-.869 3.011-.052.845.817.868 2.165.052 3.01l-30.088 31.142c-.275.284-.609.474-.964.572z"/><path fill="#E74C3C" d="M230.054 345.303c-.403.111-.845.104-1.271-.047l-22.742-8.021c-1.108-.392-1.691-1.606-1.298-2.716.389-1.108 1.604-1.691 2.714-1.299l22.743 8.022c1.105.391 1.688 1.605 1.299 2.715-.242.684-.795 1.167-1.445 1.346z"/><rect x="163.13" y="295.927" transform="matrix(.964 -.266 .266 .964 -75.453 57.138)" fill="#B7BFC7" width="20.677" height="23.062"/><rect x="184.528" y="289.376" transform="matrix(.964 -.266 .266 .964 -70.577 62.592)" fill="#DCE4E8" width="23.062" height="5.565"/><rect x="186.956" y="298.663" transform="matrix(.964 -.266 .266 .964 -73.069 62.722)" fill="#DCE4E8" width="16.699" height="5.565"/><rect x="237.528" y="284.612" transform="matrix(.964 -.266 .266 .964 -67.507 75.763)" fill="#DCE4E8" width="17.496" height="5.564"/><rect x="205.897" y="291.674" transform="matrix(.964 -.266 .266 .964 -70.308 69.201)" fill="#DCE4E8" width="29.423" height="5.565"/><rect x="189.459" y="308.044" transform="matrix(.964 -.266 .266 .964 -75.606 62.781)" fill="#DCE4E8" width="9.541" height="5.564"/><rect x="201.487" y="303.289" transform="matrix(.964 -.266 .266 .964 -73.721 67.175)" fill="#DCE4E8" width="19.881" height="5.565"/><rect x="210.088" y="284.173" transform="matrix(.964 -.266 .266 .964 -68.499 67.374)" fill="#DCE4E8" width="9.545" height="5.564"/><rect x="221.933" y="277.972" transform="matrix(.964 -.266 .266 .964 -66.059 73.175)" fill="#DCE4E8" width="31.013" height="5.565"/><path fill="#DCE4E8" d="M200.763 264.857l-53.21 14.665c-4.403 1.213-7.011 5.808-5.798 10.21l39.71 144.083c1.213 4.396 5.808 7.016 10.21 5.802l53.21-14.669-44.122-160.091z" opacity=".2"/></g><g id="iphone05"><path fill="#BE3D2F" d="M387.182 377.81l.054-8.359.55-83.746.053-8.377c.02-3.071-2.474-5.597-5.545-5.619l-44.66-.292c-3.07-.02-5.598 2.477-5.618 5.545l-.062 8.377v-.001l-.549 83.746.01.001-.058 8.36c-.02 3.07 2.478 5.602 5.548 5.62l44.658.291c3.071.02 5.596-2.473 5.619-5.546z"/><path fill="#434A54" d="M391.15 375.87l-.025-8.231.042-83.848.008.001-.022-8.261c-.002-3.07-2.507-5.644-5.579-5.642l-44.657.008c-3.07.003-5.569 2.44-5.566 5.509l.014 7.419h-.008l-.011 83.651h-.002l-.003 9.3c.003 3.068 2.508 5.654 5.578 5.649l44.655-.004c3.074-.003 5.576-2.479 5.576-5.551z"/><circle fill="#2A2A2A" cx="361.834" cy="374.5" r="4.188"/><rect id="iphone5positionpath" x="338.032" y="284.385" fill="#fff" width="50.438" height="82.593"/><path fill="#3498DB" d="M359.309 329.982l5.305-8.57c.06-.1.133-.149.219-.147.083.002.155.053.211.155l4.763 8.528c.057.1.063.185.02.261-.041.075-.121.11-.237.11l-10.081.022c-.117 0-.195-.035-.233-.104-.039-.071-.028-.154.033-.255z"/></g></g><g id="employee"><path fill="#586273" d="M156.682 275.496c-4.256.67-7.189 4.7-6.52 8.956l23.162 147.031c.67 4.256 4.701 7.188 8.957 6.52l50.301-7.924-25.6-162.506-50.3 7.923z"/><path fill="#AAB2BD" d="M156.682 275.496c-4.256.67-7.189 4.7-6.52 8.956l23.162 147.031c.67 4.256 4.701 7.188 8.957 6.52l50.301-7.924-25.6-162.506-50.3 7.923z" opacity=".2"/><path fill="#656D78" d="M257.282 259.648l-50.299 7.924 25.6 162.506 50.299-7.924c4.256-.67 7.189-4.703 6.52-8.957l-23.162-147.032c-.671-4.255-4.702-7.187-8.958-6.517z"/><polygon fill="#F7F9F8" points="184.323,425.783 184.327,425.783 277.18,411.156 277.182,411.154 255.241,271.867 255.239,271.866 162.383,286.494 162.381,286.496"/><path fill="#464E5C" d="M204.696 253.06c-6.41 1.01-10.787 7.026-9.777 13.438 1.01 6.409 7.023 10.788 13.436 9.778 6.41-1.01 10.787-7.025 9.777-13.436-1.01-6.411-7.024-10.79-13.436-9.78zm2.744 17.414c-3.205.504-6.215-1.686-6.719-4.89-.506-3.205 1.686-6.214 4.889-6.72 3.207-.504 6.213 1.686 6.719 4.891.504 3.205-1.684 6.213-4.889 6.719z"/><rect x="190.735" y="404.908" transform="matrix(.988 -.156 .156 .988 -60.525 40.579)" fill="#DCE4E8" width="76.368" height="3.917"/><rect x="188.919" y="393.288" transform="matrix(.988 -.156 .156 .988 -58.738 40.154)" fill="#DCE4E8" width="76.369" height="3.917"/><rect x="187.072" y="381.697" transform="matrix(.988 -.156 .156 .988 -56.954 39.723)" fill="#DCE4E8" width="76.37" height="3.919"/><rect x="185.247" y="370.087" transform="matrix(.988 -.156 .156 .988 -55.17 39.298)" fill="#DCE4E8" width="76.369" height="3.919"/><rect x="183.425" y="358.472" transform="matrix(.988 -.156 .156 .988 -53.386 38.875)" fill="#DCE4E8" width="76.373" height="3.917"/><rect x="181.594" y="346.868" transform="matrix(.988 -.156 .156 .988 -51.602 38.447)" fill="#DCE4E8" width="76.369" height="3.916"/><rect x="179.762" y="335.263" transform="matrix(.988 -.156 .156 .988 -49.818 38.02)" fill="#DCE4E8" width="76.37" height="3.917"/><rect x="177.944" y="323.647" transform="matrix(.988 -.156 .156 .988 -48.035 37.598)" fill="#DCE4E8" width="76.369" height="3.919"/><rect x="176.11" y="312.043" transform="matrix(.988 -.156 .156 .988 -46.25 37.17)" fill="#DCE4E8" width="76.372" height="3.918"/><rect x="174.279" y="300.441" transform="matrix(.988 -.156 .156 .988 -44.466 36.743)" fill="#DCE4E8" width="76.37" height="3.917"/><rect x="172.451" y="288.829" transform="matrix(.988 -.156 .156 .988 -42.681 36.317)" fill="#DCE4E8" width="76.37" height="3.916"/><path fill="#464E5C" d="M237.067 269.771c.672 4.256-2.264 8.287-6.518 8.957l-42.562 6.705c-4.256.67-8.287-2.264-8.957-6.52l-.305-1.936c-.67-4.256 2.264-8.285 6.52-8.955l42.562-6.705c4.254-.67 8.285 2.262 8.955 6.518l.305 1.936z"/></g><g id="clients"><g id="hem"><path fill="#BE3D2F" d="M163.703 648.192c-.055 2.635 2.056 4.837 4.69 4.893l100.63 2.116c2.635.055 4.838-2.057 4.893-4.691l3.021-143.622c.055-2.635-2.057-4.837-4.692-4.893l-100.63-2.116c-2.635-.055-4.836 2.06-4.892 4.691l-.051 2.396-4.792-.102-.101 4.792 4.792.101-.101 4.792-4.792-.101-.101 4.793 4.792.101-.103 4.904-4.792-.101-.101 4.792 4.792.101-.099 4.68-4.792-.101-.101 4.791 4.792.101-.101 4.791-4.792-.101-.101 4.794 4.792.101-.103 4.904-4.792-.101-.101 4.792 4.792.102-.098 4.677-4.792-.102-.101 4.793 4.792.101-.101 4.792-4.792-.101-.101 4.791 4.792.101-.104 4.906-4.792-.101-.101 4.792 4.792.101-.098 4.679-4.792-.101-.101 4.792 4.792.101-.101 4.793-4.792-.101-.101 4.791 4.792.101-.103 4.905-4.792-.102-.101 4.791 4.792.102-.099 4.683-4.792-.104-.101 4.793 4.792.104-.098 4.652-4.792-.101-.101 4.792 4.792.101-.101 4.792-4.792-.101-.101 4.792 4.792.101-.044 2.396z"/><path fill="#ECF0F1" d="M276.362 648.164c-.055 2.635-2.256 4.747-4.892 4.691l-100.63-2.116c-2.636-.059-4.747-2.259-4.691-4.896l3.021-143.622c.055-2.635 2.257-4.746 4.893-4.688l100.63 2.116c2.636.055 4.746 2.257 4.691 4.893l-3.022 143.622z"/><rect x="161.851" y="619.644" transform="matrix(-1 -.021 .021 -1 320.139 1247.456)" fill="#E5E5E5" width="9.589" height="4.792"/><rect x="161.651" y="629.09" transform="matrix(-1 -.021 .021 -1 319.474 1266.359)" fill="#E5E5E5" width="9.588" height="4.794"/><rect x="161.45" y="638.674" transform="matrix(-1 -.021 .021 -1 318.996 1285.489)" fill="#E5E5E5" width="9.586" height="4.793"/><rect x="162.048" y="610.171" transform="matrix(-1 -.021 .021 -1 320.731 1228.516)" fill="#E5E5E5" width="9.588" height="4.793"/><rect x="162.253" y="600.473" transform="matrix(-1 -.021 .021 -1 321.342 1209.128)" fill="#E5E5E5" width="9.586" height="4.794"/><rect x="162.455" y="590.888" transform="matrix(-1 -.021 .021 -1 321.952 1189.963)" fill="#E5E5E5" width="9.588" height="4.793"/><rect x="162.655" y="581.421" transform="matrix(-1 -.021 .021 -1 322.552 1171.034)" fill="#E5E5E5" width="9.588" height="4.792"/><rect x="162.859" y="571.722" transform="matrix(-1 -.021 .021 -1 323.165 1151.643)" fill="#E5E5E5" width="9.589" height="4.793"/><rect x="163.062" y="562.137" transform="matrix(-1 -.021 .021 -1 323.767 1132.481)" fill="#E5E5E5" width="9.586" height="4.794"/><rect x="163.261" y="552.666" transform="matrix(-1 -.021 .021 -1 324.422 1113.533)" fill="#E5E5E5" width="9.586" height="4.795"/><rect x="163.461" y="542.969" transform="matrix(-1 -.021 .021 -1 325.031 1094.143)" fill="#E5E5E5" width="9.588" height="4.794"/><rect x="163.663" y="533.386" transform="matrix(-1 -.021 .021 -1 325.636 1074.982)" fill="#E5E5E5" width="9.588" height="4.793"/><rect x="163.864" y="523.916" transform="matrix(-1 -.021 .021 -1 326.235 1056.048)" fill="#E5E5E5" width="9.588" height="4.792"/><rect x="164.07" y="514.218" transform="matrix(-1 -.021 .021 -1 326.795 1036.675)" fill="#E5E5E5" width="9.586" height="4.793"/><rect x="164.271" y="504.635" transform="matrix(-1 -.021 .021 -1 327.3 1017.546)" fill="#E5E5E5" width="9.589" height="4.793"/><rect x="183.469" y="576.963" transform="matrix(-1 -.021 .021 -1 440.072 1162.368)" fill="#BDC3C7" width="85.339" height="3.821"/><rect x="183.603" y="570.596" transform="matrix(-1 -.021 .021 -1 440.473 1149.637)" fill="#BDC3C7" width="85.339" height="3.82"/><rect x="183.743" y="564.227" transform="matrix(-1 -.021 .021 -1 440.889 1136.903)" fill="#BDC3C7" width="85.34" height="3.82"/><rect x="183.863" y="557.863" transform="matrix(-1 -.021 .021 -1 441.262 1124.181)" fill="#BDC3C7" width="85.34" height="3.821"/><rect x="245.321" y="512.027" transform="matrix(-1 -.021 .021 -1 504.634 1033.173)" fill="#BDC3C7" width="24.838" height="3.821"/><rect x="245.207" y="518.385" transform="matrix(-1 -.021 .021 -1 504.271 1045.886)" fill="#BDC3C7" width="24.838" height="3.821"/><rect x="245.074" y="524.752" transform="matrix(-1 -.021 .021 -1 503.872 1058.614)" fill="#BDC3C7" width="24.838" height="3.821"/><rect x="244.938" y="531.118" transform="matrix(-1 -.021 .021 -1 503.468 1071.343)" fill="#BDC3C7" width="24.839" height="3.822"/><rect x="183.332" y="582.799" transform="matrix(-1 -.021 .021 -1 388.723 1173.504)" fill="#BDC3C7" width="34.39" height="3.82"/><path d="M181.831 508.825c-1.093.249-1.265 1.365-1.532 10.71l-.299 10.465 2.1.06 2.1.06.31-10.85c.322-11.27.354-11.164-2.679-10.445zM187.439 514.835c-.927.569-.932.744.135 1.405.997.659 1.174 1.82 1.015 7.385l-.189 6.615 2.45.07 2.45.07.197-6.895c.239-8.365-1.813-11.331-6.058-8.65zM198.872 516.808c-6.336 5.984-.381 15.787 7.992 13.294 3.356-.99 3.271-1.693-.193-1.827-5.458-.226-7.267-5.567-4.196-12.52.863-2.007-.939-1.463-3.603 1.053zM205.654 516.056c.397.817.492 2.396.215 3.509-.473 1.843-.339 2.057 1.201 2.101 3.815.109 3.943-4.371.213-6.229-2.315-1.117-2.492-1.052-1.629.619zM214.921 515.375c-1.513.237-1.592.55-1.802 7.9l-.219 7.665 2.1.06 2.1.06.23-8.05c.127-4.445-.016-8.022-.298-7.96-.281.027-1.231.175-2.111.325zM220.133 515.629c-1.239.455-1.206.526.123 1.825 1.228 1.156 1.374 2.176 1.221 7.531l-.177 6.195 2.1.06 2.1.06.209-7.315c.244-8.54-.798-10.076-5.576-8.356zM228.571 515.765c-1.622.374-1.571 1.041.114 2.14 1.203.805 1.353 1.685 1.195 7.215l-.18 6.3 2.1.06 2.1.06.199-6.965c.245-8.575-.626-9.966-5.528-8.81z"/></g><g id="citi"><rect x="332.53" y="488.964" transform="matrix(1 -.03 .03 1 -16.827 11.899)" fill="#BE3D2F" width="111.124" height="155.431"/><rect x="333.494" y="487.942" transform="matrix(1 -.03 .03 1 -16.795 11.927)" fill="#fff" width="111.127" height="155.428"/><g fill="#00508b"><path d="M389.578 494.425c-5.24 1.465-9.944 4.427-13.802 8.67l-3.326 3.655 3.146-.037 3.146-.037 2.109-1.93c9.147-8.337 22.102-8.684 31.918-.834 1.086.868 1.551.945 4.411.802l3.2-.16-.785-.863c-8.162-8.855-19.2-12.273-30.017-9.266z" fill="#FC2616"/><path d="M395.252 503.645l-2.631 1.515.149 2.98.15 3-2.36.118-2.38.119.012 2.646c-.002 3.168-.192 2.977 2.668 2.834l2.34-.117.436 8.72c.676 13.52 2.805 16.802 9.667 14.895 2.847-.804 2.98-.951 3.548-3.626.581-2.816.56-2.835-1.241-1.963-4.896 2.33-5.611 1.263-6.288-9.47l-.582-8.833 1.98-.099c4.24-.212 4.472-.384 4.328-3.264l-.126-2.52-3.106.035-3.106.035-.413-4.25-.413-4.25-2.632 1.495zM357.731 513.12c-13.311 4.455-13.481 24.313-.249 28.704 5.261 1.762 11.65.42 15.081-3.14 1.391-1.453 1.341-1.651-.838-3.928l-1.205-1.243-1.308 1.108c-5.758 4.739-13.632 2.446-15.442-4.481-2.335-9.006 7.386-15.888 14.64-10.356l1.376 1.054 1.112-1.419c1.98-2.505 1.991-2.686.481-4.014-3.292-2.883-8.974-3.842-13.648-2.285zM377.248 526.52l.729 14.58 2.806-.02h2.807l-.735-14.7-.735-14.7-2.8.14-2.8.14.728 14.56zM412.05 524.82l.73 14.6 2.8-.14 2.8-.14-.73-14.6-.73-14.6-2.8.14-2.8.14.73 14.6z"/></g><rect x="350.06" y="577.265" transform="matrix(-1 .03 -.03 -1 796.93 1146.136)" fill="#DCE4E8" width="79.613" height="3.564"/><rect x="349.882" y="571.325" transform="matrix(-1 .03 -.03 -1 796.396 1134.267)" fill="#DCE4E8" width="79.613" height="3.566"/><rect x="349.711" y="565.389" transform="matrix(-1 .03 -.03 -1 795.863 1122.398)" fill="#DCE4E8" width="79.596" height="3.565"/><rect x="349.532" y="559.452" transform="matrix(-1 .03 -.03 -1 795.327 1110.532)" fill="#DCE4E8" width="79.596" height="3.564"/><rect x="350.252" y="583.915" transform="matrix(-1 .03 -.03 -1 749.999 1160.137)" fill="#DCE4E8" width="32.083" height="3.564"/></g><g id="zeus"><rect x="15.81" y="495.822" transform="matrix(.997 .084 -.084 .997 48.145 -3.957)" fill="#BE3D2F" width="111.13" height="155.436"/><rect x="16.979" y="494.995" transform="matrix(.997 .084 -.084 .997 48.079 -4.058)" fill="#F5F7FA" width="111.131" height="155.436"/><g fill="#5E62F3"><path d="M34.547 512.975c-.941.82-1.447 5.414-.672 6.298.82.941 5.414 1.447 6.298.672.882-.758 1.451-5.448.778-6.32-.737-.914-5.539-1.41-6.404-.65zM43.14 513.917c-.719.691-1.287 5.519-.748 6.358.597.932 5.737 1.485 6.621.71.882-.758 1.451-5.448.778-6.32-.69-.874-5.913-1.454-6.651-.748zM76.11 518.175c-2.501.895-2.021 3.261.85 4.202 1.196.382 1.646 1.245.842 1.633-.749.36-.979.264-1.537-.56-.498-.748-2.353-1.242-2.423-.647-.13 1.105 1.421 2.425 3.07 2.619 3.995.47 4.773-2.92 1.027-4.481-1.544-.647-1.84-1.647-.446-1.483.459.054.902.244.984.426.205.455 1.79.9 2.034.584.444-.551-.384-1.717-1.568-2.201-1.546-.63-1.357-.625-2.833-.092zM53.62 515.96c-.07.595.141.706 1.654.884l1.717.202-2.179 1.967c-1.93 1.755-3.007 3.731-1.877 3.502.142-.035 1.557.097 3.121.281 2.686.316 2.86.302 2.766-.364-.085-.596-.379-.734-1.977-.922l-1.887-.222 2.159-1.797c3.32-2.729 3.213-3.431-.527-3.871-2.669-.314-2.896-.289-2.97.34zM60.08 519.65l-.42 3.57 2.38.28c1.309.154 2.495.328 2.625.395.13.067.336-.219.437-.638.186-.702.073-.767-1.525-.955-1.632-.192-1.711-.253-1.611-1.103.1-.85.172-.876 1.614-.534 1.41.321 1.516.299 1.604-.449.086-.731-.057-.834-1.434-.996-1.309-.154-1.518-.282-1.45-.86.07-.595.301-.654 1.78-.48 1.479.174 1.71.115 1.78-.48.074-.629-.141-.706-2.64-1l-2.72-.32-.42 3.57zM66.662 519.373c-.468 3.978.611 5.501 3.72 5.298 2.137-.145 2.65-.843 3.038-4.141l.34-2.89-1.02-.12-1.037-.122-.245 2.522c-.283 2.845-.486 3.252-1.557 3.126-1.275-.15-1.505-.832-1.193-3.484l.292-2.482-1.02-.12-1.02-.12-.298 2.533zM33.547 521.475c-1.057.927-1.501 5.873-.597 6.686.953.836 4.863 1.296 5.984.704 1.049-.566 1.825-5.697 1.017-6.74-.737-.914-5.539-1.41-6.404-.65zM43.464 522.59c-2.956 1.393-2.945 5.841.027 7.242 2.58 1.217 5.301-.376 5.575-3.291.284-3-2.866-5.232-5.602-3.951zM51.98 526.97l-.42 3.57 1.87.22c1.428.168 1.884.101 1.93-.29.044-.374-.314-.554-1.3-.67l-1.36-.16.36-3.06c.294-2.499.258-3.072-.15-3.12-.425-.05-.584.569-.93 3.51zM56.74 527.53l-.42 3.57 2.04.24c1.581.186 2.054.121 2.1-.27.044-.374-.331-.556-1.47-.69-1.53-.18-1.53-.18-1.39-1.37.142-1.207.142-1.207 1.575-.935 1.097.198 1.449.136 1.495-.255.046-.391-.284-.516-1.399-.561-1.423-.064-1.455-.085-1.335-1.105.12-1.02.175-1.048 1.654-.874 1.139.134 1.546.044 1.59-.33.046-.391-.399-.564-1.98-.75l-2.04-.24-.42 3.57zM62.788 527.983c-1.843 3.506-1.895 3.655-1.266 3.729.238.028.649-.389.936-.924.444-.844.664-.956 1.82-.82 1.139.134 1.344.296 1.58 1.22.153.604.509 1.094.832 1.132.306.036.524-.059.491-.218-.05-.161-.44-1.827-.855-3.72-1.007-4.479-1.347-4.519-3.538-.399zm2.248-.942c.569 2.342.563 2.393-.559 2.261-1.173-.138-1.175-.121-.44-1.827.639-1.476.73-1.517.999-.434zM68.3 528.89c-.346 2.941-.335 3.58.09 3.63.374.044.556-.331.69-1.47.172-1.462.231-1.524 1.166-1.414 1.071.126 1.338.64 1.15 2.238-.076.646.054 1.006.394 1.046.629.074.87-1.535.459-2.876-.228-.699-.192-1.005.15-1.275 1.406-1.11.146-2.999-2.217-3.277l-1.462-.172-.42 3.57zm3.41-1.15c-.084.714-.289.845-1.217.822-1.049-.02-1.111-.079-.993-1.082.118-1.003.192-1.046 1.217-.822.908.193 1.077.368.993 1.082zM74.08 529.57c-.34 2.89-.318 3.582.073 3.628.408.048.521-.473.656-2.939l.18-2.995.837 1.822c.451 1.001 1.024 2.43 1.248 3.163.867 2.739 1.628 1.984 2.106-2.079.346-2.941.335-3.58-.09-3.63-.408-.048-.572.467-.82 2.575l-.327 2.633-1.101-2.801c-1.65-4.141-2.216-4.018-2.762.623zM80.54 530.33c-.346 2.941-.335 3.58.09 3.63.425.05.584-.569.93-3.51.346-2.941.335-3.58-.09-3.63-.425-.05-.584.569-.93 3.51zM82.96 530.27l-.41 3.485c-.016.136.157.277.395.305.306.036.475-.668.616-2.599.248-3.28.316-3.272 1.656.281 1.632 4.294 2.249 4.177 2.803-.532.346-2.941.335-3.58-.09-3.63-.408-.048-.574.484-.857 2.743l-.347 2.803-1.098-2.973c-1.536-4.231-2.16-4.201-2.668.117zM90.879 528.151c-2.973.805-2.255 6.715.854 7.098 2.106.265 2.351.087 2.591-1.953l.216-1.836-1.19-.14c-.833-.098-1.208.013-1.25.37-.034.289.246.546.62.59.527.062.654.301.56 1.1-.158 1.343-2.167 1.279-2.905-.066-.947-1.766.297-4.722 1.895-4.534.289.034.78.402 1.11.82.69.874 1.256 1.044 1.334.381.138-1.173-2.18-2.273-3.835-1.83z"/></g><rect x="21.694" y="592.872" transform="matrix(-.996 -.086 .086 -.996 89.809 1194.027)" fill="#AAB2BD" width="98.157" height="4.392"/><rect x="22.339" y="585.573" transform="matrix(-.996 -.086 .086 -.996 91.728 1179.515)" fill="#AAB2BD" width="98.157" height="4.395"/><rect x="22.961" y="578.279" transform="matrix(-.996 -.086 .086 -.996 93.6 1165.007)" fill="#AAB2BD" width="98.157" height="4.393"/><rect x="23.6" y="570.979" transform="matrix(-.996 -.086 .086 -.996 95.507 1150.49)" fill="#AAB2BD" width="98.156" height="4.393"/><rect x="97.687" y="520.667" transform="matrix(-.996 -.086 .086 -.996 178.295 1053.452)" fill="#AAB2BD" width="28.565" height="4.393"/><rect x="97.045" y="528.02" transform="matrix(-.996 -.086 .086 -.996 176.388 1068.073)" fill="#AAB2BD" width="28.569" height="4.391"/><rect x="96.412" y="535.316" transform="matrix(-.996 -.086 .086 -.996 174.472 1082.588)" fill="#AAB2BD" width="28.568" height="4.393"/><rect x="95.779" y="542.613" transform="matrix(-.996 -.086 .086 -.996 172.596 1097.098)" fill="#AAB2BD" width="28.568" height="4.394"/><rect x="21.193" y="597.635" transform="matrix(-.996 -.086 .086 -.996 29.913 1200.959)" fill="#AAB2BD" width="39.556" height="4.393"/></g></g><path id="wire4" opacity=".8" fill="none" stroke="#F5ECD9" stroke-miterlimit="10" d="M1086.5-246.832c-18.493 61.99-198.256 159.108-173.5 246.837 4.251 15.064 5.797 29.851 24.582 44.136 8.299 6.312 109.839 50.337 48.236 54.366-44.329 2.898-91.146-10.142-134.426-17.852-20.354-3.625-220.853-43.333-181.155 28.033 22.021 39.589 210.467 106.927 200.929 145.145"/></g></g></g></svg>