<svg xmlns="http://www.w3.org/2000/svg" width="1024" height="768" viewBox="0 0 1024 768"><rect x="-5882.951" y="-5137.504" fill="#F5ECD9" width="12784.607" height="11218.004" id="bg5"/><rect x="-7653.467" y="-7098.016" fill="#2BACB5" stroke="#000" stroke-miterlimit="10" width="15687.934" height="14889.029" id="sky"/><g id="mountains"><path fill="#D4E5F6" d="M-792.243 1119.833"/><polygon fill="#14757B" points="-209.3,510.472 -37.804,689.235 -193.184,705.394"/><polygon fill="#ACE8EA" points="-402.598,667.509 -345.107,604.72 -321.267,642.229 -398.216,859.793"/><path fill="#A7C6E8" d="M-927.366 1503.302"/><path fill="#A7C6E8" d="M-1577.241 1702.573"/><path fill="#C1DDF3" d="M-1577.241 1702.573"/><path fill="#5984C3" d="M-832.03 1389.982"/><path fill="#A7C6E8" d="M-588.439 1107.608"/><path fill="#0D72B9" d="M-854.126 1095.198"/><polygon fill="#ACE8EA" points="-854.126,1095.198 -735.19,578.242 -588.439,1107.608"/><polygon fill="#F5ECD9" points="-735.19,578.242 -649.129,529.291 -588.439,1107.608"/><polygon fill="#fff" points="-646.729,553.362 -649.129,529.291 -566.951,373.859 -471.992,709.22"/><polygon fill="#229098" points="-588.439,1107.608 -471.992,709.22 -626.096,552.59 -646.729,553.362"/><polygon fill="#F5ECD9" points="-345.107,1147.357 -588.439,1107.608 -471.992,709.22 -402.598,667.509"/><polygon fill="#C1E8E7" points="-566.951,373.859 -402.598,667.509 -471.992,709.22"/><path fill="#5984C3" d="M-854.126 1095.198"/><polygon fill="#fff" points="-345.107,604.72 -209.3,510.472 -180.034,864.441"/><polygon fill="#14757B" points="-398.216,859.793 -330.423,1226.866 -180.034,864.441 -321.267,642.229"/><polygon fill="#ACE8EA" points="-357.747,1078.915 -330.423,1226.866 -398.216,859.793 -588.439,1107.608"/><polygon fill="#229098" points="-209.3,510.472 -193.184,705.394 -180.034,864.441"/><polygon fill="#14757B" points="-191.831,1193.399 -180.034,864.441 -330.423,1226.866"/><polygon fill="#229098" points="71.511,1204.285 -191.831,1193.399 -180.034,864.441"/><polygon fill="#ACE8EA" points="71.511,1204.285 -37.804,689.235 -180.034,864.441"/><polygon fill="#F5ECD9" points="71.511,1204.285 227.962,1204.132 -37.804,689.235"/><polygon fill="#14757B" points="-37.804,689.235 171.052,897.846 227.962,1204.132"/><polygon fill="#63D3D6" points="227.962,1204.132 426.55,1189.605 171.052,897.846"/><polygon fill="#ACE8EA" points="-37.804,689.235 -116.212,415.166 88.257,723.859"/><polygon fill="#63D3D6" points="171.052,897.846 88.257,723.859 -37.804,689.235"/><polygon fill="#fff" points="-37.804,689.235 -116.212,415.166 -209.3,510.472"/><polygon fill="#229098" points="-402.598,667.509 -345.107,604.72 -566.951,373.859"/><polygon fill="#63D3D6" points="426.55,1189.605 490.657,1138.932 273.831,934.037"/><polygon fill="#ACE8EA" points="490.657,1138.932 701.151,1101.004 454.365,929.785 273.831,934.037"/><polygon fill="#C1E8E7" points="255.411,944.84 148.075,795.87 148.075,691.64 250.054,605.882 454.365,929.785"/><polygon fill="#1C8389" points="701.151,1101.004 250.054,605.882 454.365,929.785"/><polygon fill="#fff" points="168.141,820.025 255.411,944.84 250.054,605.882 88.257,723.859"/><polygon fill="#63D3D6" points="488.188,867.465 599.406,883.821 761.608,1042.641 701.151,1101.004"/><polygon fill="#C1E8E7" points="454.365,929.785 490.657,1138.932 255.411,944.84"/><polygon fill="#C1E8E7" points="599.406,883.821 701.151,1101.004 761.608,1042.641"/></g><g id="clouds"><path fill="#F5ECD9" d="M188.406 612.645c0-10.18-8.252-18.432-18.432-18.432s-18.432 8.252-18.432 18.432h36.864z"/><path fill="#F5ECD9" d="M273.68 612.645c0-10.18-8.252-18.432-18.432-18.432-10.186 0-18.438 8.252-18.438 18.432h36.87z"/><path fill="#F5ECD9" d="M231.043 612.645c0-15.688-12.729-28.424-28.426-28.424s-28.43 12.729-28.43 28.424h56.856z"/><g fill="#F5ECD9"><path d="M253.926 342.688c0-4.557-3.693-8.25-8.25-8.25s-8.25 3.693-8.25 8.25h16.5zM279.373 342.688c0-3.513-2.854-6.361-6.361-6.361s-6.361 2.849-6.361 6.361h12.722zM273.012 342.688c0-7.026-5.697-12.723-12.725-12.723-7.025 0-12.729 5.696-12.729 12.723h25.454z"/></g><g fill="#F5ECD9"><path d="M460.604 534.379c0-6.624 5.369-11.992 11.993-11.992 6.622 0 11.991 5.368 11.991 11.992h-23.984zM376.655 534.379c0-9.936 8.06-17.989 17.979-17.989 9.938 0 17.982 8.062 17.982 17.989h-35.961zM400.641 534.379c0-19.871 16.104-35.979 35.979-35.979s35.979 16.104 35.979 35.979h-71.958z"/></g><g fill="#F5ECD9"><path d="M482.551 554.23c0-5.273 4.271-9.562 9.549-9.562 5.271 0 9.557 4.273 9.557 9.562h-19.106zM497.275 554.23c0-4.064 3.297-7.361 7.354-7.361 4.062 0 7.357 3.297 7.357 7.361h-14.711z"/></g><g fill="#F5ECD9"><path d="M803.939 380.535c0-19.677-15.953-35.632-35.641-35.632-19.682 0-35.627 15.955-35.627 35.632h71.268zM830.49 380.535c0-14.669-11.889-26.558-26.557-26.558-14.678 0-26.562 11.889-26.562 26.558h53.119zM744.854 380.535c0-8.801-7.137-15.936-15.938-15.936-8.803 0-15.938 7.135-15.938 15.936h31.876zM418.438 513.637c0-18.051-14.633-32.684-32.684-32.684-18.057 0-32.688 14.633-32.688 32.684h65.372zM377.432 513.637c0-13.455-10.896-24.354-24.354-24.354-13.447 0-24.354 10.896-24.354 24.354h48.708zM437.926 513.637c0-10.764-8.729-19.479-19.488-19.479-10.764 0-19.479 8.725-19.479 19.479h38.967zM338.449 513.637c0-8.062-6.543-14.617-14.609-14.617-8.072 0-14.617 6.561-14.617 14.617h29.226zM366.605 442.211"/><path d="M346.316 370.211"/><path d="M667.055 556.801c0-8.953-7.258-16.211-16.211-16.211s-16.211 7.258-16.211 16.211h32.422zM717.055 556.801c0-6.896-5.596-12.5-12.5-12.5-6.896 0-12.5 5.604-12.5 12.5h25zM704.555 556.801c0-13.807-11.188-25-25-25s-25 11.193-25 25h50zM304.781 534.908c0-7.674-6.229-13.896-13.896-13.896s-13.895 6.229-13.895 13.896h27.791zM315.139 534.908c0-5.721-4.637-10.357-10.354-10.357s-10.354 4.646-10.354 10.357h20.708zM281.736 534.908c0-3.438-2.777-6.215-6.215-6.215-3.432 0-6.215 2.771-6.215 6.215h12.43zM362.755 376.418c0-8.264-6.697-14.961-14.961-14.961-8.271 0-14.959 6.697-14.959 14.961h29.92zM467.479 376.418c0-12.395-10.047-22.441-22.438-22.441-12.396 0-22.44 10.047-22.44 22.441h44.878zM437.558 376.418c0-24.789-20.094-44.883-44.881-44.883s-44.886 20.094-44.886 44.883h89.767zM511.904 600.949c0-5.273-4.271-9.547-9.547-9.547-5.271 0-9.557 4.271-9.557 9.547h19.104zM497.182 600.949c0-4.064-3.297-7.361-7.354-7.361-4.062 0-7.355 3.297-7.355 7.361h14.709zM618.617 107.473c0-5.273-4.271-9.547-9.549-9.547-5.271 0-9.547 4.273-9.547 9.547h19.096zM603.898 107.473c0-4.064-3.307-7.361-7.361-7.361-4.062 0-7.357 3.297-7.357 7.361h14.718zM856.65 47.383c0-4.557-3.692-8.25-8.25-8.25-4.562 0-8.25 3.693-8.25 8.25h16.5zM882.098 47.383c0-3.513-2.848-6.361-6.354-6.361-3.521 0-6.355 2.849-6.355 6.361h12.709zM875.736 47.383c0-7.026-5.697-12.723-12.729-12.723-7.021 0-12.729 5.696-12.729 12.723h25.458zM66 395.904c0-5.273 4.271-9.547 9.549-9.547 5.271 0 9.547 4.271 9.547 9.547h-19.096zM80.725 395.904c0-4.064 3.297-7.361 7.361-7.361 4.062 0 7.363 3.297 7.363 7.361h-14.724z"/></g><path fill="#F5ECD9" d="M64.212 540.55h-8v-1h8v1zm-16 0h-8v-1h8v1zm-16 0h-8v-1h8v1zm-16 0h-8v-1h8v1zm-16 0h-8v-1h8v1zm-16 0h-8v-1h8v1zm-16 0h-8v-1h8v1zm-16 0h-8v-1h8v1zm-16 0h-8v-1h8v1zm-16 0h-8v-1h8v1zm-16 0h-8v-1h8v1zm-16 0h-5.417v-1h5.417v1z"/><path fill="#F5ECD9" d="M1151.275 93.095h-8v-1h8v1zm-16 0h-8v-1h8v1zm-16 0h-8v-1h8v1zm-16 0h-8v-1h8v1zm-16 0h-8v-1h8v1zm-16 0h-8v-1h8v1zm-16 0h-8v-1h8v1z"/><path fill="#F5ECD9" d="M721.096 317.734h-8v-1h8v1zm-16 0h-8v-1h8v1zm-16 0h-8v-1h8v1zm-16 0h-8v-1h8v1zm-16 0h-8v-1h8v1zm-16 0h-8v-1h8v1zm-16 0h-8v-1h8v1zm-16 0h-8v-1h8v1zm-16 0h-8v-1h8v1zm-16 0h-8v-1h8v1z"/></g><g id="contacts"><rect x="-2766.482" y="342.5" fill="#E84D5B" width="6910.617" height="445.5"/><g id="email" fill="#F5ECD9"><text transform="translate(66 534.232)" font-weight="100" font-size="18">pvs1403@gmail.com</text><path d="M47.688 535.041v-7.457c-.204.233-.431.447-.671.643-1.731 1.332-3.115 2.432-4.136 3.282-.33.277-.599.496-.804.647-.207.151-.487.31-.843.471-.354.159-.684.237-.99.237h-.021c-.311 0-.645-.078-.993-.237-.354-.161-.633-.314-.839-.471-.206-.151-.474-.372-.804-.647-1.022-.854-2.4-1.948-4.136-3.282-.24-.191-.461-.404-.675-.643v7.457c0 .084.031.157.097.219.062.063.135.094.22.094h14.297c.084 0 .157-.031.219-.094.063-.062.097-.135.097-.219h-.018zm0-10.205v-.238l-.006-.126-.03-.12-.053-.089c-.02-.061-.048-.086-.088-.069l-.136-.022h-14.296c-.083 0-.157.031-.222.092-.062.062-.092.139-.092.223 0 1.09.479 2.008 1.428 2.757 1.25.98 2.548 2.011 3.893 3.076l.34.283.446.362c.106.085.252.188.435.306.176.118.341.209.488.271.146.059.289.088.419.088h.018c.129 0 .271-.029.418-.088.146-.062.312-.146.488-.271l.438-.306.442-.362.337-.283c1.352-1.068 2.647-2.1 3.896-3.076.35-.278.673-.652.976-1.121.31-.48.461-.906.461-1.287zm1.242-.357v10.562c0 .428-.152.794-.459 1.095-.303.307-.671.459-1.094.459h-14.296c-.431 0-.792-.147-1.098-.459-.303-.304-.459-.672-.459-1.095v-10.562c0-.43.152-.795.459-1.098s.675-.456 1.098-.456h14.296c.429 0 .793.15 1.094.456.307.303.459.668.459 1.098z"/></g><g id="linkedin" fill="#F5ECD9"><text transform="translate(64.821 571.17)" font-weight="100" font-size="18">LinkedIn profile</text><path d="M34.418 571.388h2.808v-8.438h-2.808v8.438zm2.989-11.037c-.012-.42-.155-.771-.438-1.043-.283-.271-.662-.411-1.131-.411s-.854.143-1.149.411c-.298.272-.438.623-.438 1.043 0 .413.144.764.431 1.039.289.279.667.42 1.124.42h.013c.479 0 .865-.141 1.155-.42.288-.279.432-.626.433-1.039zm7.111 11.037h2.812v-4.836c0-1.248-.301-2.189-.891-2.832-.592-.639-1.376-.962-2.347-.962-1.104 0-1.949.479-2.539 1.423h.021v-1.229h-2.812c.025.536.025 3.348 0 8.438h2.812v-4.721c0-.309.024-.535.085-.681.126-.283.304-.524.552-.727.241-.195.543-.299.895-.299.943 0 1.409.639 1.409 1.913l.003 4.513zm5.689-12.131v11.67c0 .964-.347 1.789-1.027 2.479-.688.687-1.513 1.025-2.477 1.025h-11.671c-.969 0-1.789-.343-2.479-1.025-.688-.688-1.03-1.517-1.03-2.479v-11.67c0-.966.346-1.79 1.03-2.477.688-.688 1.51-1.03 2.479-1.03h11.671c.964 0 1.788.343 2.477 1.03.685.687 1.027 1.511 1.027 2.477z"/></g><g id="phone"><path fill="#F5ECD9" d="M45.604 476.917h-11.14c-1.612 0-2.938 1.317-2.938 2.934v22.865c0 1.604 1.32 2.938 2.938 2.938h11.14c1.608 0 2.938-1.32 2.938-2.938v-22.865c-.007-1.614-1.326-2.934-2.938-2.934zm-5.57 27.559c-1.142 0-2.057-.653-2.057-1.464 0-.812.919-1.468 2.057-1.468 1.132 0 2.047.655 2.047 1.468.003.806-.913 1.464-2.047 1.464zm6.156-4.398h-12.312v-19.354h12.312v19.354z"/><text transform="translate(64.429 497.295)" fill="#F5ECD9" font-weight="100" font-size="18">+91 9158884969</text></g><g id="skype"><path fill="#F5ECD9" d="M44.801 603.992c0-.396-.076-.754-.234-1.08-.147-.327-.344-.595-.564-.812-.233-.213-.52-.401-.867-.574-.344-.183-.671-.312-.974-.402-.307-.093-.647-.183-1.033-.271l-1.229-.283-.519-.124c-.11-.028-.248-.073-.413-.14-.166-.063-.284-.126-.354-.188-.064-.069-.136-.152-.191-.248-.062-.104-.089-.22-.089-.354 0-.604.562-.905 1.693-.905.345 0 .646.047.909.141.269.097.482.207.643.337l.445.399c.146.131.299.247.477.343.172.097.357.144.562.141.371 0 .667-.123.896-.373.224-.253.336-.558.336-.906 0-.434-.224-.822-.661-1.176-.44-.349-1-.615-1.675-.797-.679-.179-1.395-.27-2.15-.271-.535 0-1.054.062-1.556.183-.504.124-.979.309-1.411.557-.438.247-.787.592-1.055 1.028-.265.438-.396.942-.396 1.519 0 .479.074.896.224 1.257.152.354.372.653.661.894.291.234.606.429.949.571.339.146.744.271 1.216.383l1.725.427c.709.179 1.146.316 1.318.429.253.152.377.396.377.707 0 .31-.153.562-.473.762s-.73.301-1.239.297c-.397 0-.761-.062-1.08-.188-.314-.124-.573-.275-.768-.455-.194-.181-.372-.354-.537-.533-.166-.184-.344-.327-.538-.456-.199-.123-.409-.188-.641-.188-.396 0-.691.12-.896.354-.201.23-.301.531-.301.886 0 .728.482 1.344 1.444 1.857.957.515 2.104.772 3.431.772.575 0 1.125-.071 1.653-.219.523-.149 1.008-.354 1.442-.631.438-.276.785-.646 1.045-1.104.263-.461.393-.977.393-1.556h.006v-.01zm4.285 2.562c0 1.254-.443 2.324-1.329 3.21-.886.89-1.954 1.328-3.205 1.328-1.023 0-1.943-.312-2.768-.941-.605.124-1.196.187-1.771.187-1.126 0-2.202-.216-3.229-.649-1.027-.438-1.915-1.03-2.658-1.773-.744-.744-1.334-1.631-1.771-2.657-.437-1.023-.651-2.104-.651-3.229 0-.574.064-1.17.188-1.776-.63-.812-.946-1.739-.946-2.763 0-1.251.443-2.319 1.328-3.205.89-.886 1.954-1.33 3.206-1.33 1.026 0 1.943.313 2.771.947.604-.125 1.193-.188 1.771-.188 1.125 0 2.202.218 3.229.654 1.028.436 1.915 1.024 2.655 1.771.744.744 1.336 1.63 1.771 2.658.436 1.029.654 2.106.654 3.23 0 .571-.064 1.166-.188 1.771.629.811.943 1.732.943 2.755z"/><text transform="translate(65.215 608.106)" fill="#F5ECD9" font-weight="100" font-size="18">pvs1403</text></g><g id="addressnumidia" fill="#F5ECD9" font-weight="100" font-size="18"><text transform="translate(33.271 438.129)">Parth Suthar</text><text transform="translate(33.271 459.728)">Pune, Maharastra, India</text></g><g id="contactresume"><path fill="#F5ECD9" d="M45.744 640.588v.867c0 .13-.041.229-.123.312-.082.087-.188.124-.313.124h-9.574c-.127 0-.229-.035-.312-.124-.082-.081-.124-.184-.124-.312v-.867c0-.13.042-.229.124-.312.082-.082.186-.123.312-.123h9.574c.128 0 .23.041.313.123.082.081.123.185.123.312zm0-3.483v.867c0 .127-.041.231-.123.312-.082.082-.188.123-.313.123h-9.574c-.127 0-.229-.041-.312-.123-.082-.081-.124-.188-.124-.312v-.867c0-.13.042-.23.124-.312.082-.081.186-.122.312-.122h9.574c.128 0 .23.041.313.122.082.082.123.186.123.312zm-12.183 8.27h13.923v-10.443h-5.654c-.363 0-.676-.126-.927-.381-.254-.251-.381-.56-.381-.925v-5.656h-6.962l.001 17.405zm8.701-12.184h5.112c-.092-.267-.191-.449-.297-.561l-4.26-4.257c-.105-.108-.293-.211-.558-.299l.003 5.117zm6.961.435v12.183c0 .366-.127.677-.379.932-.254.251-.562.378-.926.378h-14.795c-.363 0-.671-.127-.924-.378-.257-.255-.385-.562-.385-.932v-18.271c0-.366.128-.673.385-.925.253-.254.561-.381.924-.381h8.702c.359 0 .761.091 1.192.271.438.183.78.399 1.033.654l4.244 4.241c.251.254.473.599.651 1.03.187.438.277.835.278 1.198z"/><text transform="translate(65.608 645.044)" fill="#F5ECD9" font-weight="100" font-size="18">View resume</text></g><text transform="translate(26.604 402.719)" fill="#F5ECD9" font-weight="100" font-size="36">To stay connected:</text><g id="sketchshare"><text transform="translate(500.633 489.283)" fill="#F5ECD9" font-weight="100" font-size="36">Have you tried</text><text transform="translate(498.633 590.388)" fill="#F5ECD9" font-weight="100" font-size="80.874">Sketchshare?</text></g></g><text id="ownership" transform="translate(26.604 122.301)" fill="#E84D5B" font-weight="100" font-size="36">And reliable. And friendly, most of the time.</text><g id="leaving" fill="#F5ECD9" font-weight="100" font-size="30"><text transform="translate(26.604 182.247)">Seeking a position to utilize my skills and,</text><text transform="translate(26.604 222.247)">abilities that offers professional growth while being,</text><text transform="translate(26.604 262.194)">resourceful, innovative and flexible.</text><text transform="translate(26.604 302.194)">Willing to work as a key player,</text><text transform="translate(26.604 342.194)">in challenging and creative environment.</text></g><text id="passionate" transform="translate(26.604 62.353)" fill="#E84D5B" font-weight="100" font-size="36">I’m passionate about my job.</text><text transform="translate(26.604 319.345)" fill="#2BACB5" font-weight="100" font-size="36" id="thankyouforscrolling">Thank you for scrolling this far :)</text></svg>