<?xml version="1.0" encoding="utf-8"?>
<!-- Generator: Adobe Illustrator 16.0.0, SVG Export Plug-In . SVG Version: 6.00 Build 0)  -->
<!DOCTYPE svg PUBLIC "-//W3C//DTD SVG 1.1//EN" "http://www.w3.org/Graphics/SVG/1.1/DTD/svg11.dtd">
<svg version="1.1" id="svg5" xmlns="http://www.w3.org/2000/svg" xmlns:xlink="http://www.w3.org/1999/xlink" x="0px" y="0px"
	 width="1024px" height="768px" viewBox="0 0 1024 768" enable-background="new 0 0 1024 768" xml:space="preserve">
<g id="bg5">
	<rect x="-5882.951" y="-5137.504" fill="#F5ECD9" width="12784.607" height="11218.004"/>
</g>
<g id="sky">
	<rect x="-7653.467" y="-7098.016" fill="#2BACB5" stroke="#000000" stroke-miterlimit="10" width="15687.934" height="14889.029"/>
</g>
<g id="mountains">
	<g>
		<path fill="#D4E5F6" d="M-792.243,1119.833"/>
		<polygon fill="#14757B" points="-209.3,510.472 -37.804,689.235 -193.184,705.394 		"/>
		<polygon fill="#ACE8EA" points="-402.598,667.509 -345.107,604.72 -321.267,642.229 -398.216,859.793 		"/>
		<path fill="#A7C6E8" d="M-927.366,1503.302"/>
		<path fill="#A7C6E8" d="M-1577.241,1702.573"/>
		<path fill="#C1DDF3" d="M-1577.241,1702.573"/>
		<path fill="#5984C3" d="M-832.03,1389.982"/>
		<path fill="#A7C6E8" d="M-588.439,1107.608"/>
		<path fill="#0D72B9" d="M-854.126,1095.198"/>
		<polygon fill="#ACE8EA" points="-854.126,1095.198 -735.19,578.242 -588.439,1107.608 		"/>
		<polygon fill="#F5ECD9" points="-735.19,578.242 -649.129,529.291 -588.439,1107.608 		"/>
		<polygon fill="#FFFFFF" points="-646.729,553.362 -649.129,529.291 -566.951,373.859 -471.992,709.22 		"/>
		<polygon fill="#229098" points="-588.439,1107.608 -471.992,709.22 -626.096,552.59 -646.729,553.362 		"/>
		<polygon fill="#F5ECD9" points="-345.107,1147.357 -588.439,1107.608 -471.992,709.22 -402.598,667.509 		"/>
		<polygon fill="#C1E8E7" points="-566.951,373.859 -402.598,667.509 -471.992,709.22 		"/>
		<path fill="#5984C3" d="M-854.126,1095.198"/>
		<polygon fill="#FFFFFF" points="-345.107,604.72 -209.3,510.472 -180.034,864.441 		"/>
		<polygon fill="#14757B" points="-398.216,859.793 -330.423,1226.866 -180.034,864.441 -321.267,642.229 		"/>
		<polygon fill="#ACE8EA" points="-357.747,1078.915 -330.423,1226.866 -398.216,859.793 -588.439,1107.608 		"/>
		<polygon fill="#229098" points="-209.3,510.472 -193.184,705.394 -180.034,864.441 		"/>
		<polygon fill="#14757B" points="-191.831,1193.399 -180.034,864.441 -330.423,1226.866 		"/>
		<polygon fill="#229098" points="71.511,1204.285 -191.831,1193.399 -180.034,864.441 		"/>
		<polygon fill="#ACE8EA" points="71.511,1204.285 -37.804,689.235 -180.034,864.441 		"/>
		<polygon fill="#F5ECD9" points="71.511,1204.285 227.962,1204.132 -37.804,689.235 		"/>
		<polygon fill="#14757B" points="-37.804,689.235 171.052,897.846 227.962,1204.132 		"/>
		<polygon fill="#63D3D6" points="227.962,1204.132 426.55,1189.605 171.052,897.846 		"/>
		<polygon fill="#ACE8EA" points="-37.804,689.235 -116.212,415.166 88.257,723.859 		"/>
		<polygon fill="#63D3D6" points="171.052,897.846 88.257,723.859 -37.804,689.235 		"/>
		<polygon fill="#FFFFFF" points="-37.804,689.235 -116.212,415.166 -209.3,510.472 		"/>
		<polygon fill="#229098" points="-402.598,667.509 -345.107,604.72 -566.951,373.859 		"/>
		<polygon fill="#63D3D6" points="426.55,1189.605 490.657,1138.932 273.831,934.037 		"/>
		<polygon fill="#ACE8EA" points="490.657,1138.932 701.151,1101.004 454.365,929.785 273.831,934.037 		"/>
		<polygon fill="#C1E8E7" points="255.411,944.84 148.075,795.87 148.075,691.64 250.054,605.882 454.365,929.785 		"/>
		<polygon fill="#1C8389" points="701.151,1101.004 250.054,605.882 454.365,929.785 		"/>
		<polygon fill="#FFFFFF" points="168.141,820.025 255.411,944.84 250.054,605.882 88.257,723.859 		"/>
		<polygon fill="#63D3D6" points="488.188,867.465 599.406,883.821 761.608,1042.641 701.151,1101.004 		"/>
		<polygon fill="#C1E8E7" points="454.365,929.785 490.657,1138.932 255.411,944.84 		"/>
		<polygon fill="#C1E8E7" points="599.406,883.821 701.151,1101.004 761.608,1042.641 		"/>
	</g>
</g>
<g id="clouds">
	<path fill="#F5ECD9" d="M188.406,612.645c0-10.18-8.252-18.432-18.432-18.432s-18.432,8.252-18.432,18.432H188.406z"/>
	<path fill="#F5ECD9" d="M273.68,612.645c0-10.18-8.252-18.432-18.432-18.432c-10.186,0-18.438,8.252-18.438,18.432H273.68z"/>
	<path fill="#F5ECD9" d="M231.043,612.645c0-15.688-12.729-28.424-28.426-28.424c-15.697,0-28.43,12.729-28.43,28.424H231.043z"/>
	<g>
		<path fill="#F5ECD9" d="M253.926,342.688c0-4.557-3.693-8.25-8.25-8.25s-8.25,3.693-8.25,8.25H253.926z"/>
		<path fill="#F5ECD9" d="M279.373,342.688c0-3.513-2.854-6.361-6.361-6.361s-6.361,2.849-6.361,6.361H279.373z"/>
		<path fill="#F5ECD9" d="M273.012,342.688c0-7.026-5.697-12.723-12.725-12.723c-7.025,0-12.729,5.696-12.729,12.723H273.012z"/>
	</g>
	<g>
		<path fill="#F5ECD9" d="M460.604,534.379c0-6.624,5.369-11.992,11.993-11.992c6.622,0,11.991,5.368,11.991,11.992H460.604z"/>
		<path fill="#F5ECD9" d="M376.655,534.379c0-9.936,8.06-17.989,17.979-17.989c9.938,0,17.982,8.062,17.982,17.989H376.655z"/>
		<path fill="#F5ECD9" d="M400.641,534.379c0-19.871,16.104-35.979,35.979-35.979s35.979,16.104,35.979,35.979H400.641z"/>
	</g>
	<g>
		<path fill="#F5ECD9" d="M482.551,554.23c0-5.273,4.271-9.562,9.549-9.562c5.271,0,9.557,4.273,9.557,9.562H482.551z"/>
		<path fill="#F5ECD9" d="M497.275,554.23c0-4.064,3.297-7.361,7.354-7.361c4.062,0,7.357,3.297,7.357,7.361H497.275z"/>
	</g>
	<g>
		<g>
			<path fill="#F5ECD9" d="M803.939,380.535c0-19.677-15.953-35.632-35.641-35.632c-19.682,0-35.627,15.955-35.627,35.632H803.939z"
				/>
			<path fill="#F5ECD9" d="M830.49,380.535c0-14.669-11.889-26.558-26.557-26.558c-14.678,0-26.562,11.889-26.562,26.558H830.49z"/>
			<path fill="#F5ECD9" d="M744.854,380.535c0-8.801-7.137-15.936-15.938-15.936c-8.803,0-15.938,7.135-15.938,15.936H744.854z"/>
		</g>
		<g>
			<path fill="#F5ECD9" d="M418.438,513.637c0-18.051-14.633-32.684-32.684-32.684c-18.057,0-32.688,14.633-32.688,32.684H418.438z"
				/>
			<path fill="#F5ECD9" d="M377.432,513.637c0-13.455-10.896-24.354-24.354-24.354c-13.447,0-24.354,10.896-24.354,24.354H377.432z"
				/>
			<path fill="#F5ECD9" d="M437.926,513.637c0-10.764-8.729-19.479-19.488-19.479c-10.764,0-19.479,8.725-19.479,19.479H437.926z"/>
			<path fill="#F5ECD9" d="M338.449,513.637c0-8.062-6.543-14.617-14.609-14.617c-8.072,0-14.617,6.561-14.617,14.617H338.449z"/>
		</g>
		<g>
			<path fill="#F5ECD9" d="M366.605,442.211"/>
			<path fill="#F5ECD9" d="M346.316,370.211"/>
			<g>
				<path fill="#F5ECD9" d="M667.055,556.801c0-8.953-7.258-16.211-16.211-16.211s-16.211,7.258-16.211,16.211H667.055z"/>
				<path fill="#F5ECD9" d="M717.055,556.801c0-6.896-5.596-12.5-12.5-12.5c-6.896,0-12.5,5.604-12.5,12.5H717.055z"/>
				<path fill="#F5ECD9" d="M704.555,556.801c0-13.807-11.188-25-25-25c-13.812,0-25,11.193-25,25H704.555z"/>
			</g>
			<g>
				<path fill="#F5ECD9" d="M304.781,534.908c0-7.674-6.229-13.896-13.896-13.896s-13.895,6.229-13.895,13.896H304.781z"/>
				<path fill="#F5ECD9" d="M315.139,534.908c0-5.721-4.637-10.357-10.354-10.357c-5.717,0-10.354,4.646-10.354,10.357H315.139z"/>
				<path fill="#F5ECD9" d="M281.736,534.908c0-3.438-2.777-6.215-6.215-6.215c-3.432,0-6.215,2.771-6.215,6.215H281.736z"/>
			</g>
			<g>
				<path fill="#F5ECD9" d="M362.755,376.418c0-8.264-6.697-14.961-14.961-14.961c-8.271,0-14.959,6.697-14.959,14.961H362.755z"/>
				<path fill="#F5ECD9" d="M467.479,376.418c0-12.395-10.047-22.441-22.438-22.441c-12.396,0-22.44,10.047-22.44,22.441H467.479z"
					/>
				<path fill="#F5ECD9" d="M437.558,376.418c0-24.789-20.094-44.883-44.881-44.883s-44.886,20.094-44.886,44.883H437.558z"/>
			</g>
			<g>
				<path fill="#F5ECD9" d="M511.904,600.949c0-5.273-4.271-9.547-9.547-9.547c-5.271,0-9.557,4.271-9.557,9.547H511.904z"/>
				<path fill="#F5ECD9" d="M497.182,600.949c0-4.064-3.297-7.361-7.354-7.361c-4.062,0-7.355,3.297-7.355,7.361H497.182z"/>
			</g>
			<g>
				<path fill="#F5ECD9" d="M618.617,107.473c0-5.273-4.271-9.547-9.549-9.547c-5.271,0-9.547,4.273-9.547,9.547H618.617z"/>
				<path fill="#F5ECD9" d="M603.898,107.473c0-4.064-3.307-7.361-7.361-7.361c-4.062,0-7.357,3.297-7.357,7.361H603.898z"/>
			</g>
			<g>
				<path fill="#F5ECD9" d="M856.65,47.383c0-4.557-3.692-8.25-8.25-8.25c-4.562,0-8.25,3.693-8.25,8.25H856.65z"/>
				<path fill="#F5ECD9" d="M882.098,47.383c0-3.513-2.848-6.361-6.354-6.361c-3.521,0-6.355,2.849-6.355,6.361H882.098z"/>
				<path fill="#F5ECD9" d="M875.736,47.383c0-7.026-5.697-12.723-12.729-12.723c-7.021,0-12.729,5.696-12.729,12.723H875.736z"/>
			</g>
			<g>
				<path fill="#F5ECD9" d="M66,395.904c0-5.273,4.271-9.547,9.549-9.547c5.271,0,9.547,4.271,9.547,9.547H66z"/>
				<path fill="#F5ECD9" d="M80.725,395.904c0-4.064,3.297-7.361,7.361-7.361c4.062,0,7.363,3.297,7.363,7.361H80.725z"/>
			</g>
		</g>
	</g>
	<g>
		<g>
			<path fill="#F5ECD9" d="M64.212,540.55h-8v-1h8V540.55z M48.212,540.55h-8v-1h8V540.55z M32.212,540.55h-8v-1h8V540.55z
				 M16.212,540.55h-8v-1h8V540.55z M0.212,540.55h-8v-1h8V540.55z M-15.788,540.55h-8v-1h8V540.55z M-31.788,540.55h-8v-1h8V540.55
				z M-47.788,540.55h-8v-1h8V540.55z M-63.788,540.55h-8v-1h8V540.55z M-79.788,540.55h-8v-1h8V540.55z M-95.788,540.55h-8v-1h8
				V540.55z M-111.788,540.55h-5.417v-1h5.417V540.55z"/>
		</g>
		<g>
			<path fill="#F5ECD9" d="M1151.275,93.095h-8v-1h8V93.095z M1135.275,93.095h-8v-1h8V93.095z M1119.275,93.095h-8v-1h8V93.095z
				 M1103.275,93.095h-8v-1h8V93.095z M1087.275,93.095h-8v-1h8V93.095z M1071.275,93.095h-8v-1h8V93.095z M1055.275,93.095h-8v-1h8
				V93.095z"/>
		</g>
		<g>
			<path fill="#F5ECD9" d="M721.096,317.734h-8v-1h8V317.734z M705.096,317.734h-8v-1h8V317.734z M689.096,317.734h-8v-1h8V317.734z
				 M673.096,317.734h-8v-1h8V317.734z M657.096,317.734h-8v-1h8V317.734z M641.096,317.734h-8v-1h8V317.734z M625.096,317.734h-8
				v-1h8V317.734z M609.096,317.734h-8v-1h8V317.734z M593.096,317.734h-8v-1h8V317.734z M577.096,317.734h-8v-1h8V317.734z"/>
		</g>
	</g>
</g>
<g id="contacts">
	<rect x="-2766.482" y="342.5" fill="#E84D5B" width="6910.617" height="445.5"/>
	<g id="email">
		<text transform="matrix(1 0 0 1 65.9998 534.2324)" fill="#F5ECD9" font-weight="100" font-size="18">pvs1403@gmail.com</text>
		<path fill="#F5ECD9" d="M47.688,535.041v-7.457c-0.204,0.233-0.431,0.447-0.671,0.643c-1.731,1.332-3.115,2.432-4.136,3.282
			c-0.33,0.277-0.599,0.496-0.804,0.647c-0.207,0.151-0.487,0.31-0.843,0.471c-0.354,0.159-0.684,0.237-0.99,0.237h-0.021
			c-0.311,0-0.645-0.078-0.993-0.237c-0.354-0.161-0.633-0.314-0.839-0.471c-0.206-0.151-0.474-0.372-0.804-0.647
			c-1.022-0.854-2.4-1.948-4.136-3.282c-0.24-0.191-0.461-0.404-0.675-0.643v7.457c0,0.084,0.031,0.157,0.097,0.219
			c0.062,0.063,0.135,0.094,0.22,0.094H47.39c0.084,0,0.157-0.031,0.219-0.094c0.063-0.062,0.097-0.135,0.097-0.219H47.688z
			 M47.688,524.836v-0.238c0,0-0.003-0.042-0.006-0.126c-0.003-0.085-0.014-0.125-0.03-0.12c-0.013,0.008-0.031-0.021-0.053-0.089
			c-0.02-0.061-0.048-0.086-0.088-0.069c-0.039,0.014-0.085,0.008-0.136-0.022H33.079c-0.083,0-0.157,0.031-0.222,0.092
			c-0.062,0.062-0.092,0.139-0.092,0.223c0,1.09,0.479,2.008,1.428,2.757c1.25,0.98,2.548,2.011,3.893,3.076
			c0.039,0.033,0.148,0.126,0.34,0.283c0.188,0.158,0.335,0.277,0.446,0.362c0.106,0.085,0.252,0.188,0.435,0.306
			c0.176,0.118,0.341,0.209,0.488,0.271c0.146,0.059,0.289,0.088,0.419,0.088h0.018c0.129,0,0.271-0.029,0.418-0.088
			c0.146-0.062,0.312-0.146,0.488-0.271c0.176-0.116,0.323-0.225,0.438-0.306c0.106-0.085,0.256-0.204,0.442-0.362
			c0.188-0.157,0.3-0.25,0.337-0.283c1.352-1.068,2.647-2.1,3.896-3.076c0.35-0.278,0.673-0.652,0.976-1.121
			C47.537,525.643,47.688,525.217,47.688,524.836L47.688,524.836z M48.93,524.479v10.562c0,0.428-0.152,0.794-0.459,1.095
			c-0.303,0.307-0.671,0.459-1.094,0.459H33.081c-0.431,0-0.792-0.147-1.098-0.459c-0.303-0.304-0.459-0.672-0.459-1.095v-10.562
			c0-0.43,0.152-0.795,0.459-1.098s0.675-0.456,1.098-0.456h14.296c0.429,0,0.793,0.15,1.094,0.456
			C48.778,523.684,48.93,524.049,48.93,524.479z"/>
	</g>
	<g id="linkedin">
		<text transform="matrix(1 0 0 1 64.821 571.1699)" fill="#F5ECD9" font-weight="100" font-size="18">LinkedIn profile</text>
		<path fill="#F5ECD9" d="M34.418,571.388h2.808v-8.438h-2.808V571.388z M37.407,560.351c-0.012-0.42-0.155-0.771-0.438-1.043
			c-0.283-0.271-0.662-0.411-1.131-0.411s-0.854,0.143-1.149,0.411c-0.298,0.272-0.438,0.623-0.438,1.043
			c0,0.413,0.144,0.764,0.431,1.039c0.289,0.279,0.667,0.42,1.124,0.42h0.013c0.479,0,0.865-0.141,1.155-0.42
			C37.262,561.111,37.406,560.764,37.407,560.351L37.407,560.351z M44.518,571.388h2.812v-4.836c0-1.248-0.301-2.189-0.891-2.832
			c-0.592-0.639-1.376-0.962-2.347-0.962c-1.104,0-1.949,0.479-2.539,1.423h0.021v-1.229h-2.812c0.025,0.536,0.025,3.348,0,8.438
			h2.812v-4.721c0-0.309,0.024-0.535,0.085-0.681c0.126-0.283,0.304-0.524,0.552-0.727c0.241-0.195,0.543-0.299,0.895-0.299
			c0.943,0,1.409,0.639,1.409,1.913L44.518,571.388L44.518,571.388z M50.207,559.257v11.67c0,0.964-0.347,1.789-1.027,2.479
			c-0.688,0.687-1.513,1.025-2.477,1.025H35.032c-0.969,0-1.789-0.343-2.479-1.025c-0.688-0.688-1.03-1.517-1.03-2.479v-11.67
			c0-0.966,0.346-1.79,1.03-2.477c0.688-0.688,1.51-1.03,2.479-1.03h11.671c0.964,0,1.788,0.343,2.477,1.03
			C49.865,557.467,50.207,558.291,50.207,559.257z"/>
	</g>
	<g id="phone">
		<g>
			<path fill="#F5ECD9" d="M45.604,476.917h-11.14c-1.612,0-2.938,1.317-2.938,2.934v22.865c0,1.604,1.32,2.938,2.938,2.938h11.14
				c1.608,0,2.938-1.32,2.938-2.938v-22.865C48.535,478.237,47.216,476.917,45.604,476.917z M40.034,504.476
				c-1.142,0-2.057-0.653-2.057-1.464c0-0.812,0.919-1.468,2.057-1.468c1.132,0,2.047,0.655,2.047,1.468
				C42.084,503.818,41.168,504.476,40.034,504.476z M46.19,500.078H33.878v-19.354H46.19V500.078z"/>
		</g>
		<text transform="matrix(1 0 0 1 64.429 497.2949)" fill="#F5ECD9" font-weight="100" font-size="18">+91 9158884969</text>
	</g>
	<g id="skype">
		<g>
			<path fill="#F5ECD9" d="M44.801,603.992c0-0.396-0.076-0.754-0.234-1.08c-0.147-0.327-0.344-0.595-0.564-0.812
				c-0.233-0.213-0.52-0.401-0.867-0.574c-0.344-0.183-0.671-0.312-0.974-0.402c-0.307-0.093-0.647-0.183-1.033-0.271L39.9,600.57
				c-0.232-0.06-0.405-0.101-0.519-0.124c-0.11-0.028-0.248-0.073-0.413-0.14c-0.166-0.063-0.284-0.126-0.354-0.188
				c-0.064-0.069-0.136-0.152-0.191-0.248c-0.062-0.104-0.089-0.22-0.089-0.354c0-0.604,0.562-0.905,1.693-0.905
				c0.345,0,0.646,0.047,0.909,0.141c0.269,0.097,0.482,0.207,0.643,0.337c0.149,0.131,0.307,0.263,0.445,0.399
				c0.146,0.131,0.299,0.247,0.477,0.343c0.172,0.097,0.357,0.144,0.562,0.141c0.371,0,0.667-0.123,0.896-0.373
				c0.224-0.253,0.336-0.558,0.336-0.906c0-0.434-0.224-0.822-0.661-1.176c-0.44-0.349-1-0.615-1.675-0.797
				c-0.679-0.179-1.395-0.27-2.15-0.271c-0.535,0-1.054,0.062-1.556,0.183c-0.504,0.124-0.979,0.309-1.411,0.557
				c-0.438,0.247-0.787,0.592-1.055,1.028c-0.265,0.438-0.396,0.942-0.396,1.519c0,0.479,0.074,0.896,0.224,1.257
				c0.152,0.354,0.372,0.653,0.661,0.894c0.291,0.234,0.606,0.429,0.949,0.571c0.339,0.146,0.744,0.271,1.216,0.383l1.725,0.427
				c0.709,0.179,1.146,0.316,1.318,0.429c0.253,0.152,0.377,0.396,0.377,0.707c0,0.31-0.153,0.562-0.473,0.762
				s-0.73,0.301-1.239,0.297c-0.397,0-0.761-0.062-1.08-0.188c-0.314-0.124-0.573-0.275-0.768-0.455
				c-0.194-0.181-0.372-0.354-0.537-0.533c-0.166-0.184-0.344-0.327-0.538-0.456c-0.199-0.123-0.409-0.188-0.641-0.188
				c-0.396,0-0.691,0.12-0.896,0.354c-0.201,0.23-0.301,0.531-0.301,0.886c0,0.728,0.482,1.344,1.444,1.857
				c0.957,0.515,2.104,0.772,3.431,0.772c0.575,0,1.125-0.071,1.653-0.219c0.523-0.149,1.008-0.354,1.442-0.631
				c0.438-0.276,0.785-0.646,1.045-1.104c0.263-0.461,0.393-0.977,0.393-1.556h0.006V603.992z M49.086,606.554
				c0,1.254-0.443,2.324-1.329,3.21c-0.886,0.89-1.954,1.328-3.205,1.328c-1.023,0-1.943-0.312-2.768-0.941
				c-0.605,0.124-1.196,0.187-1.771,0.187c-1.126,0-2.202-0.216-3.229-0.649c-1.027-0.438-1.915-1.03-2.658-1.773
				c-0.744-0.744-1.334-1.631-1.771-2.657c-0.437-1.023-0.651-2.104-0.651-3.229c0-0.574,0.064-1.17,0.188-1.776
				c-0.63-0.812-0.946-1.739-0.946-2.763c0-1.251,0.443-2.319,1.328-3.205c0.89-0.886,1.954-1.33,3.206-1.33
				c1.026,0,1.943,0.313,2.771,0.947c0.604-0.125,1.193-0.188,1.771-0.188c1.125,0,2.202,0.218,3.229,0.654
				c1.028,0.436,1.915,1.024,2.655,1.771c0.744,0.744,1.336,1.63,1.771,2.658c0.436,1.029,0.654,2.106,0.654,3.23
				c0,0.571-0.064,1.166-0.188,1.771C48.772,604.61,49.086,605.531,49.086,606.554z"/>
		</g>
		<text transform="matrix(1 0 0 1 65.2151 608.1064)" fill="#F5ECD9" font-weight="100" font-size="18">pvs1403</text>
	</g>
	<g id="addressnumidia">
		<text transform="matrix(1 0 0 1 33.2708 438.1289)" fill="#F5ECD9" font-weight="100" font-size="18">Parth Suthar</text>
		<text transform="matrix(1 0 0 1 33.2708 459.7285)" fill="#F5ECD9" font-weight="100" font-size="18">Pune, Maharastra, India</text>
	</g>
	<g id="contactresume">
		<path fill="#F5ECD9" d="M45.744,640.588v0.867c0,0.13-0.041,0.229-0.123,0.312c-0.082,0.087-0.188,0.124-0.313,0.124h-9.574
			c-0.127,0-0.229-0.035-0.312-0.124c-0.082-0.081-0.124-0.184-0.124-0.312v-0.867c0-0.13,0.042-0.229,0.124-0.312
			c0.082-0.082,0.186-0.123,0.312-0.123h9.574c0.128,0,0.23,0.041,0.313,0.123C45.703,640.357,45.744,640.461,45.744,640.588z
			 M45.744,637.105v0.867c0,0.127-0.041,0.231-0.123,0.312c-0.082,0.082-0.188,0.123-0.313,0.123h-9.574
			c-0.127,0-0.229-0.041-0.312-0.123c-0.082-0.081-0.124-0.188-0.124-0.312v-0.867c0-0.13,0.042-0.23,0.124-0.312
			c0.082-0.081,0.186-0.122,0.312-0.122h9.574c0.128,0,0.23,0.041,0.313,0.122C45.703,636.875,45.744,636.979,45.744,637.105z
			 M33.561,645.375h13.923v-10.443h-5.654c-0.363,0-0.676-0.126-0.927-0.381c-0.254-0.251-0.381-0.56-0.381-0.925v-5.656H33.56
			L33.561,645.375L33.561,645.375z M42.262,633.191h5.112c-0.092-0.267-0.191-0.449-0.297-0.561l-4.26-4.257
			c-0.105-0.108-0.293-0.211-0.558-0.299L42.262,633.191L42.262,633.191z M49.223,633.626v12.183c0,0.366-0.127,0.677-0.379,0.932
			c-0.254,0.251-0.562,0.378-0.926,0.378H33.123c-0.363,0-0.671-0.127-0.924-0.378c-0.257-0.255-0.385-0.562-0.385-0.932v-18.271
			c0-0.366,0.128-0.673,0.385-0.925c0.253-0.254,0.561-0.381,0.924-0.381h8.702c0.359,0,0.761,0.091,1.192,0.271
			c0.438,0.183,0.78,0.399,1.033,0.654l4.244,4.241c0.251,0.254,0.473,0.599,0.651,1.03
			C49.132,632.866,49.222,633.263,49.223,633.626L49.223,633.626z"/>
		<g>
			<text transform="matrix(1 0 0 1 65.6077 645.0439)" fill="#F5ECD9" font-weight="100" font-size="18">View resume</text>
		</g>
	</g>
	<text transform="matrix(1 0 0 1 26.6038 402.7188)" fill="#F5ECD9" font-weight="100" font-size="36">To stay connected:</text>
	<g id="sketchshare">
		<g>
			<text transform="matrix(1 0 0 1 500.6331 489.2832)" fill="#F5ECD9" font-weight="100" font-size="36">Have you tried</text>
		</g>
		<text transform="matrix(1 0 0 1 498.6331 590.3877)" fill="#F5ECD9" font-weight="100" font-size="80.8737">Sketchshare?</text>
	</g>
</g>
<g>
	<text id="ownership" transform="matrix(1 0 0 1 26.6038 122.3008)" fill="#E84D5B" font-weight="100" font-size="36">And reliable. And friendly, most of the time.</text>
</g>
<g id="leaving">
	<text transform="matrix(1 0 0 1 26.6038 182.2471)" fill="#F5ECD9" font-weight="100" font-size="30">Seeking a position to utilize my skills and,</text>
	<text transform="matrix(1 0 0 1 26.6038 222.2471)" fill="#F5ECD9" font-weight="100" font-size="30">abilities that offers professional growth while being,</text>
	<text transform="matrix(1 0 0 1 26.6038 262.1943)" fill="#F5ECD9" font-weight="100" font-size="30">resourceful, innovative and flexible.</text>
	<text transform="matrix(1 0 0 1 26.6038 302.1943)" fill="#F5ECD9" font-weight="100" font-size="30">Willing to work as a key player,</text>
	<text transform="matrix(1 0 0 1 26.6038 342.1943)" fill="#F5ECD9" font-weight="100" font-size="30">in challenging and creative environment.</text>
</g>
<text id="passionate" transform="matrix(1 0 0 1 26.6038 62.3535)" fill="#E84D5B" font-weight="100" font-size="36">I’m passionate about my job.</text>
<g id="thankyouforscrolling">
	<text transform="matrix(1 0 0 1 26.6038 319.3447)" fill="#2BACB5" font-weight="100" font-size="36">Thank you for scrolling this far :)</text>
</g>
</svg>
