<?xml version="1.0" encoding="utf-8"?>
<!-- Generator: Adobe Illustrator 16.0.0, SVG Export Plug-In . SVG Version: 6.00 Build 0)  -->
<!DOCTYPE svg PUBLIC "-//W3C//DTD SVG 1.1//EN" "http://www.w3.org/Graphics/SVG/1.1/DTD/svg11.dtd">
<svg version="1.1" id="svg4" xmlns="http://www.w3.org/2000/svg" xmlns:xlink="http://www.w3.org/1999/xlink" x="0px" y="0px"
	 width="1024px" height="768px" viewBox="0 0 1024 768" enable-background="new 0 0 1024 768" xml:space="preserve">
<rect x="-6407" y="-4622.09" fill="#E74C3C" stroke="#E74C3C" stroke-miterlimit="10" width="14063" height="10085.179"/>
<g id="bg" display="none">
	<rect x="-6407" y="-4622.09" display="inline" fill="#2C3E50" width="14063" height="10085.18"/>
</g>
<g id="scene">
	<text id="title" transform="matrix(1 0 0 1 37.3481 60.252)" fill="#F5F7FA" font-weight="100" font-size="36">Over the years I worked for companies</text>
	<g id="desks">
		<g id="deskleft">
			<g>
				<path fill="#982E21" d="M-18.878,684.31c0,30.705-25.121,55.827-55.825,55.827h-863.771c-30.705,0-57.377-26.673-57.377-57.377
					V209.78c0-30.705,25.122-55.828,55.827-55.828h865.321c30.704,0,55.825,25.123,55.825,55.828V684.31z"/>
				<path fill="#BE3D2F" d="M-15,680.433c0,30.704-25.124,55.827-55.828,55.827h-865.319c-30.705,0-55.828-25.123-55.828-55.827
					v-474.53c0-30.705,25.123-55.827,55.828-55.827h865.319c30.704,0,55.828,25.122,55.828,55.827V680.433z"/>
			</g>
			<g>
				<path fill="#9E3023" d="M-199.92,258.513l-303.134-65.696c0,0-7.256-1.574-8.828,5.684c-1.572,7.256,5.683,8.828,5.683,8.828
					l21.768,4.717c0,0-7.256-1.572-8.829,5.684c-1.573,7.256-32.673,150.761-32.673,150.761c-1.641,7.57,3.972,15.212,11.542,16.851
					l245.893,53.29c7.57,1.646,15.036-3.166,16.676-10.73c0,0,24.924-115.006,31.275-144.312l0,0
					c0.031-0.146,0.244-1.128,1.397-6.449c1.572-7.256-5.683-8.829-5.683-8.829l21.768,4.717c0,0,7.255,1.573,8.828-5.684
					C-192.664,260.085-199.92,258.513-199.92,258.513z"/>
				<g>
					<path fill="#DCE4E8" d="M-246.005,427.477c-1.64,7.567-9.106,12.377-16.676,10.735l-245.894-53.29
						c-7.568-1.642-13.182-9.281-11.54-16.851c0,0,31.1-143.505,32.671-150.761c1.572-7.255,8.829-5.684,8.829-5.684l259.6,56.26
						c0,0,7.256,1.572,5.684,8.829C-214.903,283.971-246.005,427.477-246.005,427.477z"/>
					<path fill="#F7F9F8" d="M-197.248,272.604l-303.135-65.695c0,0-7.254-1.573-5.683-8.83c1.573-7.254,8.829-5.683,8.829-5.683
						l303.134,65.696c0,0,7.256,1.572,5.684,8.827C-189.992,274.176-197.248,272.604-197.248,272.604z"/>
					<path opacity="0.3" fill="#B7BFC7" enable-background="new    " d="M-214.729,283.164l-297.192,47.208
						c0,0,22.906-105.806,24.478-113.062c1.572-7.255,8.829-5.684,8.829-5.684l259.6,56.26c0,0,7.256,1.572,5.684,8.829
						C-214.903,283.971-214.729,283.164-214.729,283.164z"/>
					
						<rect x="-418.119" y="361.819" transform="matrix(0.9773 0.2117 -0.2117 0.9773 72.0082 89.0325)" fill="#F7F9F8" width="76.701" height="37.937"/>
					<g id="keyboard2">
						
							<rect x="-449.626" y="247.04" transform="matrix(0.9773 0.2118 -0.2118 0.9773 43.3389 99.3746)" fill="#F7F9F8" width="14.849" height="9.899"/>
						
							<rect x="-453.374" y="262.337" transform="matrix(0.9773 0.2117 -0.2117 0.9773 46.9134 100.5143)" fill="#F7F9F8" width="14.844" height="14.017"/>
						
							<rect x="-457.868" y="282.693" transform="matrix(0.9773 0.2118 -0.2118 0.9773 51.4284 100.9505)" fill="#F7F9F8" width="24.748" height="15.672"/>
						
							<rect x="-462.204" y="303.953" transform="matrix(0.9773 0.2119 -0.2119 0.9773 55.8001 101.2448)" fill="#F7F9F8" width="35.47" height="14.022"/>
						
							<rect x="-434.049" y="266.585" transform="matrix(0.9773 0.2118 -0.2118 0.9773 48.2789 96.4811)" fill="#F7F9F8" width="15.674" height="14.021"/>
						
							<rect x="-428.742" y="287.998" transform="matrix(0.9773 0.2118 -0.2118 0.9773 53.1113 95.8663)" fill="#F7F9F8" width="15.671" height="15.671"/>
						
							<rect x="-422.465" y="310.441" transform="matrix(0.9773 0.2118 -0.2118 0.9773 57.8269 95.0145)" fill="#F7F9F8" width="15.673" height="14.023"/>
						
							<rect x="-403.1" y="314.561" transform="matrix(0.9773 0.2118 -0.2118 0.9773 59.1323 91.099)" fill="#F7F9F8" width="14.849" height="14.024"/>
						
							<rect x="-382.948" y="318.917" transform="matrix(0.9773 0.2118 -0.2118 0.9773 60.5151 86.936)" fill="#F7F9F8" width="14.848" height="14.023"/>
						
							<rect x="-363.554" y="323.184" transform="matrix(0.9773 0.2117 -0.2117 0.9773 61.8335 82.8829)" fill="#F7F9F8" width="14.846" height="14.017"/>
						
							<rect x="-343.424" y="327.508" transform="matrix(0.9773 0.2118 -0.2118 0.9773 63.2235 78.7464)" fill="#F7F9F8" width="14.848" height="14.023"/>
						
							<rect x="-324.89" y="331.614" transform="matrix(0.9773 0.2117 -0.2117 0.9773 64.4975 74.791)" fill="#F7F9F8" width="15.671" height="14.021"/>
						
							<rect x="-304.977" y="338.061" transform="matrix(0.9773 0.2118 -0.2118 0.9773 66.5684 68.6654)" fill="#F7F9F8" width="35.467" height="14.021"/>
						
							<rect x="-408.566" y="292.305" transform="matrix(0.9773 0.2118 -0.2118 0.9773 54.4688 91.7706)" fill="#F7F9F8" width="14.849" height="15.671"/>
						
							<rect x="-389.21" y="296.617" transform="matrix(0.9773 0.2117 -0.2117 0.9773 55.8116 87.6441)" fill="#F7F9F8" width="15.669" height="15.671"/>
						
							<rect x="-369.047" y="300.897" transform="matrix(0.9773 0.2117 -0.2117 0.9773 57.1656 83.5594)" fill="#F7F9F8" width="14.846" height="15.672"/>
						
							<rect x="-349.742" y="305.12" transform="matrix(0.9773 0.2119 -0.2119 0.9773 58.5498 79.5541)" fill="#F7F9F8" width="15.674" height="15.672"/>
						
							<rect x="-329.555" y="309.435" transform="matrix(0.9773 0.2118 -0.2118 0.9773 59.8929 75.4301)" fill="#F7F9F8" width="14.848" height="15.672"/>
						<polygon fill="#F7F9F8" points="-298.478,330.877 -311.69,327.558 -308.371,312.24 -295.158,315.56 						"/>
						<polygon fill="#F7F9F8" points="-269.454,337.159 -291.53,331.921 -288.213,316.608 -266.137,321.846 						"/>
						
							<rect x="-413.892" y="270.953" transform="matrix(0.9773 0.2118 -0.2118 0.9773 49.6581 92.3029)" fill="#F7F9F8" width="15.668" height="14.023"/>
						
							<rect x="-394.52" y="275.083" transform="matrix(0.9773 0.2117 -0.2117 0.9773 50.9486 88.3499)" fill="#F7F9F8" width="14.843" height="14.019"/>
						
							<rect x="-374.375" y="279.438" transform="matrix(0.9773 0.2118 -0.2118 0.9773 52.3489 84.2272)" fill="#F7F9F8" width="14.848" height="14.023"/>
						
							<rect x="-355.008" y="283.654" transform="matrix(0.9773 0.2117 -0.2117 0.9773 53.658 80.1763)" fill="#F7F9F8" width="14.848" height="14.021"/>
						
							<rect x="-334.881" y="287.982" transform="matrix(0.9773 0.2118 -0.2118 0.9773 55.0551 76.0554)" fill="#F7F9F8" width="14.848" height="14.024"/>
						
							<rect x="-316.346" y="292.086" transform="matrix(0.9773 0.2118 -0.2118 0.9773 56.3542 72.1358)" fill="#F7F9F8" width="15.671" height="14.022"/>
						
							<rect x="-296.386" y="298.585" transform="matrix(0.9773 0.2117 -0.2117 0.9773 58.3804 65.9204)" fill="#F7F9F8" width="35.463" height="14.017"/>
						
							<rect x="-466.123" y="320.36" transform="matrix(0.9773 0.2117 -0.2117 0.9773 59.0864 104.5545)" fill="#F7F9F8" width="14.843" height="15.673"/>
						
							<rect x="-446.812" y="324.6" transform="matrix(0.9773 0.2118 -0.2118 0.9773 60.448 100.511)" fill="#F7F9F8" width="15.673" height="15.671"/>
						
							<rect x="-427.555" y="337.451" transform="matrix(0.9773 0.2118 -0.2118 0.9773 64.5174 88.2571)" fill="#F7F9F8" width="95.68" height="15.673"/>
						
							<rect x="-329.105" y="350.109" transform="matrix(0.9773 0.2118 -0.2118 0.9773 68.5309 76.1751)" fill="#F7F9F8" width="15.673" height="15.67"/>
						<polygon fill="#F7F9F8" points="-295.128,371.619 -312.548,368.298 -309.227,352.98 -291.807,356.301 						"/>
						
							<rect x="-288.773" y="358.775" transform="matrix(0.9773 0.2119 -0.2119 0.9773 71.2957 67.9429)" fill="#F7F9F8" width="14.849" height="15.672"/>
						
							<rect x="-432.392" y="251.317" transform="matrix(0.9773 0.2118 -0.2118 0.9773 44.6483 95.7433)" fill="#F7F9F8" width="15.673" height="9.899"/>
						
							<rect x="-412.233" y="255.696" transform="matrix(0.9773 0.2119 -0.2119 0.9773 46.0438 91.6)" fill="#F7F9F8" width="15.673" height="9.9"/>
						
							<rect x="-392.868" y="259.815" transform="matrix(0.9773 0.2117 -0.2117 0.9773 47.3138 87.5981)" fill="#F7F9F8" width="14.845" height="9.9"/>
						
							<rect x="-372.739" y="264.123" transform="matrix(0.9773 0.2118 -0.2118 0.9773 48.702 83.4789)" fill="#F7F9F8" width="14.847" height="9.9"/>
						
							<rect x="-353.345" y="268.402" transform="matrix(0.9773 0.2117 -0.2117 0.9773 50.0282 79.4273)" fill="#F7F9F8" width="14.847" height="9.899"/>
						
							<rect x="-333.198" y="272.755" transform="matrix(0.9773 0.2117 -0.2117 0.9773 51.4105 75.269)" fill="#F7F9F8" width="14.845" height="9.898"/>
						
							<rect x="-314.691" y="276.817" transform="matrix(0.9773 0.2118 -0.2118 0.9773 52.7168 71.3848)" fill="#F7F9F8" width="15.672" height="9.899"/>
						
							<rect x="-294.528" y="281.198" transform="matrix(0.9773 0.2118 -0.2118 0.9773 54.0981 67.2076)" fill="#F7F9F8" width="15.671" height="9.898"/>
						
							<rect x="-274.367" y="285.476" transform="matrix(0.9773 0.2118 -0.2118 0.9773 55.463 63.1373)" fill="#F7F9F8" width="14.849" height="9.898"/>
					</g>
					
						<rect x="-416.41" y="239.68" transform="matrix(0.9773 0.2118 -0.2118 0.9773 43.6194 79.5685)" fill="#DCE4E8" width="133.62" height="7.423"/>
				</g>
			</g>
			<g id="mouse04-1">
				<path fill="#9E3023" d="M-125.212,424.385c-0.004-0.001-0.008-0.001-0.012-0.002c-9.819-2.115-19.5,4.104-21.658,13.906
					c-0.01,0.044-0.026,0.087-0.036,0.131l-0.036,0.162l-7.219,33.392c-0.019,0.087-0.029,0.281-0.056,0.364l-0.357,1.758h0.003
					c-2.093,9.899,4.186,19.394,13.984,21.505c9.844,2.128,19.556-4.206,21.664-13.949l7.682-35.562
					C-109.124,436.243-115.367,426.513-125.212,424.385z"/>
				<g>
					<g>
						<path fill="#DCE4E8" d="M-142.757,435.814c-0.01,0.043-0.027,0.087-0.037,0.133l-0.035,0.16l-7.219,33.393
							c-0.019,0.088-0.029,0.177-0.056,0.261l-0.357,1.652h0.003c-2.093,10.044,4.186,19.49,13.983,21.604l15.375-71.104
							C-130.919,419.793-140.598,426.013-142.757,435.814z"/>
						<path fill="#F7F9F8" d="M-121.087,421.91c-0.004-0.001-0.008-0.001-0.012-0.002l-15.375,71.104
							c9.844,2.132,19.556-4.146,21.664-13.896l-0.093-0.021l0,0l0,0l0.093,0.021l7.683-35.532
							C-105,433.741-111.242,424.038-121.087,421.91z"/>
					</g>
				</g>
			</g>
		</g>
		<g id="deskright">
			<g>
				<path fill="#982E21" d="M2024.706,694.257c0,30.705-25.121,55.827-55.825,55.827H1105.11c-30.704,0-57.378-26.673-57.378-57.377
					V219.728c0-30.705,25.114-55.828,55.819-55.828h865.321c30.704,0,55.824,25.123,55.824,55.828L2024.706,694.257
					L2024.706,694.257z"/>
				<path fill="#BE3D2F" d="M2028.584,690.38c0,30.704-25.124,55.827-55.828,55.827h-865.318c-30.697,0-55.82-25.123-55.82-55.827
					V215.85c0-30.705,25.123-55.827,55.82-55.827h865.318c30.704,0,55.828,25.122,55.828,55.827V690.38z"/>
			</g>
			<g>
				<path fill="#586273" d="M1501.825,184.246L1501.825,184.246C1501.854,184.292,1501.825,184.246,1501.825,184.246z"/>
				<path fill="#9E3023" d="M1544.773,196.214l-258.365,171.62c0,0-6.188,4.108-2.078,10.292c4.109,6.185,10.293,2.077,10.293,2.077
					l18.553-12.324c0,0-6.184,4.107-2.074,10.292c4.106,6.184,85.354,128.496,85.354,128.496c4.285,6.449,13.678,7.75,20.127,3.467
					l209.579-139.213c6.452-4.286,8.207-12.99,3.923-19.441c0,0-65.111-98.023-81.702-123l0,0c-0.083-0.125-0.64-0.962-3.65-5.497
					c-4.104-6.184-10.292-2.076-10.292-2.076l18.559-12.324c0,0,6.186-4.108,2.071-10.292
					C1550.957,192.105,1544.773,196.214,1544.773,196.214z"/>
				<path fill="#DCE4E8" d="M1633.836,347.014c4.285,6.451,2.529,15.155-3.923,19.441l-209.578,139.211
					c-6.449,4.285-15.843,2.984-20.129-3.465c0,0-81.245-122.312-85.353-128.497c-4.108-6.185,2.07-10.292,2.07-10.292
					l221.266-146.973c0,0,6.185-4.108,10.293,2.076C1552.59,224.702,1633.836,347.014,1633.836,347.014z"/>
				<path fill="#F7F9F8" d="M1556.742,204.117l-258.365,171.621c0,0-6.186,4.108-10.293-2.077
					c-4.105-6.184,2.077-10.292,2.077-10.292l258.366-171.62c0,0,6.184-4.108,10.292,2.076
					C1562.927,200.009,1556.742,204.117,1556.742,204.117z"/>
				<path opacity="0.3" fill="#B7BFC7" enable-background="new    " d="M1552.133,224.015l-173.255,246.038
					c0,0-59.919-90.165-64.024-96.346c-4.104-6.185,2.076-10.292,2.076-10.292l221.266-146.973c0,0,6.185-4.108,10.293,2.076
					C1552.59,224.702,1552.133,224.015,1552.133,224.015z"/>
				
					<rect x="1468.734" y="391.44" transform="matrix(0.833 -0.5533 0.5533 0.833 24.6223 902.3995)" fill="#F7F9F8" width="76.727" height="37.948"/>
				<g id="keyboard3">
					
						<rect x="1362.322" y="361.899" transform="matrix(0.833 -0.5533 0.5533 0.833 25.7838 819.12)" fill="#F7F9F8" width="14.85" height="9.901"/>
					
						<rect x="1372.171" y="374.717" transform="matrix(0.833 -0.5533 0.5533 0.833 19.2004 827.0677)" fill="#F7F9F8" width="14.853" height="14.025"/>
					
						<rect x="1382.753" y="388.325" transform="matrix(0.833 -0.5533 0.5533 0.833 13.8042 838.0552)" fill="#F7F9F8" width="24.749" height="15.672"/>
					
						<rect x="1392.826" y="402.718" transform="matrix(0.833 -0.5533 0.5533 0.833 8.8832 848.8895)" fill="#F7F9F8" width="35.475" height="14.025"/>
					
						<rect x="1388.571" y="363.465" transform="matrix(0.833 -0.5533 0.5533 0.833 28.2308 834.4814)" fill="#F7F9F8" width="15.674" height="14.024"/>
					
						<rect x="1408.24" y="374.39" transform="matrix(0.833 -0.5533 0.5533 0.833 24.9993 847.2783)" fill="#F7F9F8" width="15.675" height="15.673"/>
					
						<rect x="1428.134" y="385.785" transform="matrix(0.833 -0.5532 0.5532 0.833 22.4688 860.0381)" fill="#F7F9F8" width="15.676" height="14.024"/>
					
						<rect x="1444.695" y="375.059" transform="matrix(0.833 -0.5533 0.5533 0.833 31.1233 867.25)" fill="#F7F9F8" width="14.849" height="14.024"/>
					
						<rect x="1461.888" y="363.683" transform="matrix(0.833 -0.5533 0.5533 0.833 40.3024 874.9018)" fill="#F7F9F8" width="14.849" height="14.024"/>
					
						<rect x="1478.395" y="352.768" transform="matrix(0.833 -0.5533 0.5533 0.833 49.0851 882.173)" fill="#F7F9F8" width="14.849" height="14.024"/>
					
						<rect x="1495.511" y="341.195" transform="matrix(0.833 -0.5533 0.5533 0.833 58.3265 889.6576)" fill="#F7F9F8" width="14.85" height="14.024"/>
					
						<rect x="1511.279" y="330.553" transform="matrix(0.833 -0.5533 0.5533 0.833 66.9342 896.8788)" fill="#F7F9F8" width="15.678" height="14.024"/>
					
						<rect x="1526.794" y="313.643" transform="matrix(0.833 -0.5533 0.5533 0.833 80.5364 908.1208)" fill="#F7F9F8" width="35.478" height="14.024"/>
					
						<rect x="1425.522" y="363.292" transform="matrix(0.833 -0.5533 0.5533 0.833 33.9745 854.8144)" fill="#F7F9F8" width="14.849" height="15.676"/>
					
						<rect x="1441.982" y="352.212" transform="matrix(0.833 -0.5533 0.5533 0.833 42.9283 862.3149)" fill="#F7F9F8" width="15.672" height="15.676"/>
					
						<rect x="1459.198" y="340.945" transform="matrix(0.833 -0.5533 0.5533 0.833 51.9685 869.7286)" fill="#F7F9F8" width="14.852" height="15.675"/>
					
						<rect x="1475.569" y="329.624" transform="matrix(0.833 -0.5533 0.5533 0.833 61.0322 877.1138)" fill="#F7F9F8" width="15.673" height="15.673"/>
					
						<rect x="1492.802" y="318.401" transform="matrix(0.833 -0.5533 0.5533 0.833 70.0492 884.5421)" fill="#F7F9F8" width="14.849" height="15.675"/>
					
						<rect x="1509.219" y="307.207" transform="matrix(0.833 -0.5533 0.5533 0.833 79.0548 891.9879)" fill="#F7F9F8" width="15.673" height="15.673"/>
					
						<rect x="1525.697" y="293.421" transform="matrix(0.833 -0.5533 0.5533 0.833 90.1968 901.3254)" fill="#F7F9F8" width="24.749" height="15.676"/>
					
						<rect x="1405.765" y="352.106" transform="matrix(0.833 -0.5533 0.5533 0.833 37.3914 842.1091)" fill="#F7F9F8" width="15.673" height="14.024"/>
					
						<rect x="1422.385" y="341.535" transform="matrix(0.833 -0.5533 0.5533 0.833 45.9594 849.3451)" fill="#F7F9F8" width="14.849" height="14.024"/>
					
						<rect x="1439.554" y="330.106" transform="matrix(0.833 -0.5533 0.5533 0.833 55.1318 856.8859)" fill="#F7F9F8" width="14.85" height="14.024"/>
					
						<rect x="1455.982" y="318.971" transform="matrix(0.833 -0.5533 0.5533 0.833 64.0508 864.1534)" fill="#F7F9F8" width="14.85" height="14.024"/>
					
						<rect x="1473.194" y="307.647" transform="matrix(0.833 -0.5533 0.5533 0.833 73.1963 871.7985)" fill="#F7F9F8" width="14.849" height="14.024"/>
					
						<rect x="1488.91" y="296.874" transform="matrix(0.833 -0.5533 0.5533 0.833 81.8367 878.8878)" fill="#F7F9F8" width="15.673" height="14.024"/>
					
						<rect x="1504.446" y="280.021" transform="matrix(0.833 -0.5533 0.5533 0.833 95.4159 890.1637)" fill="#F7F9F8" width="35.481" height="14.024"/>
					
						<rect x="1405.514" y="424.131" transform="matrix(0.833 -0.5533 0.5533 0.833 -3.0443 853.8535)" fill="#F7F9F8" width="14.85" height="15.678"/>
					
						<rect x="1421.873" y="412.738" transform="matrix(0.833 -0.5533 0.5533 0.833 6.0773 861.2858)" fill="#F7F9F8" width="15.673" height="15.676"/>
					
						<rect x="1432.404" y="379.317" transform="matrix(0.833 -0.5533 0.5533 0.833 33.011 883.6718)" fill="#F7F9F8" width="95.702" height="15.677"/>
					
						<rect x="1522.218" y="346.175" transform="matrix(0.833 -0.5533 0.5533 0.833 59.6656 905.6881)" fill="#F7F9F8" width="15.673" height="15.673"/>
					
						<rect x="1539.458" y="334.924" transform="matrix(0.833 -0.5533 0.5533 0.833 68.7593 913.3221)" fill="#F7F9F8" width="15.672" height="15.676"/>
					
						<rect x="1556.656" y="323.617" transform="matrix(0.833 -0.5533 0.5533 0.833 77.8275 920.7434)" fill="#F7F9F8" width="14.849" height="15.673"/>
					
						<rect x="1378.836" y="350.974" transform="matrix(0.833 -0.5533 0.5533 0.833 34.6528 826.6534)" fill="#F7F9F8" width="15.675" height="9.901"/>
					
						<rect x="1395.856" y="339.135" transform="matrix(0.833 -0.5533 0.5533 0.833 44.0493 834.1046)" fill="#F7F9F8" width="15.674" height="9.901"/>
					
						<rect x="1412.457" y="328.518" transform="matrix(0.833 -0.5533 0.5533 0.833 52.6399 841.3211)" fill="#F7F9F8" width="14.85" height="9.9"/>
					
						<rect x="1429.688" y="317.252" transform="matrix(0.833 -0.5533 0.5533 0.833 61.7463 848.9603)" fill="#F7F9F8" width="14.848" height="9.9"/>
					
						<rect x="1446.22" y="306.398" transform="matrix(0.833 -0.5533 0.5533 0.833 70.5333 856.346)" fill="#F7F9F8" width="14.851" height="9.9"/>
					
						<rect x="1463.365" y="294.903" transform="matrix(0.833 -0.5533 0.5533 0.833 79.7312 863.8484)" fill="#F7F9F8" width="14.849" height="9.901"/>
					
						<rect x="1479.137" y="284.26" transform="matrix(0.833 -0.5533 0.5533 0.833 88.3148 871.0062)" fill="#F7F9F8" width="15.675" height="9.9"/>
					
						<rect x="1496.245" y="272.679" transform="matrix(0.833 -0.5533 0.5533 0.833 97.5898 878.5609)" fill="#F7F9F8" width="15.673" height="9.898"/>
					
						<rect x="1513.556" y="261.643" transform="matrix(0.833 -0.5533 0.5533 0.833 106.5159 886.064)" fill="#F7F9F8" width="14.849" height="9.901"/>
				</g>
				
					<rect x="1362.799" y="289.333" transform="matrix(0.833 -0.5533 0.5533 0.833 76.626 839.9437)" fill="#DCE4E8" width="133.654" height="7.425"/>
			</g>
			<g>
				<g>
					<g>
						<g>
							<g>
								<path fill="#9E3023" d="M1091.779,263.061c-4.256,0.67-7.189,4.7-6.521,8.956l23.162,147.03
									c0.67,4.256,4.701,7.19,8.957,6.521l50.301-7.926l-25.6-162.511L1091.779,263.061z"/>
							</g>
						</g>
						<g>
							<g>
								<path fill="#9E3023" d="M1192.379,247.213l-50.299,7.924l25.6,162.506l50.299-7.924c4.264-0.67,7.189-4.701,6.521-8.957
									l-23.162-147.031C1200.666,249.475,1196.635,246.543,1192.379,247.213z"/>
							</g>
						</g>
					</g>
					<g>
						<g>
							<path fill="#586273" d="M1094.779,260.061c-4.256,0.67-7.189,4.7-6.521,8.956l23.162,147.03
								c0.67,4.256,4.701,7.19,8.957,6.521l50.301-7.926l-25.6-162.511L1094.779,260.061z"/>
						</g>
					</g>
					<g opacity="0.2">
						<g>
							<path fill="#DCE4E8" d="M1094.779,260.061c-4.256,0.67-7.189,4.7-6.521,8.956l23.162,147.03
								c0.67,4.256,4.701,7.19,8.957,6.521l50.301-7.926l-25.6-162.511L1094.779,260.061z"/>
						</g>
					</g>
					<g>
						<g>
							<path fill="#586273" d="M1195.379,244.213l-50.299,7.924l25.6,162.506l50.299-7.924c4.264-0.67,7.189-4.701,6.521-8.957
								l-23.162-147.031C1203.666,246.475,1199.635,243.543,1195.379,244.213z"/>
						</g>
					</g>
				</g>
				<g>
					<g>
						<polygon fill="#F7F9F8" points="1122.42,410.348 1122.424,410.35 1215.277,395.723 1215.279,395.719 1193.338,256.432 
							1193.336,256.431 1100.48,271.059 1100.479,271.061 						"/>
					</g>
				</g>
				<g>
					<path fill="#464E5C" d="M1142.793,237.625c-6.41,1.01-10.787,7.026-9.777,13.438c1.018,6.409,7.023,10.788,13.438,9.778
						c6.41-1.01,10.787-7.025,9.774-13.436C1155.219,240.994,1149.205,236.615,1142.793,237.625z M1145.537,255.039
						c-3.205,0.504-6.215-1.686-6.719-4.89c-0.506-3.205,1.686-6.214,4.889-6.72c3.207-0.504,6.213,1.686,6.719,4.891
						C1150.93,251.525,1148.742,254.533,1145.537,255.039z"/>
				</g>
				<g>
					<g>
						<g>
							<g>
								
									<rect x="1128.838" y="389.474" transform="matrix(0.9878 -0.1556 0.1556 0.9878 -46.6946 186.3693)" fill="#DCE4E8" width="76.369" height="3.913"/>
							</g>
						</g>
					</g>
					<g>
						<g>
							<g>
								
									<rect x="1127.006" y="377.875" transform="matrix(0.9878 -0.1556 0.1556 0.9878 -44.9086 185.9205)" fill="#DCE4E8" width="76.372" height="3.914"/>
							</g>
						</g>
					</g>
					<g>
						<g>
							<g>
								
									<rect x="1125.177" y="366.268" transform="matrix(0.9878 -0.1556 0.1556 0.9878 -43.1271 185.5064)" fill="#DCE4E8" width="76.367" height="3.919"/>
							</g>
						</g>
					</g>
					<g>
						<g>
							<g>
								
									<rect x="1123.351" y="354.65" transform="matrix(0.9878 -0.1556 0.1556 0.9878 -41.3411 185.0791)" fill="#DCE4E8" width="76.371" height="3.919"/>
							</g>
						</g>
					</g>
					<g>
						<g>
							<g>
								
									<rect x="1121.52" y="343.045" transform="matrix(0.9878 -0.1556 0.1556 0.9878 -39.558 184.6557)" fill="#DCE4E8" width="76.373" height="3.917"/>
							</g>
						</g>
					</g>
					<g>
						<g>
							<g>
								
									<rect x="1119.692" y="331.446" transform="matrix(0.9878 -0.1556 0.1556 0.9878 -37.7753 184.2287)" fill="#DCE4E8" width="76.367" height="3.916"/>
							</g>
						</g>
					</g>
					<g>
						<g>
							<g>
								
									<rect x="1117.862" y="319.829" transform="matrix(0.9878 -0.1556 0.1556 0.9878 -35.9902 183.806)" fill="#DCE4E8" width="76.372" height="3.917"/>
							</g>
						</g>
					</g>
					<g>
						<g>
							<g>
								
									<rect x="1116.04" y="308.197" transform="matrix(0.9878 -0.1556 0.1556 0.9878 -34.2028 183.3808)" fill="#DCE4E8" width="76.372" height="3.919"/>
							</g>
						</g>
					</g>
					<g>
						<g>
							<g>
								
									<rect x="1114.207" y="296.616" transform="matrix(0.9878 -0.1556 0.1556 0.9878 -32.4231 182.9568)" fill="#DCE4E8" width="76.371" height="3.918"/>
							</g>
						</g>
					</g>
					<g>
						<g>
							<g>
								
									<rect x="1112.379" y="285.019" transform="matrix(0.9878 -0.1556 0.1556 0.9878 -30.64 182.5236)" fill="#DCE4E8" width="76.371" height="3.917"/>
							</g>
						</g>
					</g>
					<g>
						<g>
							<g>
								
									<rect x="1110.553" y="273.389" transform="matrix(0.9878 -0.1556 0.1556 0.9878 -28.8531 182.1054)" fill="#DCE4E8" width="76.371" height="3.916"/>
							</g>
						</g>
					</g>
				</g>
				<g>
					<g>
						<path fill="#464E5C" d="M1175.164,254.336c0.672,4.256-2.264,8.287-6.518,8.957l-42.562,6.705
							c-4.256,0.67-8.287-2.264-8.957-6.52l-0.305-1.936c-0.67-4.256,2.264-8.285,6.52-8.955l42.562-6.705
							c4.254-0.67,8.285,2.262,8.955,6.518L1175.164,254.336z"/>
					</g>
				</g>
			</g>
			<g id="mouse04-2">
				<path fill="#9E3023" d="M1773.521,256.239c-0.009-0.001-0.013-0.001-0.017-0.002c-9.815-2.115-19.5,4.104-21.656,13.906
					c-0.012,0.044-0.021,0.087-0.032,0.132l-0.033,0.161l-7.223,33.392c-0.021,0.087-0.025,0.281-0.061,0.364l-0.354,1.758h0.006
					c-2.098,9.898,4.187,19.388,13.979,21.505c9.846,2.128,19.562-4.206,21.664-13.955l7.684-35.559
					C1789.61,268.098,1783.367,258.367,1773.521,256.239z"/>
				<g>
					<g>
						<path fill="#DCE4E8" d="M1755.979,267.668c-0.011,0.043-0.021,0.087-0.031,0.131l-0.036,0.162l-7.224,33.393
							c-0.02,0.088-0.021,0.177-0.057,0.261l-0.357,1.652h0.009c-2.099,10.044,4.188,19.49,13.979,21.607l15.374-71.112
							C1767.814,251.647,1758.136,257.867,1755.979,267.668z"/>
						<path fill="#F7F9F8" d="M1777.646,253.764c-0.009-0.003-0.014-0.003-0.018-0.004l-15.374,71.112
							c9.845,2.129,19.562-4.153,21.663-13.901l-0.093-0.021c-0.001,0-0.001,0-0.001,0s0,0,0.001,0l0.093,0.021l7.684-35.531
							C1793.735,265.595,1787.492,255.892,1777.646,253.764z"/>
					</g>
				</g>
			</g>
		</g>
		<g id="desk">
			<g>
				<g id="mouse04">
					<path fill="#BE3D2F" d="M942.637,618.324c-0.004-0.001-0.008-0.001-0.012-0.002c-9.819-2.115-19.5,4.104-21.658,13.9
						c-0.01,0.045-0.021,0.092-0.036,0.137l-0.034,0.156l-7.22,33.396c-0.019,0.087-0.023,0.28-0.057,0.364l-0.356,1.758h0.003
						c-2.093,9.896,4.188,19.388,13.983,21.505c9.845,2.128,19.557-4.206,21.664-13.955l7.682-35.561
						C958.725,630.183,952.481,620.452,942.637,618.324z"/>
					<g>
						<g>
							<path fill="#DCE4E8" d="M925.092,629.754c-0.01,0.043-0.021,0.087-0.036,0.131l-0.034,0.162l-7.221,33.396
								c-0.019,0.087-0.022,0.177-0.056,0.261l-0.357,1.646h0.004c-2.094,10.052,4.188,19.492,13.983,21.609l15.374-71.112
								C936.93,613.732,927.25,619.952,925.092,629.754z"/>
							<path fill="#F7F9F8" d="M946.762,615.849c-0.004,0-0.009,0-0.013-0.001l-15.374,71.112
								c9.844,2.129,19.556-4.153,21.664-13.902l-0.095-0.021l0,0l0,0l0.095,0.021l7.682-35.524
								C962.849,627.681,956.606,617.979,946.762,615.849z"/>
						</g>
					</g>
				</g>
				<g>
					<path fill="#BE3D2F" d="M708.382,211.103c1.513-6.452,7.969-10.459,14.421-8.948l57.122,13.374
						c6.452,1.511,10.46,7.966,8.948,14.419l-5.798,55.472c-1.511,6.453-7.967,10.46-14.419,8.949l-70.755-16.565
						c-6.452-1.511-10.459-7.966-8.948-14.419L708.382,211.103z"/>
					<path fill="#656D78" d="M715.627,207.565c1.512-6.453,7.968-10.459,14.42-8.948l57.122,13.374
						c6.453,1.511,10.46,7.966,8.948,14.419l-5.798,55.472c-1.516,6.453-7.966,10.459-14.419,8.948l-70.754-16.565
						c-6.452-1.511-10.459-7.966-8.949-14.419L715.627,207.565z"/>
					<path fill="#AAB2BD" d="M720.82,208.781c1.512-6.453,7.968-10.459,14.42-8.949l46.086,10.79
						c6.454,1.511,10.46,7.967,8.949,14.419l-2.735,11.685c-1.511,6.453-7.966,10.459-14.419,8.948l-46.087-10.79
						c-6.453-1.511-10.46-7.967-8.949-14.42L720.82,208.781z"/>
					
						<radialGradient id="imaclight_1_" cx="767.834" cy="2192.0195" r="262.5483" gradientTransform="matrix(0.9773 0.2118 -0.0543 0.2503 109.2533 -439.9279)" gradientUnits="userSpaceOnUse">
						<stop  offset="0.103" style="stop-color:#FFFFFF;stop-opacity:0.4"/>
						<stop  offset="0.7955" style="stop-color:#FFFFFF;stop-opacity:0.0565"/>
						<stop  offset="0.9095" style="stop-color:#FFFFFF;stop-opacity:0"/>
					</radialGradient>
					<polygon id="imaclight" fill="url(#imaclight_1_)" points="1051.262,402.466 473.101,271.059 528.924,172.674 1046.27,293.796 
											"/>
					
						<rect x="482.493" y="240.897" transform="matrix(-0.9737 -0.228 0.228 -0.9737 1418.4653 674.9918)" fill="#E6E9ED" width="531.453" height="29.34"/>
					<path fill="#656D78" d="M1010.22,301.87c0,0-107.047-42.864-257.312-78.046c-150.271-35.182-260.027-43.077-260.027-43.077
						L1010.22,301.87z"/>
				</g>
				<g>
					<g>
						<g>
							
								<rect x="512.784" y="503.601" transform="matrix(-0.9833 -0.1821 0.1821 -0.9833 1185.5721 1203.9808)" fill="#BE3D2F" width="270.548" height="87.925"/>
						</g>
					</g>
					<g>
						<g>
							
								<rect x="516.667" y="500.938" transform="matrix(0.9833 0.1821 -0.1821 0.9833 110.1241 -109.6055)" fill="#E6E9ED" width="270.548" height="87.926"/>
						</g>
					</g>
					<g id="keyboard">
						
							<rect x="519.969" y="545.874" transform="matrix(0.9833 0.1821 -0.1821 0.9833 109.4338 -86.6721)" fill="#CCD1D9" width="13.526" height="13.529"/>
						
							<rect x="523.664" y="525.926" transform="matrix(0.9833 0.182 -0.182 0.9833 105.8271 -87.6537)" fill="#CCD1D9" width="13.525" height="13.528"/>
						
							<rect x="527.32" y="506.02" transform="matrix(0.9833 0.182 -0.182 0.9833 102.2679 -88.6545)" fill="#CCD1D9" width="13.53" height="13.526"/>
						
							<rect x="531.082" y="486.022" transform="matrix(0.9833 0.1821 -0.1821 0.9833 98.7132 -89.6907)" fill="#CCD1D9" width="13.527" height="13.525"/>
						
							<rect x="539.89" y="549.59" transform="matrix(0.9833 0.1821 -0.1821 0.9833 110.4552 -90.2457)" fill="#CCD1D9" width="13.53" height="13.528"/>
						
							<rect x="543.662" y="529.584" transform="matrix(0.9833 0.1821 -0.1821 0.9833 106.8749 -91.2672)" fill="#CCD1D9" width="13.53" height="13.526"/>
						
							<rect x="547.407" y="509.596" transform="matrix(0.9833 0.1821 -0.1821 0.9833 103.3058 -92.2893)" fill="#CCD1D9" width="13.529" height="13.527"/>
						
							<rect x="550.915" y="489.786" transform="matrix(0.9833 0.1821 -0.1821 0.9833 99.7721 -93.2713)" fill="#CCD1D9" width="13.527" height="13.527"/>
						
							<rect x="559.93" y="553.22" transform="matrix(0.9833 0.1821 -0.1821 0.9833 111.4686 -93.8462)" fill="#CCD1D9" width="13.528" height="13.528"/>
						
							<rect x="563.569" y="533.305" transform="matrix(0.9833 0.182 -0.182 0.9833 107.8287 -94.7885)" fill="#CCD1D9" width="13.526" height="13.528"/>
						
							<rect x="567.285" y="513.345" transform="matrix(0.9833 0.1819 -0.1819 0.9833 104.1861 -95.7437)" fill="#CCD1D9" width="13.523" height="13.523"/>
						
							<rect x="570.949" y="493.417" transform="matrix(0.9833 0.182 -0.182 0.9833 100.6994 -96.8042)" fill="#CCD1D9" width="13.525" height="13.525"/>
						
							<rect x="579.162" y="564.324" transform="matrix(0.9833 0.182 -0.182 0.9833 114.4017 -104.4855)" fill="#CCD1D9" width="94.684" height="13.532"/>
						
							<rect x="583.526" y="536.995" transform="matrix(0.9833 0.182 -0.182 0.9833 108.8254 -98.353)" fill="#CCD1D9" width="13.527" height="13.528"/>
						
							<rect x="587.203" y="517.058" transform="matrix(0.9833 0.182 -0.182 0.9833 105.2661 -99.3616)" fill="#CCD1D9" width="13.526" height="13.526"/>
						
							<rect x="590.923" y="497.072" transform="matrix(0.9833 0.1821 -0.1821 0.9833 101.7605 -100.4302)" fill="#CCD1D9" width="13.528" height="13.526"/>
						
							<rect x="603.462" y="540.7" transform="matrix(0.9833 0.1821 -0.1821 0.9833 109.8705 -101.9485)" fill="#CCD1D9" width="13.528" height="13.529"/>
						
							<rect x="607.162" y="520.746" transform="matrix(0.9833 0.1822 -0.1822 0.9833 106.3688 -103.0116)" fill="#CCD1D9" width="13.525" height="13.527"/>
						
							<rect x="610.858" y="500.796" transform="matrix(0.9833 0.1819 -0.1819 0.9833 102.6417 -103.889)" fill="#CCD1D9" width="13.527" height="13.523"/>
						
							<rect x="623.412" y="544.396" transform="matrix(0.9833 0.1819 -0.1819 0.9833 110.7624 -105.4285)" fill="#CCD1D9" width="13.524" height="13.524"/>
						
							<rect x="627.059" y="524.501" transform="matrix(0.9833 0.1819 -0.1819 0.9833 107.2332 -106.4474)" fill="#CCD1D9" width="13.527" height="13.527"/>
						
							<rect x="630.802" y="504.517" transform="matrix(0.9833 0.1819 -0.1819 0.9833 103.6236 -107.431)" fill="#CCD1D9" width="13.525" height="13.523"/>
						
							<rect x="643.466" y="548.005" transform="matrix(0.9833 0.1819 -0.1819 0.9833 111.7621 -109.0229)" fill="#CCD1D9" width="13.523" height="13.526"/>
						
							<rect x="647.062" y="528.134" transform="matrix(0.9833 0.1821 -0.1821 0.9833 108.3196 -110.1035)" fill="#CCD1D9" width="13.527" height="13.528"/>
						
							<rect x="650.748" y="508.211" transform="matrix(0.9833 0.182 -0.182 0.9833 104.7091 -111.0685)" fill="#CCD1D9" width="13.527" height="13.526"/>
						
							<rect x="663.413" y="551.676" transform="matrix(0.9833 0.1822 -0.1822 0.9833 112.9835 -112.7736)" fill="#CCD1D9" width="13.526" height="13.529"/>
						
							<rect x="667.011" y="531.823" transform="matrix(0.9833 0.1821 -0.1821 0.9833 109.325 -113.6741)" fill="#CCD1D9" width="13.527" height="13.529"/>
						
							<rect x="670.706" y="511.898" transform="matrix(0.9833 0.1821 -0.1821 0.9833 105.7953 -114.7131)" fill="#CCD1D9" width="13.528" height="13.527"/>
						
							<rect x="679.575" y="575.418" transform="matrix(0.9833 0.1822 -0.1822 0.9833 117.5312 -115.2808)" fill="#CCD1D9" width="13.526" height="13.532"/>
						
							<rect x="683.268" y="555.447" transform="matrix(0.9833 0.1822 -0.1822 0.9833 113.9941 -116.3209)" fill="#CCD1D9" width="13.527" height="13.527"/>
						
							<rect x="686.995" y="535.516" transform="matrix(0.9833 0.1819 -0.1819 0.9833 110.2161 -117.1494)" fill="#CCD1D9" width="13.523" height="13.523"/>
						
							<rect x="690.783" y="515.451" transform="matrix(0.9833 0.182 -0.182 0.9833 106.7127 -118.2494)" fill="#CCD1D9" width="13.525" height="13.53"/>
						
							<rect x="699.54" y="579.094" transform="matrix(0.9833 0.182 -0.182 0.9833 118.4385 -118.7761)" fill="#CCD1D9" width="13.531" height="13.53"/>
						
							<rect x="703.17" y="559.202" transform="matrix(0.9833 0.1821 -0.1821 0.9833 114.9142 -119.8)" fill="#CCD1D9" width="13.527" height="13.528"/>
						
							<rect x="706.956" y="539.171" transform="matrix(0.9833 0.182 -0.182 0.9833 111.2866 -120.785)" fill="#CCD1D9" width="13.532" height="13.528"/>
						
							<rect x="710.504" y="519.359" transform="matrix(0.9833 0.1821 -0.1821 0.9833 107.7822 -121.8014)" fill="#CCD1D9" width="13.527" height="13.527"/>
						
							<rect x="719.567" y="582.728" transform="matrix(0.9833 0.1821 -0.1821 0.9833 119.5131 -122.4274)" fill="#CCD1D9" width="13.528" height="13.529"/>
						
							<rect x="723.223" y="562.803" transform="matrix(0.9833 0.182 -0.182 0.9833 115.8596 -123.3511)" fill="#CCD1D9" width="13.532" height="13.528"/>
						
							<rect x="726.86" y="542.906" transform="matrix(0.9833 0.182 -0.182 0.9833 112.3165 -124.3616)" fill="#CCD1D9" width="13.53" height="13.528"/>
						
							<rect x="730.546" y="522.966" transform="matrix(0.9833 0.1821 -0.1821 0.9833 108.8118 -125.4267)" fill="#CCD1D9" width="13.528" height="13.526"/>
						
							<rect x="739.423" y="586.476" transform="matrix(0.9833 0.1822 -0.1822 0.9833 120.5466 -125.9974)" fill="#CCD1D9" width="13.526" height="13.528"/>
						
							<rect x="743.165" y="566.481" transform="matrix(0.9833 0.1821 -0.1821 0.9833 116.8989 -126.9521)" fill="#CCD1D9" width="13.528" height="13.53"/>
						
							<rect x="746.797" y="546.638" transform="matrix(0.9833 0.1819 -0.1819 0.9833 113.268 -127.8708)" fill="#CCD1D9" width="13.526" height="13.527"/>
						
							<rect x="750.503" y="526.627" transform="matrix(0.9833 0.1819 -0.1819 0.9833 109.6888 -128.879)" fill="#CCD1D9" width="13.526" height="13.526"/>
						
							<rect x="761.265" y="570.058" transform="matrix(0.9833 0.1819 -0.1819 0.9833 119.5749 -129.9053)" fill="#CCD1D9" width="13.524" height="33.815"/>
						
							<rect x="766.705" y="550.371" transform="matrix(0.9833 0.1819 -0.1819 0.9833 114.2305 -131.3839)" fill="#CCD1D9" width="13.525" height="13.526"/>
						
							<rect x="770.406" y="530.392" transform="matrix(0.9833 0.1822 -0.1822 0.9833 110.896 -132.6268)" fill="#CCD1D9" width="13.526" height="13.524"/>
					</g>
				</g>
			</g>
			<g id="freelance">
				<g>
					<g>
						<path fill="#586273" d="M220.277,297.438l-36.38,12.762c-2.858,1.002-4.377,4.163-3.374,7.021l25.523,72.759
							c1.002,2.854,4.163,4.377,7.021,3.373l36.381-12.766c2.858-1.002,4.376-4.162,3.374-7.02l-25.523-72.76
							C226.295,297.955,223.136,296.435,220.277,297.438z M245.801,370.199l-36.381,12.762l-23.697-67.555
							c0-0.004,0.003-0.008,0.006-0.012l36.362-12.755c0.003,0,0.008,0.002,0.013,0.005L245.801,370.199L245.801,370.199z"/>
					</g>
					<g>
						<g>
							
								<rect x="225.322" y="380.396" transform="matrix(0.9436 -0.331 0.331 0.9436 -113.4354 97.4725)" fill="#464E5C" width="8.264" height="2.754"/>
						</g>
					</g>
					<g>
						<g>
							<g>
								<polygon fill="#F7F9F8" points="185.729,315.395 185.723,315.406 209.42,382.961 245.801,370.199 222.104,302.645 
									222.091,302.64 								"/>
							</g>
						</g>
					</g>
					<g>
						<g>
							<g>
								<path fill="#62C3ED" d="M224.145,332.975l-2.294-3.268c-0.237-0.342-0.775-0.652-1.189-0.69l-6.711-0.511
									c-0.002,0-0.005,0-0.008,0l-0.373-1.063c0.495-1.396,0.493-3.171-0.124-4.932l-0.497-1.416
									c-0.878-2.501-3.509-3.855-5.876-3.025l0,0l0,0l0,0c-2.368,0.831-3.576,3.529-2.698,6.033l0.497,1.416
									c0.618,1.761,1.725,3.149,2.985,3.929l0.373,1.062c-0.002,0.002-0.007,0.005-0.008,0.006l-4.921,4.592
									c-0.3,0.289-0.521,0.866-0.497,1.281l0.249,3.984c0.027,0.416,0.37,0.643,0.764,0.505l10.025-3.517l0,0l10.025-3.517
									C224.259,333.708,224.384,333.316,224.145,332.975z"/>
							</g>
						</g>
					</g>
					<g>
						<g>
							
								<rect x="205.387" y="343.94" transform="matrix(0.9436 -0.331 0.331 0.9436 -102.5864 91.4582)" fill="#DCE4E8" width="23.63" height="5.908"/>
						</g>
					</g>
					<g>
						<g>
							
								<rect x="208.326" y="352.3" transform="matrix(0.9436 -0.331 0.331 0.9436 -105.1782 92.8896)" fill="#DCE4E8" width="23.628" height="5.908"/>
						</g>
					</g>
					<g>
						<g>
							
								<rect x="217.047" y="360.712" transform="matrix(0.9436 -0.331 0.331 0.9436 -107.8144 94.3079)" fill="#DCE4E8" width="11.815" height="5.91"/>
						</g>
					</g>
					<g>
						<g>
							<g>
								<circle fill="#586273" cx="211.654" cy="358.223" r="1.108"/>
							</g>
						</g>
						<g>
							<g>
								<circle fill="#586273" cx="217.229" cy="356.267" r="1.108"/>
							</g>
						</g>
						<g>
							<g>
								<circle fill="#586273" cx="214.441" cy="357.245" r="1.108"/>
							</g>
						</g>
						<g>
							<g>
								<circle fill="#586273" cx="220.017" cy="355.289" r="1.108"/>
							</g>
						</g>
						<g>
							<g>
								<circle fill="#586273" cx="208.72" cy="349.859" r="1.108"/>
							</g>
						</g>
						<g>
							<g>
								<circle fill="#586273" cx="219.871" cy="345.948" r="1.108"/>
							</g>
						</g>
						<g>
							<g>
								<circle fill="#586273" cx="214.295" cy="347.904" r="1.108"/>
							</g>
						</g>
						<g>
							<g>
								<circle fill="#586273" cx="211.508" cy="348.881" r="1.108"/>
							</g>
						</g>
						<g>
							<g>
								<circle fill="#586273" cx="217.083" cy="346.925" r="1.108"/>
							</g>
						</g>
					</g>
					<g>
						<g>
							
								<rect x="220.057" y="362.762" transform="matrix(0.9436 -0.3311 0.3311 0.9436 -107.8222 94.3468)" fill="#EF8555" width="5.908" height="1.771"/>
						</g>
					</g>
					<g opacity="0.2">
						<path fill="#DCE4E8" d="M202.292,303.747l-18.395,6.453c-2.858,1.002-4.377,4.163-3.374,7.021l25.523,72.759
							c1.002,2.854,4.163,4.377,7.021,3.373l18.401-6.453L202.292,303.747z"/>
					</g>
				</g>
				<g>
					<g>
						<g>
							<circle fill="#BE3D2F" cx="81.994" cy="217.842" r="43.906"/>
						</g>
					</g>
					<g>
						<g>
							<circle fill="#F7F9F8" cx="94.994" cy="209.842" r="43.906"/>
						</g>
					</g>
					<g>
						<g>
							<path fill="#F7F9F8" d="M136.712,258.336c-2.106,0-4.214-0.803-5.822-2.409l-19.16-19.162c-3.215-3.214-3.215-8.428,0-11.643
								c3.216-3.215,8.428-3.215,11.643,0l19.16,19.161c3.216,3.216,3.216,8.427,0,11.644
								C140.925,257.534,138.819,258.336,136.712,258.336z"/>
						</g>
					</g>
					<g>
						<g>
							<path fill="#EF8555" d="M127,202.082c-1.375-5.688-4.279-11.082-8.721-15.523c-12.86-12.859-33.71-12.859-46.57,0
								c-4.44,4.441-7.347,9.835-8.721,15.523c-2.603,10.783,0.302,22.627,8.721,31.045c12.86,12.859,33.71,12.859,46.57,0
								C126.697,224.708,129.604,212.865,127,202.082z"/>
						</g>
					</g>
					<g>
						<g>
							<g>
								<path fill="#382104" d="M66.875,192.702c4.993-3.053,10.862-4.81,17.143-4.81c18.187-0.003,32.93,14.742,32.929,32.928
									c0.001,6.28-1.758,12.15-4.809,17.143c9.466-5.785,15.785-16.213,15.785-28.117c0-18.188-14.742-32.931-32.929-32.931
									C83.088,176.915,72.659,183.234,66.875,192.702z"/>
							</g>
						</g>
						<g>
							<g>
								<path fill="#5E2905" d="M84.018,187.892c-6.28,0-12.149,1.757-17.143,4.81c-3.051,4.993-4.811,10.862-4.81,17.141
									c-0.001,18.188,14.743,32.931,32.929,32.931c6.28,0,12.149-1.76,17.144-4.811c3.051-4.992,4.81-10.862,4.809-17.143
									C116.947,202.634,102.204,187.889,84.018,187.892z"/>
							</g>
						</g>
					</g>
				</g>
			</g>
			<g id="entrepeneur">
				<g id="ipadscene4">
					<path fill="#BE3D2F" d="M249.617,252.565l-105.064,28.957c-4.403,1.213-7.011,5.808-5.798,10.21l39.71,144.083
						c1.213,4.396,5.808,7.016,10.21,5.802l105.065-28.96c4.396-1.214,7.011-5.81,5.798-10.212l-39.71-144.081
						C258.615,253.962,254.019,251.353,249.617,252.565z M289.328,396.646L184.263,425.6c0,0-35.566-129.078-35.562-129.083
						c0,0,105.048-28.942,105.055-28.938L289.328,396.646z"/>
					<path fill="#F7F9F8" d="M151.702,294.521c-0.004,0.006,35.562,129.082,35.562,129.082l105.065-28.954
						c0,0-35.584-129.066-35.59-129.072L151.702,294.521z"/>
					<path fill="#434A54" d="M252.617,250.565l-105.064,28.957c-4.403,1.213-7.011,5.808-5.798,10.21l39.71,144.083
						c1.213,4.396,5.808,7.016,10.21,5.802l105.065-28.96c4.396-1.214,7.011-5.81,5.798-10.212l-39.71-144.081
						C261.615,251.962,257.019,249.353,252.617,250.565z M292.328,394.646L187.263,423.6c0,0-35.566-129.078-35.562-129.083
						c0,0,105.048-28.942,105.055-28.938L292.328,394.646z"/>
					
						<rect x="229.548" y="415.055" transform="matrix(0.9641 -0.2657 0.2657 0.9641 -102.1281 79.2897)" fill="#2A2A2A" width="24.917" height="4.151"/>
					<g>
						<g>
							
								<rect x="189.197" y="391.574" transform="matrix(0.9641 -0.2656 0.2656 0.9641 -99.9822 66.0906)" fill="#3498DB" width="10.335" height="22.268"/>
						</g>
						<g>
							
								<rect x="203.406" y="373.067" transform="matrix(0.964 -0.2657 0.2657 0.964 -96.4989 69.4975)" fill="#3498DB" width="10.338" height="36.577"/>
						</g>
						<g>
							
								<rect x="221.515" y="377.942" transform="matrix(0.9641 -0.2655 0.2655 0.9641 -95.8159 74.1331)" fill="#3498DB" width="9.541" height="27.03"/>
						</g>
						<g>
							
								<rect x="235.229" y="356.196" transform="matrix(0.9641 -0.2656 0.2656 0.9641 -91.8796 77.4377)" fill="#3498DB" width="10.336" height="44.521"/>
						</g>
						<g>
							
								<rect x="253.003" y="363.435" transform="matrix(0.964 -0.2658 0.2658 0.964 -91.6365 82.2705)" fill="#3498DB" width="10.333" height="32.588"/>
						</g>
						<g>
							
								<rect x="267.119" y="338.674" transform="matrix(0.9641 -0.2657 0.2657 0.9641 -87.2925 85.3743)" fill="#3498DB" width="9.541" height="53.278"/>
						</g>
					</g>
					<g>
						<g>
							<g>
								<path fill="#E74C3C" d="M180.389,364.865c-0.707,0.194-1.494,0.02-2.056-0.53c-0.841-0.824-0.855-2.17-0.032-3.011
									l26.925-27.511c0.822-0.84,2.17-0.855,3.011-0.033c0.842,0.823,0.854,2.17,0.032,3.01l-26.926,27.512
									C181.071,364.581,180.74,364.769,180.389,364.865z"/>
							</g>
						</g>
						<g>
							<g>
								<path fill="#E74C3C" d="M230.049,345.32c-0.703,0.193-1.486,0.021-2.047-0.521c-0.845-0.817-0.867-2.165-0.051-3.01
									l30.087-31.141c0.815-0.846,2.166-0.869,3.011-0.052c0.845,0.817,0.868,2.165,0.052,3.01l-30.088,31.142
									C230.738,345.032,230.404,345.222,230.049,345.32z"/>
							</g>
						</g>
						<g>
							<g>
								<path fill="#E74C3C" d="M230.054,345.303c-0.403,0.111-0.845,0.104-1.271-0.047l-22.742-8.021
									c-1.108-0.392-1.691-1.606-1.298-2.716c0.389-1.108,1.604-1.691,2.714-1.299l22.743,8.022
									c1.105,0.391,1.688,1.605,1.299,2.715C231.257,344.641,230.704,345.124,230.054,345.303z"/>
							</g>
						</g>
					</g>
					<g>
						<g>
							
								<rect x="163.13" y="295.927" transform="matrix(0.9641 -0.2657 0.2657 0.9641 -75.4529 57.1383)" fill="#B7BFC7" width="20.677" height="23.062"/>
						</g>
						<g>
							
								<rect x="184.528" y="289.376" transform="matrix(0.9641 -0.2657 0.2657 0.9641 -70.5771 62.5918)" fill="#DCE4E8" width="23.062" height="5.565"/>
						</g>
						<g>
							
								<rect x="186.956" y="298.663" transform="matrix(0.9641 -0.2657 0.2657 0.9641 -73.069 62.7222)" fill="#DCE4E8" width="16.699" height="5.565"/>
						</g>
						<g>
							
								<rect x="237.528" y="284.612" transform="matrix(0.9641 -0.2657 0.2657 0.9641 -67.5068 75.7633)" fill="#DCE4E8" width="17.496" height="5.564"/>
						</g>
						<g>
							
								<rect x="205.897" y="291.674" transform="matrix(0.9641 -0.2657 0.2657 0.9641 -70.3081 69.2008)" fill="#DCE4E8" width="29.423" height="5.565"/>
						</g>
						<g>
							
								<rect x="189.459" y="308.044" transform="matrix(0.9641 -0.2657 0.2657 0.9641 -75.6065 62.7808)" fill="#DCE4E8" width="9.541" height="5.564"/>
						</g>
						<g>
							
								<rect x="201.487" y="303.289" transform="matrix(0.9641 -0.2657 0.2657 0.9641 -73.7214 67.1752)" fill="#DCE4E8" width="19.881" height="5.565"/>
						</g>
						<g>
							
								<rect x="210.088" y="284.173" transform="matrix(0.9641 -0.2656 0.2656 0.9641 -68.4985 67.3736)" fill="#DCE4E8" width="9.545" height="5.564"/>
						</g>
						<g>
							
								<rect x="221.933" y="277.972" transform="matrix(0.9641 -0.2657 0.2657 0.9641 -66.0591 73.1748)" fill="#DCE4E8" width="31.013" height="5.565"/>
						</g>
					</g>
					<g opacity="0.2">
						<g>
							<path fill="#DCE4E8" d="M200.763,264.857l-53.21,14.665c-4.403,1.213-7.011,5.808-5.798,10.21l39.71,144.083
								c1.213,4.396,5.808,7.016,10.21,5.802l53.21-14.669L200.763,264.857z"/>
						</g>
					</g>
				</g>
				<g id="iphone05">
					<path fill="#BE3D2F" d="M387.182,377.81l0.054-8.359l0.55-83.746l0,0l0.053-8.377c0.02-3.071-2.474-5.597-5.545-5.619
						l-44.66-0.292c-3.07-0.02-5.598,2.477-5.618,5.545l-0.062,8.377l0-0.001l-0.549,83.746l0.01,0.001l-0.058,8.36
						c-0.02,3.07,2.478,5.602,5.548,5.62l44.658,0.291C384.634,383.376,387.159,380.883,387.182,377.81z"/>
					<path fill="#434A54" d="M391.15,375.87l-0.025-8.231l0,0l0.042-83.848l0.008,0.001l-0.022-8.261
						c-0.002-3.07-2.507-5.644-5.579-5.642l-44.657,0.008c-3.07,0.003-5.569,2.44-5.566,5.509l0.014,7.419l-0.008,0l-0.011,83.651
						h-0.002l-0.003,9.3c0.003,3.068,2.508,5.654,5.578,5.649l44.655-0.004C388.648,381.418,391.15,378.942,391.15,375.87z"/>
					<circle fill="#2A2A2A" cx="361.834" cy="374.5" r="4.188"/>
					<rect id="iphone5positionpath" x="338.032" y="284.385" fill="#FFFFFF" width="50.438" height="82.593"/>
					<path fill="#3498DB" d="M359.309,329.982l5.305-8.57c0.06-0.1,0.133-0.149,0.219-0.147c0.083,0.002,0.155,0.053,0.211,0.155
						l4.763,8.528c0.057,0.1,0.063,0.185,0.02,0.261c-0.041,0.075-0.121,0.11-0.237,0.11l-10.081,0.022
						c-0.117,0-0.195-0.035-0.233-0.104C359.237,330.166,359.248,330.083,359.309,329.982L359.309,329.982z"/>
				</g>
			</g>
			<g id="employee">
				<g>
					<g>
						<g>
							<path fill="#586273" d="M156.682,275.496c-4.256,0.67-7.189,4.7-6.52,8.956l23.162,147.031
								c0.67,4.256,4.701,7.188,8.957,6.52l50.301-7.924l-25.6-162.506L156.682,275.496z"/>
						</g>
					</g>
					<g opacity="0.2">
						<g>
							<path fill="#AAB2BD" d="M156.682,275.496c-4.256,0.67-7.189,4.7-6.52,8.956l23.162,147.031
								c0.67,4.256,4.701,7.188,8.957,6.52l50.301-7.924l-25.6-162.506L156.682,275.496z"/>
						</g>
					</g>
					<g>
						<g>
							<path fill="#656D78" d="M257.282,259.648l-50.299,7.924l25.6,162.506l50.299-7.924c4.256-0.67,7.189-4.703,6.52-8.957
								L266.24,266.165C265.569,261.91,261.538,258.978,257.282,259.648z"/>
						</g>
					</g>
				</g>
				<g>
					<g>
						<polygon fill="#F7F9F8" points="184.323,425.783 184.327,425.783 277.18,411.156 277.182,411.154 255.241,271.867 
							255.239,271.866 162.383,286.494 162.381,286.496 						"/>
					</g>
				</g>
				<g>
					<path fill="#464E5C" d="M204.696,253.06c-6.41,1.01-10.787,7.026-9.777,13.438c1.01,6.409,7.023,10.788,13.436,9.778
						c6.41-1.01,10.787-7.025,9.777-13.436C217.122,256.429,211.108,252.05,204.696,253.06z M207.44,270.474
						c-3.205,0.504-6.215-1.686-6.719-4.89c-0.506-3.205,1.686-6.214,4.889-6.72c3.207-0.504,6.213,1.686,6.719,4.891
						C212.833,266.96,210.645,269.968,207.44,270.474z"/>
				</g>
				<g>
					<g>
						<g>
							<g>
								
									<rect x="190.735" y="404.908" transform="matrix(0.9878 -0.1556 0.1556 0.9878 -60.5245 40.5788)" fill="#DCE4E8" width="76.368" height="3.917"/>
							</g>
						</g>
					</g>
					<g>
						<g>
							<g>
								
									<rect x="188.919" y="393.288" transform="matrix(0.9878 -0.1556 0.1556 0.9878 -58.7378 40.1541)" fill="#DCE4E8" width="76.369" height="3.917"/>
							</g>
						</g>
					</g>
					<g>
						<g>
							<g>
								
									<rect x="187.072" y="381.697" transform="matrix(0.9878 -0.1556 0.1556 0.9878 -56.9538 39.7233)" fill="#DCE4E8" width="76.37" height="3.919"/>
							</g>
						</g>
					</g>
					<g>
						<g>
							<g>
								
									<rect x="185.247" y="370.087" transform="matrix(0.9878 -0.1556 0.1556 0.9878 -55.1702 39.2983)" fill="#DCE4E8" width="76.369" height="3.919"/>
							</g>
						</g>
					</g>
					<g>
						<g>
							<g>
								
									<rect x="183.425" y="358.472" transform="matrix(0.9878 -0.1556 0.1556 0.9878 -53.3864 38.8749)" fill="#DCE4E8" width="76.373" height="3.917"/>
							</g>
						</g>
					</g>
					<g>
						<g>
							<g>
								
									<rect x="181.594" y="346.868" transform="matrix(0.9878 -0.1556 0.1556 0.9878 -51.6015 38.4472)" fill="#DCE4E8" width="76.369" height="3.916"/>
							</g>
						</g>
					</g>
					<g>
						<g>
							<g>
								
									<rect x="179.762" y="335.263" transform="matrix(0.9878 -0.1556 0.1556 0.9878 -49.8178 38.0204)" fill="#DCE4E8" width="76.37" height="3.917"/>
							</g>
						</g>
					</g>
					<g>
						<g>
							<g>
								
									<rect x="177.944" y="323.647" transform="matrix(0.9878 -0.1556 0.1556 0.9878 -48.0348 37.598)" fill="#DCE4E8" width="76.369" height="3.919"/>
							</g>
						</g>
					</g>
					<g>
						<g>
							<g>
								
									<rect x="176.11" y="312.043" transform="matrix(0.9878 -0.1556 0.1556 0.9878 -46.25 37.1702)" fill="#DCE4E8" width="76.372" height="3.918"/>
							</g>
						</g>
					</g>
					<g>
						<g>
							<g>
								
									<rect x="174.279" y="300.441" transform="matrix(0.9878 -0.1556 0.1556 0.9878 -44.4662 36.7432)" fill="#DCE4E8" width="76.37" height="3.917"/>
							</g>
						</g>
					</g>
					<g>
						<g>
							<g>
								
									<rect x="172.451" y="288.829" transform="matrix(0.9878 -0.1556 0.1556 0.9878 -42.6814 36.3171)" fill="#DCE4E8" width="76.37" height="3.916"/>
							</g>
						</g>
					</g>
				</g>
				<g>
					<g>
						<path fill="#464E5C" d="M237.067,269.771c0.672,4.256-2.264,8.287-6.518,8.957l-42.562,6.705
							c-4.256,0.67-8.287-2.264-8.957-6.52l-0.305-1.936c-0.67-4.256,2.264-8.285,6.52-8.955l42.562-6.705
							c4.254-0.67,8.285,2.262,8.955,6.518L237.067,269.771z"/>
					</g>
				</g>
			</g>
			<g id="clients">
				<g id="hem">
					<g>
						<g>
							<g>
								<path fill="#BE3D2F" d="M163.703,648.192c-0.055,2.635,2.056,4.837,4.69,4.893l100.63,2.116
									c2.635,0.055,4.838-2.057,4.893-4.691l3.021-143.622c0.055-2.635-2.057-4.837-4.692-4.893l-100.63-2.116
									c-2.635-0.055-4.836,2.06-4.892,4.691l-0.051,2.396l-4.792-0.102l-0.101,4.792l4.792,0.101l-0.101,4.792l-4.792-0.101
									l-0.101,4.793l4.792,0.101l-0.103,4.904l-4.792-0.101l-0.101,4.792l4.792,0.101l-0.099,4.68l-4.792-0.101l-0.101,4.791
									l4.792,0.101l-0.101,4.791l-4.792-0.101l-0.101,4.794l4.792,0.101l-0.103,4.904l-4.792-0.101l-0.101,4.792l4.792,0.102
									l-0.098,4.677l-4.792-0.102l-0.101,4.793l4.792,0.101l-0.101,4.792l-4.792-0.101l-0.101,4.791l4.792,0.101l-0.104,4.906
									l-4.792-0.101l-0.101,4.792l4.792,0.101l-0.098,4.679l-4.792-0.101l-0.101,4.792l4.792,0.101l-0.101,4.793l-4.792-0.101
									l-0.101,4.791l4.792,0.101l-0.103,4.905l-4.792-0.102l-0.101,4.791l4.792,0.102l-0.099,4.683l-4.792-0.104l-0.101,4.793
									l4.792,0.104l-0.098,4.652l-4.792-0.101l-0.101,4.792l4.792,0.101l-0.101,4.792l-4.792-0.101l-0.101,4.792l4.792,0.101
									L163.703,648.192z"/>
							</g>
						</g>
						<g>
							<g>
								<path fill="#ECF0F1" d="M276.362,648.164c-0.055,2.635-2.256,4.747-4.892,4.691l-100.63-2.116
									c-2.636-0.059-4.747-2.259-4.691-4.896l3.021-143.622c0.055-2.635,2.257-4.746,4.893-4.688l100.63,2.116
									c2.636,0.055,4.746,2.257,4.691,4.893L276.362,648.164z"/>
							</g>
						</g>
						<g>
							<g>
								
									<rect x="161.851" y="619.644" transform="matrix(-0.9998 -0.0211 0.0211 -0.9998 320.139 1247.4561)" fill="#E5E5E5" width="9.589" height="4.792"/>
							</g>
						</g>
						<g>
							<g>
								
									<rect x="161.651" y="629.09" transform="matrix(-0.9998 -0.0212 0.0212 -0.9998 319.4741 1266.3591)" fill="#E5E5E5" width="9.588" height="4.794"/>
							</g>
						</g>
						<g>
							<g>
								
									<rect x="161.45" y="638.674" transform="matrix(-0.9998 -0.021 0.021 -0.9998 318.9963 1285.4893)" fill="#E5E5E5" width="9.586" height="4.793"/>
							</g>
						</g>
						<g>
							<g>
								
									<rect x="162.048" y="610.171" transform="matrix(-0.9998 -0.0211 0.0211 -0.9998 320.731 1228.5161)" fill="#E5E5E5" width="9.588" height="4.793"/>
							</g>
						</g>
						<g>
							<g>
								
									<rect x="162.253" y="600.473" transform="matrix(-0.9998 -0.0211 0.0211 -0.9998 321.342 1209.1277)" fill="#E5E5E5" width="9.586" height="4.794"/>
							</g>
						</g>
						<g>
							<g>
								
									<rect x="162.455" y="590.888" transform="matrix(-0.9998 -0.0211 0.0211 -0.9998 321.9518 1189.9628)" fill="#E5E5E5" width="9.588" height="4.793"/>
							</g>
						</g>
						<g>
							<g>
								
									<rect x="162.655" y="581.421" transform="matrix(-0.9998 -0.0211 0.0211 -0.9998 322.5519 1171.0344)" fill="#E5E5E5" width="9.588" height="4.792"/>
							</g>
						</g>
						<g>
							<g>
								
									<rect x="162.859" y="571.722" transform="matrix(-0.9998 -0.0211 0.0211 -0.9998 323.1647 1151.6432)" fill="#E5E5E5" width="9.589" height="4.793"/>
							</g>
						</g>
						<g>
							<g>
								
									<rect x="163.062" y="562.137" transform="matrix(-0.9998 -0.0211 0.0211 -0.9998 323.7675 1132.4814)" fill="#E5E5E5" width="9.586" height="4.794"/>
							</g>
						</g>
						<g>
							<g>
								
									<rect x="163.261" y="552.666" transform="matrix(-0.9998 -0.021 0.021 -0.9998 324.4219 1113.5325)" fill="#E5E5E5" width="9.586" height="4.795"/>
							</g>
						</g>
						<g>
							<g>
								
									<rect x="163.461" y="542.969" transform="matrix(-0.9998 -0.021 0.021 -0.9998 325.0311 1094.1426)" fill="#E5E5E5" width="9.588" height="4.794"/>
							</g>
						</g>
						<g>
							<g>
								
									<rect x="163.663" y="533.386" transform="matrix(-0.9998 -0.021 0.021 -0.9998 325.6364 1074.9819)" fill="#E5E5E5" width="9.588" height="4.793"/>
							</g>
						</g>
						<g>
							<g>
								
									<rect x="163.864" y="523.916" transform="matrix(-0.9998 -0.021 0.021 -0.9998 326.2354 1056.0479)" fill="#E5E5E5" width="9.588" height="4.792"/>
							</g>
						</g>
						<g>
							<g>
								
									<rect x="164.07" y="514.218" transform="matrix(-0.9998 -0.0211 0.0211 -0.9998 326.7953 1036.6746)" fill="#E5E5E5" width="9.586" height="4.793"/>
							</g>
						</g>
						<g>
							<g>
								
									<rect x="164.271" y="504.635" transform="matrix(-0.9998 -0.0213 0.0213 -0.9998 327.3 1017.5463)" fill="#E5E5E5" width="9.589" height="4.793"/>
							</g>
						</g>
					</g>
					<g>
						<g>
							
								<rect x="183.469" y="576.963" transform="matrix(-0.9998 -0.021 0.021 -0.9998 440.0715 1162.368)" fill="#BDC3C7" width="85.339" height="3.821"/>
						</g>
						<g>
							
								<rect x="183.603" y="570.596" transform="matrix(-0.9998 -0.021 0.021 -0.9998 440.4728 1149.637)" fill="#BDC3C7" width="85.339" height="3.82"/>
						</g>
						<g>
							
								<rect x="183.743" y="564.227" transform="matrix(-0.9998 -0.021 0.021 -0.9998 440.8889 1136.9028)" fill="#BDC3C7" width="85.34" height="3.82"/>
						</g>
						<g>
							
								<rect x="183.863" y="557.863" transform="matrix(-0.9998 -0.021 0.021 -0.9998 441.2617 1124.1812)" fill="#BDC3C7" width="85.34" height="3.821"/>
						</g>
						<g>
							
								<rect x="245.321" y="512.027" transform="matrix(-0.9998 -0.021 0.021 -0.9998 504.6335 1033.173)" fill="#BDC3C7" width="24.838" height="3.821"/>
						</g>
						<g>
							
								<rect x="245.207" y="518.385" transform="matrix(-0.9998 -0.021 0.021 -0.9998 504.2711 1045.8862)" fill="#BDC3C7" width="24.838" height="3.821"/>
						</g>
						<g>
							
								<rect x="245.074" y="524.752" transform="matrix(-0.9998 -0.021 0.021 -0.9998 503.8723 1058.6143)" fill="#BDC3C7" width="24.838" height="3.821"/>
						</g>
						<g>
							
								<rect x="244.938" y="531.118" transform="matrix(-0.9998 -0.021 0.021 -0.9998 503.4683 1071.3433)" fill="#BDC3C7" width="24.839" height="3.822"/>
						</g>
						<g>
							
								<rect x="183.332" y="582.799" transform="matrix(-0.9998 -0.021 0.021 -0.9998 388.7226 1173.5037)" fill="#BDC3C7" width="34.39" height="3.82"/>
						</g>
					</g>
					<g transform="translate(180.000000,530.000000) scale(0.0350000,-0.0350000) rotate(-2 0 0)" fill="#000000" stroke="none">
						<path d="M35 606 c-31 -8 -35 -40 -35 -307 l0 -299 60 0 60 0 0 310 c0 322 1 319 -85 296z"/>
						<path d="M200 439 c-26 -17 -26 -22 5 -40 29 -18 35 -51 35 -210 l0 -189 70 0 70 0 0 197 c0 239 -61 322 -180 242z"/>
						<path d="M528 392 c-176 -176 2 -451 239 -373 95 31 92 51 -7 52 -156 2 -212 153 -130 354 23 58 -28 41 -102 -33z"/>
						<path d="M721 419 c12 -23 16 -68 9 -100 -12 -53 -8 -59 36 -59 109 0 109 128 1 178 -67 30 -72 28 -46 -19z"/>
						<path d="M985 446 c-43 -8 -45 -17 -45 -227 l0 -219 60 0 60 0 0 230 c0 127 -7 229 -15 227 -8 -1 -35 -6 -60 -11z"/>
						<path d="M1134 443 c-35 -14 -34 -16 5 -52 36 -32 41 -61 41 -214 l0 -177 60 0 60 0 0 209 c0 244 -31 287 -166 234z"/>
						<path d="M1375 446 c-46 -12 -44 -31 5 -61 35 -22 40 -47 40 -205 l0 -180 60 0 60 0 0 199 c0 245 -26 284 -165 247z"/>
					</g>
				</g>
				<g id="citi">
					<g>
						
							<rect x="332.53" y="488.964" transform="matrix(0.9995 -0.03 0.03 0.9995 -16.827 11.8988)" fill="#BE3D2F" width="111.124" height="155.431"/>
						
							<rect x="333.494" y="487.942" transform="matrix(0.9995 -0.03 0.03 0.9995 -16.7954 11.9269)" fill="#FFFFFF" width="111.127" height="155.428"/>
					</g>
					<g transform="translate(330,560.000000) scale(0.020000,-0.020000) rotate(2 0 0)" fill="#00508b" stroke="none">
						<path d="M3135 3122 c-265 -60 -507 -196 -710 -398 l-175 -174 157 -6 157 -6 110 91 c477 393 1124 378 1594 -38 52 -46 75 -51 218 -51 l160 0 -37 45 c-385 462 -927 660 -1474 537z" fill="#FC2616"></path>
						<path d="M3395 2648 l-135 -69 0 -149 0 -150 -118 0 -119 0 -6 -132 c-8 -158 -17 -148 126 -148 l117 0 0 -436 c0 -676 98 -845 445 -767 144 33 151 40 186 172 36 139 35 140 -57 101 -250 -104 -283 -49 -290 488 l-7 442 99 0 c212 0 224 8 224 152 l0 126 -155 6 -155 6 -10 213 -10 213 -135 -68z"></path>
						<path d="M1500 2269 c-675 -189 -733 -1179 -84 -1431 258 -101 580 -50 760 119 73 69 71 79 -32 198 l-57 65 -68 -52 c-299 -222 -686 -88 -759 262 -94 455 408 774 756 480 l66 -56 59 68 c105 120 106 129 34 199 -157 152 -438 214 -675 148z"></path>
						<path d="M2440 1552 l0 -729 140 -6 140 -7 0 735 0 735 -140 0 -140 0 0 -728z"></path>
						<path d="M4180 1550 l0 -730 140 0 140 0 0 730 0 730 -140 0 -140 0 0 -730z"></path>
					</g>
					<g>
						<g>
							
								<rect x="350.06" y="577.265" transform="matrix(-0.9995 0.03 -0.03 -0.9995 796.9303 1146.1357)" fill="#DCE4E8" width="79.613" height="3.564"/>
						</g>
						<g>
							
								<rect x="349.882" y="571.325" transform="matrix(-0.9995 0.03 -0.03 -0.9995 796.3958 1134.2668)" fill="#DCE4E8" width="79.613" height="3.566"/>
						</g>
						<g>
							
								<rect x="349.711" y="565.389" transform="matrix(-0.9995 0.03 -0.03 -0.9995 795.8628 1122.3983)" fill="#DCE4E8" width="79.596" height="3.565"/>
						</g>
						<g>
							
								<rect x="349.532" y="559.452" transform="matrix(-0.9995 0.03 -0.03 -0.9995 795.3273 1110.5323)" fill="#DCE4E8" width="79.596" height="3.564"/>
						</g>
						<g>
							
								<rect x="350.252" y="583.915" transform="matrix(-0.9995 0.03 -0.03 -0.9995 749.9993 1160.1372)" fill="#DCE4E8" width="32.083" height="3.564"/>
						</g>
					</g>
				</g>
				<g id="zeus">
					<g>
						
							<rect x="15.81" y="495.822" transform="matrix(0.9965 0.0835 -0.0835 0.9965 48.1445 -3.9571)" fill="#BE3D2F" width="111.13" height="155.436"/>
						
							<rect x="16.979" y="494.995" transform="matrix(0.9965 0.0835 -0.0835 0.9965 48.0793 -4.0576)" fill="#F5F7FA" width="111.131" height="155.436"/>
					</g>
					<g transform="translate(30,538) scale(0.0165,-0.0165) rotate(-7 0 0)" fill="#5E62F3" stroke="none">
						<path d="M93 1483 c-49 -54 -47 -324 4 -370 54 -49 324 -47 370 4 46 50 47 326 2 372 -49 48 -331 44 -376 -6z"/>
						<path d="M598 1487 c-37 -45 -37 -329 0 -374 41 -50 343 -47 389 4 46 50 47 326 2 372 -46 46 -353 44 -391 -2z"/>
						<path d="M2540 1465 c-139 -69 -95 -203 78 -238 72 -14 104 -61 60 -89 -41 -26 -55 -22 -93 22 -34 40 -145 56 -145 21 0 -65 99 -131 196 -131 235 0 257 202 29 267 -94 27 -118 83 -36 83 27 0 54 -8 60 -18 15 -25 110 -40 122 -20 22 35 -34 97 -106 117 -94 26 -83 27 -165 -14z"/>
						<path d="M1220 1440 c0 -35 13 -40 102 -40 l101 0 -113 -129 c-100 -115 -149 -237 -85 -216 8 3 91 5 183 5 158 0 168 2 158 40 -9 34 -27 40 -121 40 l-111 0 113 119 c174 181 163 221 -57 221 -157 0 -170 -3 -170 -40z"/>
						<path d="M1620 1270 l0 -210 140 0 c77 0 147 -2 155 -5 8 -3 18 15 21 40 6 42 -1 45 -95 45 -96 0 -101 3 -101 53 0 50 4 52 90 42 84 -9 90 -7 90 37 0 43 -9 48 -90 48 -77 0 -90 6 -90 40 0 35 13 40 100 40 87 0 100 5 100 40 0 37 -13 40 -160 40 l-160 0 0 -210z"/>
						<path d="M2000 1331 c0 -234 73 -315 252 -282 123 23 148 67 148 261 l0 170 -60 0 -61 0 3 -148 c3 -167 -6 -192 -69 -192 -75 0 -93 38 -93 194 l0 146 -60 0 -60 0 0 -149z"/>
						<path d="M93 983 c-55 -61 -47 -351 11 -392 61 -42 291 -42 352 0 57 40 67 343 13 398 -49 48 -331 44 -376 -6z"/>
						<path d="M676 986 c-162 -101 -131 -359 51 -420 158 -53 305 58 301 229 -4 176 -202 284 -352 191z"/>
						<path d="M1200 790 l0 -210 110 0 c84 0 110 7 110 30 0 22 -22 30 -80 30 l-80 0 0 180 c0 147 -6 180 -30 180 -25 0 -30 -37 -30 -210z"/>
						<path d="M1480 790 l0 -210 120 0 c93 0 120 7 120 30 0 22 -23 30 -90 30 -90 0 -90 0 -90 70 0 71 0 71 85 65 65 -4 85 2 85 25 0 23 -20 28 -85 23 -83 -6 -85 -5 -85 55 0 60 3 62 90 62 67 0 90 8 90 30 0 23 -27 30 -120 30 l-120 0 0 -210z"/>
						<path d="M1834 805 c-83 -216 -85 -225 -48 -225 14 0 35 27 48 60 20 52 32 60 100 60 67 0 80 -8 100 -60 13 -34 37 -60 56 -60 18 0 30 7 27 16 -4 9 -38 103 -75 210 -89 253 -109 253 -208 -1z m124 70 c49 -132 49 -135 -17 -135 -69 0 -69 -1 -38 103 27 90 32 93 55 32z"/>
						<path d="M2160 790 c0 -173 5 -210 30 -210 22 0 30 23 30 90 0 86 3 90 58 90 63 0 82 -28 82 -122 0 -38 10 -58 30 -58 37 0 40 95 7 170 -18 39 -18 57 0 75 74 74 -12 175 -151 175 l-86 0 0 -210z m190 90 c0 -42 -11 -51 -65 -56 -61 -6 -65 -3 -65 56 0 59 4 62 65 56 54 -5 65 -14 65 -56z"/>
						<path d="M2500 790 c0 -170 6 -210 29 -210 24 0 27 31 18 175 l-10 175 61 -100 c33 -55 76 -134 94 -175 69 -153 108 -104 108 135 0 173 -5 210 -30 210 -24 0 -30 -31 -30 -155 l-1 -155 -83 155 c-124 229 -156 218 -156 -55z"/>
						<path d="M2880 790 c0 -173 5 -210 30 -210 25 0 30 37 30 210 0 173 -5 210 -30 210 -25 0 -30 -37 -30 -210z"/>
						<path d="M3020 810 c0 -104 0 -197 0 -205 0 -8 11 -15 25 -15 18 0 23 42 18 155 -8 192 -4 192 98 -5 124 -238 159 -227 159 50 0 173 -5 210 -30 210 -24 0 -30 -32 -31 -165 l-1 -165 -84 165 c-118 235 -154 229 -154 -25z"/>
						<path d="M3465 987 c-167 -67 -85 -405 98 -406 124 -1 137 11 137 131 l0 108 -70 0 c-49 0 -70 -9 -70 -30 0 -17 18 -30 40 -30 31 0 40 -13 40 -60 0 -79 -117 -89 -169 -16 -67 96 -15 276 79 276 17 0 48 -18 70 -40 46 -46 80 -52 80 -13 0 69 -142 117 -235 80z"/>
						</g>
					<g>
						<g>
							
								<rect x="21.694" y="592.872" transform="matrix(-0.9963 -0.0865 0.0865 -0.9963 89.8094 1194.0271)" fill="#AAB2BD" width="98.157" height="4.392"/>
						</g>
						<g>
							
								<rect x="22.339" y="585.573" transform="matrix(-0.9963 -0.0865 0.0865 -0.9963 91.7277 1179.5155)" fill="#AAB2BD" width="98.157" height="4.395"/>
						</g>
						<g>
							
								<rect x="22.961" y="578.279" transform="matrix(-0.9963 -0.0865 0.0865 -0.9963 93.5995 1165.0068)" fill="#AAB2BD" width="98.157" height="4.393"/>
						</g>
						<g>
							
								<rect x="23.6" y="570.979" transform="matrix(-0.9963 -0.0865 0.0865 -0.9963 95.5066 1150.4899)" fill="#AAB2BD" width="98.156" height="4.393"/>
						</g>
						<g>
							
								<rect x="97.687" y="520.667" transform="matrix(-0.9963 -0.0865 0.0865 -0.9963 178.2946 1053.4519)" fill="#AAB2BD" width="28.565" height="4.393"/>
						</g>
						<g>
							
								<rect x="97.045" y="528.02" transform="matrix(-0.9963 -0.0865 0.0865 -0.9963 176.3882 1068.073)" fill="#AAB2BD" width="28.569" height="4.391"/>
						</g>
						<g>
							
								<rect x="96.412" y="535.316" transform="matrix(-0.9963 -0.0865 0.0865 -0.9963 174.4716 1082.5883)" fill="#AAB2BD" width="28.568" height="4.393"/>
						</g>
						<g>
							
								<rect x="95.779" y="542.613" transform="matrix(-0.9963 -0.0865 0.0865 -0.9963 172.5956 1097.0977)" fill="#AAB2BD" width="28.568" height="4.394"/>
						</g>
						<g>
							
								<rect x="21.193" y="597.635" transform="matrix(-0.9963 -0.0865 0.0865 -0.9963 29.9125 1200.959)" fill="#AAB2BD" width="39.556" height="4.393"/>
						</g>
					</g>
				</g>
				
			</g>
			<path id="wire4" opacity="0.8" fill="none" stroke="#F5ECD9" stroke-miterlimit="10" d="M1086.5-246.832
				C1068.007-184.842,888.244-87.724,913,0.005c4.251,15.064,5.797,29.851,24.582,44.136c8.299,6.312,109.839,50.337,48.236,54.366
				c-44.329,2.898-91.146-10.142-134.426-17.852c-20.354-3.625-220.853-43.333-181.155,28.033
				c22.021,39.589,210.467,106.927,200.929,145.145"/>
		</g>
	</g>
</g>
<g id="fg" display="none">
	
		<rect x="-5191" y="-3750.045" display="inline" opacity="0.4" fill="#2C3E50" enable-background="new    " width="11631" height="8341.09"/>
</g>
</svg>
